<?xml version="1.0" encoding="utf-8"?>
<!-- Generator: Adobe Illustrator 16.0.4, SVG Export Plug-In . SVG Version: 6.00 Build 0)  -->
<!DOCTYPE svg PUBLIC "-//W3C//DTD SVG 1.1//EN" "http://www.w3.org/Graphics/SVG/1.1/DTD/svg11.dtd">
<svg version="1.1" id="Layer_1" xmlns="http://www.w3.org/2000/svg" xmlns:xlink="http://www.w3.org/1999/xlink" x="0px" y="0px"
	 width="800px" height="280px" viewBox="0 0 800 280" enable-background="new 0 0 800 280" xml:space="preserve">
<path fill="none" d="M665.523,82.586c-26.618,31.902-49.914,64.277-50.151,64.602l-4.006,5.578h0.001l4.006-5.578
	C615.61,146.863,638.907,114.488,665.523,82.586c47.019-56.366,62.546-61.234,65.455-61.613l0,0
	C728.072,21.351,712.545,26.216,665.523,82.586z"/>
<path fill="none" d="M736.301,13.251c-1.359-1.112-3.011-1.635-4.92-1.634l0,0C733.289,11.616,734.94,12.14,736.301,13.251
	c22.796,18.652,60.104,122.277,60.104,172.017c0,27.51,0,97.312,0,102.807h0.001c0-5.494,0-75.297,0-102.807
	C796.404,135.529,759.098,31.904,736.301,13.251z"/>
<path fill="none" d="M197.216,150.593l-6.516,2.171v0.002L197.216,150.593c0.156-0.054,17.151-5.612,50.562-11.116
	c13.495-2.223,30.954-4.634,52.218-6.648c-21.265,2.015-38.723,4.426-52.219,6.648C214.365,144.979,197.372,150.539,197.216,150.593
	z"/>
<path fill="none" d="M44.904,67.375c-0.838,2.014-1.682,4.088-2.53,6.222C43.222,71.463,44.066,69.39,44.904,67.375z"/>
<path fill="none" d="M426.05,128.539c118.771,2.502,178.177,21.844,178.799,22.052C604.229,150.383,544.82,131.042,426.05,128.539z"
	/>
<path fill="none" d="M44.904,67.375c10.48-25.173,20.134-40.96,26.186-46.399c-0.001,0-0.001,0-0.003,0
	C65.038,26.415,55.386,42.202,44.904,67.375z"/>
<path fill="none" d="M299.996,132.829c27.34-2.589,60.972-4.522,100.564-4.553h-0.001
	C360.968,128.306,327.335,130.24,299.996,132.829z"/>
<path fill="#FFFFFF" d="M190.7,152.764l6.516-2.171c0.156-0.054,17.149-5.612,50.562-11.116c13.496-2.223,30.954-4.634,52.219-6.648
	c27.34-2.589,60.972-4.522,100.563-4.553h0.002h0.53h0.001h0.412h0.001c135.134,0.104,202.681,22.094,203.345,22.317l6.516,2.173
	l4.006-5.578c0.237-0.324,23.533-32.698,50.151-64.602c47.021-56.37,62.548-61.235,65.455-61.613l0,0l0,0
	c-0.001,0-0.001-0.001-0.003-0.002c-2.906,0.378-18.434,5.244-65.454,61.613c-26.618,31.903-49.914,64.277-50.151,64.602
	l-4.006,5.578l-6.518-2.173c-0.622-0.208-60.027-19.549-178.799-22.052c-7.919-0.167-16.101-0.259-24.546-0.265h-0.413h-0.532
	c-70.386,0.054-121.933,6.121-152.783,11.201c-4.176,0.688-8.096,1.376-11.759,2.055c-25.638,4.751-38.664,9.015-38.803,9.062
	l-6.515,2.172H190.7L190.7,152.764z"/>
<path fill="#FFFFFF" d="M35.966,90.709c2.145-6.071,4.289-11.778,6.408-17.112c0.848-2.134,1.692-4.208,2.53-6.222
	c10.481-25.174,20.134-40.96,26.183-46.399c0,0,0.001,0,0.003,0l0,0c0.655,0.087,1.912,0.395,3.965,1.409
	c-2.056-1.015-3.315-1.324-3.97-1.411c-7.742,6.961-21.391,30.877-35.121,69.732c-12.934,36.6-20.969,72.834-20.969,94.56v102.809
	h0.002V185.268C14.998,163.543,23.033,127.309,35.966,90.709z"/>
<path fill="#EDE3D1" d="M0.061,185.862c0-50.439,37.726-155.523,60.78-174.438c1.373-1.126,3.047-1.657,4.976-1.657
	c30.438,0,124.967,131.962,124.967,131.962s68.848-23.008,208.613-23.116v-0.002c0.163,0,0.322,0.001,0.485,0.001
	s0.32-0.001,0.484-0.001v0.002c139.764,0.107,208.613,23.116,208.613,23.116s2.308-3.221,6.318-8.658
	c0.804-1.087,1.672-2.263,2.604-3.52c0.936-1.257,1.932-2.594,2.987-4.003c1.583-2.114,3.297-4.392,5.126-6.805
	c1.219-1.608,2.491-3.277,3.808-4.999c1.317-1.722,2.683-3.496,4.086-5.313c30.203-39.089,79.583-98.658,100.037-98.664
	c0,0,0,0,0.001,0l0,0c1.931-0.001,3.6,0.53,4.975,1.657c23.055,18.915,60.782,123.999,60.782,174.438c0,27.896,0,98.681,0,104.253
	H818V-4.117H-20.333v294.233H0.061C0.061,284.545,0.061,213.76,0.061,185.862z"/>
<path fill="#FFFFFF" d="M769.057,89.971c-9.546-27.094-19.056-47.023-26.608-59.127c-1.289-2.062-2.519-3.899-3.686-5.503
	c-1.941-2.675-3.696-4.708-5.224-6.085c-2.942,0.384-18.646,5.322-66.192,62.48c-26.917,32.351-50.476,65.182-50.716,65.51
	l-4.05,5.657h-0.001l0,0l-6.592-2.203c-0.671-0.225-68.978-22.525-205.633-22.631h-0.417h-0.001H399.4
	c-40.04,0.031-74.051,1.992-101.697,4.618c-21.504,2.043-39.158,4.488-52.806,6.742c-33.789,5.58-50.974,11.217-51.132,11.272
	l-6.589,2.204v-0.002l-0.001,0.002l-0.001-0.002l-4.052-5.657c-0.221-0.309-20.945-29.183-45.709-59.449
	c-1.652-2.017-3.322-4.042-5.003-6.064c-14.076-16.923-25.362-29.269-34.352-38.271c-21.289-21.322-29.706-23.912-31.838-24.2
	c-6.119,5.516-15.882,21.525-26.48,47.052c-0.848,2.042-1.701,4.146-2.559,6.31c-2.143,5.408-4.31,11.197-6.48,17.353
	c-13.078,37.115-21.205,73.859-21.205,95.89v104.254h780.767V185.86C790.262,163.831,782.137,127.087,769.057,89.971z"/>
<path fill="#FFFFFF" d="M401.507,128.276L401.507,128.276c135.134,0.104,202.681,22.095,203.343,22.317l6.518,2.173l0,0
	l-6.516-2.173C604.188,150.371,536.641,128.38,401.507,128.276z"/>
<path fill="#FFFFFF" d="M736.146,26.974c-1.919-2.638-3.655-4.642-5.168-6.001l0,0C732.49,22.331,734.229,24.336,736.146,26.974z"/>
<polygon fill="#FFFFFF" points="190.699,152.766 190.7,152.764 190.7,152.764 190.7,152.762 190.698,152.764 "/>
<path fill="#FFFFFF" d="M71.09,20.977c2.107,0.283,10.432,2.838,31.482,23.863C88.069,30.354,79.607,24.636,75.056,22.386
	C73.001,21.372,71.745,21.065,71.09,20.977L71.09,20.977z"/>
<path fill="#70512F" d="M738.919,11.425c-1.374-1.128-3.044-1.658-4.974-1.657c-20.456,0.007-69.836,59.573-100.038,98.664
	c-1.406,1.817-2.77,3.592-4.086,5.313c-1.316,1.721-2.588,3.392-3.808,4.999c-1.83,2.413-3.544,4.69-5.126,6.805
	c-1.056,1.41-2.052,2.746-2.987,4.002c-0.933,1.256-1.802,2.433-2.604,3.52c-4.011,5.436-6.318,8.658-6.318,8.658
	s-68.849-23.008-208.613-23.116v-0.002c-0.162,0-0.321,0.001-0.484,0.001s-0.322-0.001-0.485-0.001v0.002
	c-139.765,0.107-208.613,23.116-208.613,23.116S96.253,9.767,65.816,9.767c-1.928,0-3.603,0.53-4.976,1.657
	C37.786,30.339,0.061,135.423,0.061,185.862c0,27.899,0,98.683,0,104.255h9.432V185.86c0-22.03,8.125-58.773,21.205-95.89
	c13.884-39.402,27.687-63.654,35.516-70.713c0.663,0.088,1.936,0.402,4.015,1.431c7.42,3.676,25.136,16.506,62.183,61.044
	c1.682,2.022,3.35,4.046,5.001,6.062c24.764,30.266,45.489,59.142,45.709,59.449l4.052,5.655l6.588-2.202
	c0.14-0.047,13.314-4.37,39.241-9.188c3.703-0.689,7.667-1.387,11.89-2.084c31.196-5.151,83.324-11.304,154.503-11.359h0.539h0.417
	c8.539,0.006,16.814,0.1,24.822,0.269c120.108,2.537,180.185,22.151,180.812,22.362l6.592,2.203l4.05-5.657
	c0.24-0.326,23.799-33.158,50.716-65.51c47.551-57.164,63.253-62.097,66.192-62.48c0.002,0,0.002,0.001,0.003,0.002h0.001
	c2.446,2.205,5.475,6.088,8.909,11.589c7.553,12.104,17.062,32.034,26.608,59.127c13.081,37.117,21.206,73.86,21.206,95.89v104.257
	h9.438c0-5.571,0-76.357,0-104.253C799.7,135.424,761.974,30.34,738.919,11.425z"/>
<path fill="#70512F" d="M197.214,150.591c0.139-0.047,13.166-4.31,38.803-9.062C210.379,146.281,197.352,150.544,197.214,150.591z"
	/>
<path fill="#70512F" d="M247.775,139.475c30.85-5.079,82.397-11.147,152.783-11.201
	C330.172,128.328,278.625,134.395,247.775,139.475z"/>
<path fill="#70512F" d="M616.63,129.738c0.925-1.239,1.909-2.558,2.953-3.947C618.539,127.181,617.553,128.499,616.63,129.738z"/>
<path fill="#70512F" d="M614.054,133.208c0.794-1.072,1.653-2.231,2.575-3.471C615.707,130.977,614.848,132.137,614.054,133.208z"/>
<path fill="#70512F" d="M628.417,114.151c1.302-1.698,2.651-3.448,4.039-5.24C631.066,110.703,629.719,112.453,628.417,114.151z"/>
<path fill="#70512F" d="M624.651,119.08c1.206-1.586,2.463-3.232,3.766-4.929C627.114,115.848,625.857,117.495,624.651,119.08z"/>
<path fill="#70512F" d="M731.381,11.617C731.38,11.617,731.38,11.617,731.381,11.617c-20.228,0.005-69.059,58.746-98.925,97.294
	C662.322,70.363,711.153,11.624,731.381,11.617z"/>
<path fill="#70512F" d="M98.056,43.457c8.991,9.004,20.277,21.35,34.354,38.273c1.683,2.022,3.351,4.046,5.001,6.062
	c24.763,30.266,45.489,59.141,45.709,59.449l4.052,5.656l0.001-0.001l-4.052-5.655c-0.221-0.308-20.944-29.183-45.709-59.449
	c-1.651-2.017-3.32-4.04-5.001-6.062C95.365,37.194,77.649,24.363,70.229,20.687C74.832,22.97,83.39,28.769,98.056,43.457z"/>
<path fill="#70512F" d="M787.071,185.266c0-21.724-8.034-57.958-20.971-94.559c-9.439-26.718-18.843-46.371-26.312-58.307
	c-3.396-5.424-6.393-9.254-8.811-11.428h-0.002c1.513,1.359,3.25,3.363,5.168,6.001c1.151,1.582,2.368,3.392,3.644,5.427
	c7.469,11.936,16.87,31.589,26.312,58.307C779.036,127.308,787.07,163.542,787.071,185.266l-0.001,102.81h0.001V185.266z"/>
<path fill="#70512F" d="M736.146,26.974c1.151,1.582,2.368,3.392,3.644,5.427C738.516,30.366,737.299,28.556,736.146,26.974z"/>
<path fill="#70512F" d="M102.572,44.839c8.89,8.879,20.05,21.052,33.97,37.74c1.664,1.994,3.314,3.991,4.948,5.98
	c-1.632-1.988-3.282-3.984-4.945-5.978C122.624,65.894,111.463,53.72,102.572,44.839z"/>
</svg>
