<?xml version="1.0" encoding="utf-8"?>
<!-- Generator: Adobe Illustrator 16.0.0, SVG Export Plug-In . SVG Version: 6.00 Build 0)  -->
<!DOCTYPE svg PUBLIC "-//W3C//DTD SVG 1.1//EN" "http://www.w3.org/Graphics/SVG/1.1/DTD/svg11.dtd">
<svg version="1.1" id="Layer_1" xmlns="http://www.w3.org/2000/svg" xmlns:xlink="http://www.w3.org/1999/xlink" x="0px" y="0px"
	 width="1000px" height="830px" viewBox="0 0 1000 830" enable-background="new 0 0 1000 830" xml:space="preserve">
<g>
	<path fill="none" d="M261.094,698.601c73.787,23.513,156.364,37.207,232.522,38.564l4.438,0.079v0.025
		c0.636-0.006,1.984-0.018,1.984-0.018c0.63,0.006,1.26,0.012,1.89,0.018l-0.001-0.025l4.453-0.079
		c76.158-1.357,158.735-15.052,232.521-38.564c29.456-9.386,56.368-20.015,79.19-31.079H181.903
		C204.725,678.586,231.639,689.215,261.094,698.601z"/>
	<path fill="none" d="M880.29,626.674c46.28-48.208,40.965-132.695,30.774-222.375c-9.832-86.523-33.58-162.398-33.818-163.154
		l-0.209-0.661V191.79c0-47.972-36.449-146.234-56.352-162.517c-0.317-0.261-0.821-0.56-1.897-0.56
		c-4.825,0-21.021,5.96-67.064,61.17c-25.777,30.912-48.307,62.22-48.53,62.532l-1.936,2.692l-3.145-1.048
		c-22.562-7.493-92.905-21.687-197.655-21.767l-0.922-0.002c-104.747,0.082-175.092,14.276-197.653,21.77l-3.142,1.043l-1.934-2.688
		c-0.224-0.313-22.781-31.655-48.564-62.567c-46.023-55.179-62.21-61.136-67.033-61.136c-1.088,0-1.604,0.319-1.898,0.56
		c-19.902,16.282-56.349,114.544-56.349,162.517v48.693l-0.209,0.662c-0.238,0.757-23.988,76.631-33.82,163.154
		c-10.19,89.678-15.505,174.166,30.773,222.376c12.769,13.301,34.456,27.396,62.196,40.848h636.191
		C845.834,654.07,867.521,639.975,880.29,626.674z"/>
	<g>
		<path fill="none" d="M529.001,132.669c4.603,0.119,9.126,0.265,13.57,0.436C538.127,132.935,533.603,132.789,529.001,132.669z"/>
		<path fill="none" d="M546.988,133.284c79.035,3.36,132.089,14.453,151.125,20.775
			C679.078,147.737,626.024,136.644,546.988,133.284z"/>
		<path fill="none" d="M514.96,132.394c3.172,0.042,6.31,0.098,9.412,0.165C521.27,132.492,518.132,132.437,514.96,132.394z"/>
		<path fill="#EDE3D1" d="M0,0v664.273v3.248v69.96h1000v-69.96v-3.248V0H0z M893.686,609.594c-0.556,0.872-1.123,1.735-1.701,2.591
			c-1.735,2.565-3.574,5.058-5.521,7.474s-4.004,4.756-6.173,7.016c-11.745,12.234-31.051,25.141-55.657,37.6
			c-0.474,0.239-0.933,0.479-1.409,0.719c-1.687,0.846-3.396,1.688-5.13,2.529h-0.002c-22.822,11.064-49.734,21.693-79.19,31.079
			c-73.786,23.513-156.363,37.207-232.521,38.564l-4.453,0.079l0.001,0.025c-0.63-0.006-1.26-0.012-1.89-0.018
			c0,0-1.349,0.012-1.984,0.018v-0.025l-4.438-0.079c-76.158-1.357-158.735-15.052-232.522-38.564
			c-29.455-9.386-56.369-20.015-79.191-31.079c-2.224-1.078-4.394-2.162-6.539-3.248c-24.606-12.459-43.912-25.365-55.657-37.6
			c-46.278-48.21-40.963-132.698-30.773-222.376c9.832-86.523,33.582-162.397,33.82-163.154l0.209-0.662v-48.693
			c0-47.973,36.447-146.235,56.349-162.517c0.294-0.241,0.81-0.56,1.898-0.56c0.452,0,1.004,0.052,1.671,0.193
			c0.222,0.046,0.458,0.103,0.706,0.171c0.125,0.034,0.252,0.07,0.383,0.11c0.524,0.158,1.103,0.363,1.74,0.626
			c7.97,3.285,25.167,15.57,60.397,57.485c0.705,0.838,1.417,1.688,2.136,2.551c25.783,30.912,48.34,62.254,48.564,62.567
			l1.934,2.688l3.142-1.043c20.446-6.792,80.137-19.085,169.111-21.392c3.068-0.08,6.171-0.147,9.309-0.202
			c6.274-0.11,12.687-0.171,19.233-0.176l0.922,0.002c4.91,0.004,9.745,0.039,14.502,0.102c3.172,0.042,6.31,0.098,9.412,0.165
			c1.552,0.034,3.095,0.071,4.629,0.11c4.602,0.119,9.126,0.265,13.57,0.436c1.481,0.057,2.954,0.116,4.417,0.178
			c79.036,3.36,132.09,14.453,151.125,20.775l3.145,1.048l1.936-2.692c0.21-0.292,20.023-27.828,43.74-56.739
			c1.58-1.927,3.179-3.861,4.79-5.793c46.043-55.21,62.239-61.17,67.064-61.17c0.269,0,0.502,0.019,0.706,0.051
			c0.61,0.097,0.953,0.313,1.191,0.509c18.036,14.757,49.663,96.841,55.435,147.808c0.597,5.272,0.917,10.211,0.917,14.709v48.694
			l0.209,0.661c0.238,0.756,23.986,76.631,33.818,163.154C920.141,484.17,925.35,559.922,893.686,609.594z"/>
		<path fill="#EDE3D1" d="M301.883,154.06c20.447-6.792,80.137-19.085,169.111-21.392
			C382.02,134.975,322.329,147.269,301.883,154.06z"/>
		<path fill="#EDE3D1" d="M182.881,28.905c0.222,0.046,0.458,0.103,0.706,0.171C183.339,29.008,183.104,28.951,182.881,28.905z"/>
		<path fill="#EDE3D1" d="M183.97,29.186c0.524,0.158,1.103,0.363,1.74,0.626C185.073,29.549,184.494,29.344,183.97,29.186z"/>
		<path fill="#EDE3D1" d="M470.994,132.668c3.068-0.08,6.171-0.147,9.309-0.202C477.165,132.521,474.062,132.588,470.994,132.668z"
			/>
		<path fill="#EDE3D1" d="M876.12,177.081c-5.771-50.967-37.398-133.051-55.435-147.808c-0.238-0.196-0.581-0.413-1.191-0.509
			c0.61,0.097,0.953,0.313,1.19,0.509C838.721,44.03,870.348,126.114,876.12,177.081z"/>
		<path fill="#EDE3D1" d="M893.686,609.594c31.664-49.672,26.455-125.424,17.379-205.295
			C920.14,484.17,925.35,559.922,893.686,609.594z"/>
		<path fill="#EDE3D1" d="M246.107,87.297c-35.23-41.915-52.427-54.2-60.397-57.485C193.681,33.097,210.877,45.382,246.107,87.297z"
			/>
		<path fill="#EDE3D1" d="M891.984,612.185c-1.735,2.565-3.574,5.058-5.521,7.474C888.41,617.242,890.249,614.75,891.984,612.185z"
			/>
		<path fill="#EDE3D1" d="M824.633,664.273L824.633,664.273c24.606-12.459,43.912-25.365,55.657-37.6
			C868.543,638.908,849.238,651.814,824.633,664.273z"/>
		<path fill="#EDE3D1" d="M703.193,152.415c0.211-0.292,20.024-27.828,43.74-56.739
			C723.217,124.587,703.403,152.123,703.193,152.415z"/>
		<path fill="#EDE3D1" d="M823.224,664.992c0.477-0.239,0.936-0.479,1.409-0.719l0,0C824.159,664.513,823.7,664.753,823.224,664.992
			z"/>
	</g>
</g>
<g>
	<rect x="117.716" y="667.521" fill="#EF9456" width="764.567" height="70.495"/>
	<g>
		<g>
			<path fill="#8188A1" d="M514.607,627.574c2.106,2.176,5.446,1.589,7.7,3.435c-0.173,0.712-0.688,1.032-1.354,1.188
				c-0.317,0.031-0.63,0.016-0.942-0.039c-0.897-0.223-1.814-0.377-2.711-0.627c-1.479-0.672-3.017-0.611-4.567-0.33
				c-1.042,0.069-2.08,0.057-3.112-0.106c-1.942-0.587-3.971-0.411-5.95-0.679c-0.938-0.227-1.811-0.563-2.317-1.47
				c0.903-1.149,2.77,0.173,3.516-1.37c0.232,0,0.464,0,0.697,0c1.854,0.585,3.709,0.585,5.562,0
				C512.288,627.574,513.448,627.574,514.607,627.574z"/>
			<path fill="#8289A2" d="M498.608,782c-0.033-0.965-1.063-0.787-1.491-1.3c0.129-0.6,0.488-1.013,1.021-1.286
				c1.422-0.564,2.918-0.371,4.392-0.426c1.228,0.007,2.46,0.049,3.652-0.348c0.706-0.154,1.412-0.188,2.118,0.013
				c0.748,0.274,1.156,0.796,1.15,1.611c-0.063,0.771-0.624,1.228-1.104,1.734C505.102,782,501.854,782,498.608,782z"/>
			<path fill="#6C7592" d="M423.623,714.494c-0.278-0.222-0.559-0.441-0.836-0.665c0-0.231,0-0.462,0-0.695
				c0.637-0.885,2.042-0.618,2.539-1.705c0.154-0.412,0.304-0.823,0.439-1.241c0.459-1.318,0.457-2.591-0.369-3.786
				c-0.112-0.298-0.142-0.604-0.106-0.919c0.315-0.903,0.775-1.746,1.063-2.663c0.356-0.596,0.689-1.253,1.562-0.703
				c1.202,1.835,0.745,3.864,0.703,5.849c-0.071,1.897,0.054,3.799-0.093,5.695c-0.067,0.6-0.256,1.146-0.636,1.625
				C426.206,716.444,424.92,715.439,423.623,714.494z"/>
			<path fill="#7D849E" d="M575.805,693.651c0.875,0.997,0.205,2.62,1.407,3.482c0,1.624,0,3.248,0,4.87
				c-1.473,1.062-0.561,2.955-1.469,4.215c-0.408,0.164-0.734,0.064-0.984-0.297c-0.604-1.052-0.521-2.218-0.565-3.365
				c-0.018-2.312-0.026-4.627,0.256-6.925C574.556,694.774,574.419,693.669,575.805,693.651z"/>
			<path fill="#9DA2B6" d="M425.513,705.491c0.021,0.229,0.054,0.455,0.096,0.68c0.204,0.296,0.236,0.607,0.077,0.937
				c-0.797,0.805-1.418,2.059-2.897,1.157c0-1.391,0-2.781,0-4.173c1.779-1.575-0.038-3.982,1.315-5.656
				c0.289,0.2,0.505,0.466,0.648,0.785c0.279,0.816,0.278,1.666,0.293,2.511C424.911,703.019,425.434,704.227,425.513,705.491z"/>
			<path fill="#858BA4" d="M422.787,708.265c0.921-0.471,1.841-0.941,2.762-1.415c0.823,1.05,1.244,2.181,0.721,3.505
				c-0.008,0.466-0.016,0.932-0.023,1.396c-0.812,0.677-1.689,0.795-2.637,0.312c-0.944-0.856-0.006-2.21-0.822-3.103
				C422.787,708.729,422.787,708.498,422.787,708.265z"/>
			<path fill="#A2A7BA" d="M508.348,782c0.021-0.578,0.133-1.109,0.702-1.413c2.312-1.662,4.966-0.891,7.49-1.045
				c0.519,0.232,0.856,0.611,0.959,1.18c-0.269,0.205-0.534,0.411-0.802,0.616c-1.302,0.807-2.892-0.23-4.177,0.662
				C511.128,782,509.739,782,508.348,782z"/>
			<path fill="#8E95AB" d="M423.383,711.711c0.954,0.014,1.909,0.026,2.863,0.04c-0.442,2.241-2.241,1.085-3.459,1.383
				c0-0.463,0-0.927,0-1.392C422.969,711.418,423.168,711.42,423.383,711.711z"/>
			<path fill="#CCCED8" d="M511.128,627.574c-1.854,1.236-3.709,1.038-5.562,0C507.419,627.574,509.274,627.574,511.128,627.574z"/>
			<path fill="#434E73" d="M457.574,641.605c3.057-1.818,6.188-3.47,9.68-4.315c1.664,0.883,2.721-1.17,4.266-0.877
				c0.677,0.324,0.994,0.876,1.016,1.614c-0.538,1.746-2.135,2.084-3.542,2.677c-0.934,0.235-1.874,0.447-2.815,0.645
				c-1.017,0.159-2.368-0.437-2.727,1.22c-0.261,0.409-0.636,0.643-1.107,0.729c-1.649-0.618-2.766,0.988-4.261,1.024
				C457.348,643.521,456.792,642.688,457.574,641.605z"/>
			<path fill="#7C839D" d="M426.166,686.58c-0.096-1.771,0.58-3.297,1.503-4.745c1.584-0.111,1.687,1.188,2.101,2.195
				c0.254,1.298,0.203,2.607,0.133,3.919c-0.172,1.31-0.511,2.565-1.246,3.689c-0.719,0.672-1.502,1.11-2.52,0.681
				C425.203,690.404,426.249,688.495,426.166,686.58z"/>
			<path fill="#29355F" d="M472.176,638.009c-0.228-0.463-0.457-0.925-0.685-1.386c-0.252-0.146-0.335-0.293-0.252-0.438
				s0.167-0.219,0.252-0.219c0.184-0.146,0.391-0.246,0.621-0.295c1.272,0.5,2.172-0.006,2.863-1.065
				c2.065-0.51,4.133-1.017,6.197-1.524c0.102,0.126,0.201,0.253,0.302,0.377C479.219,638.412,477.293,639.354,472.176,638.009z"/>
			<path fill="#5E6787" d="M501.354,628.944c0.709,0.241,1.416,0.483,2.125,0.726c0.214,0.97-0.523,1.131-1.164,1.378
				c-0.331,0.083-0.67,0.125-1.012,0.147c-1.172,0.017-2.343,0.049-3.473,0.44c-0.682,0.174-1.374,0.268-2.077,0.304
				c-0.364,0.033-0.726,0.041-1.089,0.041c-2.417-0.275-4.746,1.093-7.186,0.386c-0.365-0.146-0.652-0.384-0.866-0.712
				C491.328,629.666,496.379,629.51,501.354,628.944z"/>
			<path fill="#495377" d="M448.493,649.785c0.518-0.883,1.012-1.785,2.047-2.184c2.047,1.258-0.108,2.338-0.134,3.511
				c-0.027,0.146-0.065,0.291-0.097,0.437c-0.081,0.29-0.217,0.553-0.39,0.798c-0.364,0.464-0.643,0.983-0.926,1.502
				c-0.148,0.262-0.328,0.499-0.529,0.72c-1.006,1.106-2.177,2.053-3.101,3.239c-0.746,0.839-1.449,1.725-2.546,2.144
				c-0.515,0.099-0.984,0.016-1.384-0.346c0.576-2.965,3.003-4.696,4.659-6.935C446.834,651.671,447.918,650.938,448.493,649.785z"
				/>
			<path fill="#868DA5" d="M432.56,674.197c0.538-5.937,4.21-10.27,7.552-14.771c0.457,0.33,0.606,0.803,0.629,1.338
				c-0.023,0.688-0.272,1.307-0.582,1.904c-1.318,1.75-2.389,3.657-3.443,5.574c-0.726,0.775-1.164,1.711-1.457,2.724
				c-0.094,0.289-0.217,0.565-0.35,0.838C434.182,672.656,434.251,674.297,432.56,674.197z"/>
			<path fill="#757D98" d="M440.276,661.129c-0.057-0.566-0.111-1.134-0.166-1.7c2.45-3.515,5.007-6.936,8.382-9.644
				c-1.593,3.767-5.141,6.155-6.908,9.8C441.859,660.703,441.236,661.059,440.276,661.129z"/>
			<path fill="#434E73" d="M449.906,651.224c-1.143-1.444,1.975-2.142,0.634-3.62c0.177-0.215,0.354-0.429,0.53-0.645
				c0.994-0.442,2.715-0.128,2.215-2.126l-0.021,0.023c0.677-0.27,1.354-0.528,2.082-0.173c1,0.979,0.459,1.965,0.025,2.952
				c-0.853,1.304-1.993,2.342-3.139,3.377C451.496,651.495,450.752,651.956,449.906,651.224z"/>
			<path fill="#787F9A" d="M424.337,699.189c-0.078-0.251-0.157-0.504-0.235-0.756c0.241-0.965-0.159-2.063,0.62-2.914
				c1.059-0.105,0.973-1.159,1.425-1.759c0.804-1.065,1.578-1.266,2.486-0.161c0.214,0.459,0.243,0.938,0.143,1.43
				C427.579,696.716,427.918,700.049,424.337,699.189z"/>
			<path fill="#888EA6" d="M428.1,681.017c0.564-1.683,1.512-3.097,2.922-4.188c0.771,0.209,1.133,0.765,1.274,1.51
				c0.033,0.364,0.001,0.722-0.085,1.075c-0.286,0.887-0.539,1.797-1.501,2.23C429.717,681.943,428.814,681.867,428.1,681.017z"/>
			<path fill="#737B97" d="M428.377,693.655c-1.468-0.764-1.684,0.462-2.008,1.338c-0.356,0.964-0.596,1.896-1.646,0.528
				c0.031-0.863,0.062-1.725,0.095-2.586c0.421-0.356,0.829-0.742,1.449-0.671c0.7-0.229,1.4-0.462,2.102-0.691
				C428.952,692.265,428.952,692.957,428.377,693.655z"/>
			<path fill="#495377" d="M455.48,644.964c-0.738-0.034-1.478-0.07-2.216-0.104c1.317-1.243,2.453-2.725,4.31-3.253
				c0.229,0.888,0.458,1.773,0.688,2.659C457.45,644.957,456.452,644.908,455.48,644.964z"/>
			<path fill="#949AAF" d="M426.266,692.266c-0.325,0.565-0.854,0.688-1.449,0.672c0.258-2.158,0.525-4.316,1.351-6.356
				C427.002,688.461,425.847,690.377,426.266,692.266z"/>
			<path fill="#29355F" d="M481.173,633.08c0.735-0.738,1.693-0.706,2.626-0.76c1.064-0.344,2.152-0.213,3.234-0.154
				c1.072,0.889,0.204,1.481-0.453,1.714c-1.789,0.642-3.668,1.298-5.234-0.546L481.173,633.08z"/>
			<path fill="#79809B" d="M428.1,681.017c1,0.035,2.001,0.072,3.001,0.108c0.843,2.007-0.199,2.712-1.999,2.896
				c-0.478-0.729-0.955-1.457-1.433-2.187C427.812,681.562,427.956,681.289,428.1,681.017z"/>
			<path fill="#4D577A" d="M471.491,635.966c0.013,0.219,0.013,0.438,0,0.657c-1.394,0.344-2.491,2.553-4.237,0.667
				C468.541,636.45,469.906,635.855,471.491,635.966z"/>
			<path fill="#343F67" d="M432.56,674.197c0.685-0.936,1.367-1.866,2.052-2.803c0.598,0.532,0.622,1.219,0.517,1.938
				c-0.212,0.866-0.464,1.715-1.096,2.392c-0.511,0.282-1.025,0.29-1.545,0.025c-0.271-0.317-0.278-0.642-0.025-0.973
				C432.464,674.579,432.496,674.386,432.56,674.197z"/>
			<path fill="#4D577A" d="M474.976,634.604c-0.454,1.701-1.11,2.854-2.863,1.066C473.067,635.314,474.021,634.96,474.976,634.604z"
				/>
			<path fill="#5E6787" d="M432.461,674.778c0.053,0.265,0.107,0.528,0.16,0.794c0.626,0.859,0.73,1.753,0.161,2.684
				c-0.312,0.324-0.643,0.345-0.991,0.062c-0.257-0.497-0.513-0.993-0.771-1.489C431.5,676.146,431.98,675.461,432.461,674.778z"/>
			<path fill="#495377" d="M453.285,644.833c0.959,2.476-0.592,2.338-2.214,2.126C451.809,646.25,452.547,645.542,453.285,644.833z"
				/>
			<path fill="#525C7E" d="M487.469,632.422c-1.223-0.033-2.445-0.066-3.669-0.102c0.773-0.918,1.816-0.698,2.814-0.666
				c0.34,0.079,0.679,0.158,1.02,0.238l0.078,0.313L487.469,632.422z"/>
			<path fill="#3B466D" d="M459.609,771.036c-1.938-0.44-3.463-1.562-4.847-2.921c-2.213-2.287-4.586-4.417-6.717-6.785
				c-1.142-1.271-2.434-2.438-2.538-4.316c0.171-0.486,0.494-0.841,0.952-1.071c3.544-0.2,4.954,3.233,7.648,4.479
				c0.714,0.539,1.469,1.024,2.204,1.533c0.482,0.327,0.988,0.615,1.514,0.874c0.546,0.256,1.093,0.513,1.633,0.785
				c3.206,2.328,7.415,3.036,10.077,6.235c0.126,1.323,1.398,2.454,0.669,3.927c-0.393,0.284-0.83,0.354-1.301,0.269
				c-0.795-0.913-1.652-0.239-2.494-0.094c-0.475-0.123-0.796-0.432-1.051-0.827c-0.875-0.793,0.121-2.678-1.71-2.914
				c-0.939-1.657-1.621-0.557-2.332,0.219C460.823,770.844,460.212,770.932,459.609,771.036z"/>
			<path fill="#434E73" d="M427.604,715.251c0.027-0.469,0.056-0.94,0.082-1.408c0.277-0.228,0.578-0.275,0.907-0.127
				c1.224,0.854,1.188,2.314,1.709,3.508c0.126,0.305,0.227,0.616,0.319,0.932c0.838,1.979,0.412,4.172,1.045,6.185
				c0.218,0.427,0.426,0.855,0.621,1.291c0.429,1.209,0.9,2.398,1.492,3.54c0.146,0.305,0.259,0.619,0.356,0.94
				c0.755,2.814,1.24,5.693,2.034,8.5c0.144,1.188,0.789,2.366,0.096,3.575c-3.418-0.227-3.188-3.384-4.354-5.423
				c-0.502-1.373-1.005-2.745-1.508-4.119c-0.603-3.194-2.954-5.848-2.886-9.256c-0.056-1.267,0.053-2.56-0.614-3.729
				C426.498,718.088,426.598,716.597,427.604,715.251z"/>
			<path fill="#838AA3" d="M428.292,723.663c0.229,1.908,0.274,3.812,1.659,5.446c0.786,0.928,1.201,2.241,0.453,3.534
				c-3.485-5.592-5.746-11.644-6.78-18.149c1.327,0.252,2.655,0.505,3.981,0.755c-0.018,1.394-0.034,2.785-0.051,4.177
				C428.604,720.698,427.473,722.35,428.292,723.663z"/>
			<path fill="#8B92A9" d="M445.677,756.98c2.136,3.069,4.407,5.982,7.474,8.25c0.775,0.572,1.724,1.564,1.611,2.885
				c-4.97-2.141-7.693-6.652-11.064-10.48c0.174-0.629,0.615-0.937,1.236-1.028C445.229,756.635,445.479,756.761,445.677,756.98z"/>
			<path fill="#7D849E" d="M431.912,736.764c1.371,1.853,2.741,3.704,4.112,5.557c1.456,0.686,2.098,1.931,2.357,3.438
				c-0.118,0.662-0.401,1.229-0.972,1.621c-1.201,0.181-1.381-1.174-2.25-1.497C433.322,743.111,431.673,740.274,431.912,736.764z"
				/>
			<path fill="#79819B" d="M437.392,747.22c0.183-0.464,0.363-0.929,0.546-1.394c3.231,1.242,3.993,4.351,5.321,7.034
				c-0.009,0.375-0.161,0.675-0.452,0.907c-1.24,0.629-1.99-0.146-2.728-0.955c-0.207-0.223-0.414-0.444-0.622-0.668
				C439.309,750.278,436.949,749.336,437.392,747.22z"/>
			<path fill="#3F4A70" d="M482.493,778.669c-3.06-0.413-6.089-0.934-8.938-2.199c-0.368-0.621-1.798-0.188-1.482-1.489
				c0.806-0.695,1.674-0.521,2.461-0.04c0.958,0.581,1.401-0.027,1.891-0.656c0.297-0.13,0.599-0.149,0.908-0.05
				c1.453,1.694,4.16,1.512,5.368,3.576C482.802,778.138,482.73,778.424,482.493,778.669z"/>
			<path fill="#838AA3" d="M440.08,752.812c0.961,0.223,1.923,0.443,2.884,0.665c1.55,0.633,2.907,1.384,2.142,3.451
				c-0.47,0.235-0.938,0.47-1.407,0.705C442.122,756.304,440.851,754.748,440.08,752.812z"/>
			<path fill="#596283" d="M497.901,779.884c-0.262,0.272-0.522,0.544-0.784,0.816c-3.782-0.002-7.529-0.284-11.176-1.386
				c0.209-0.322,0.492-0.555,0.85-0.699c1.262-0.402,2.531-0.306,3.805-0.067c1.758,0.634,3.577,0.193,5.366,0.295
				C496.758,778.889,497.879,778.377,497.901,779.884z"/>
			<path fill="#3B466D" d="M463.827,770.174c2.463-0.373,1.419,1.85,2.08,2.812c-0.714,0.495-1.434,0.396-2.154,0.014
				c-0.434-0.273-0.867-0.549-1.3-0.823c-0.396-0.389-0.604-0.859-0.62-1.415C462.145,769.36,462.671,768.691,463.827,770.174z"/>
			<path fill="#7F86A0" d="M437.392,747.22c0.862,1.57,2.958,2.62,2.067,4.927c-1.901-1.767-3.006-4.079-4.299-6.264
				C436.311,745.649,436.662,746.748,437.392,747.22z"/>
			<path fill="#566080" d="M472.146,775.06c0.471,0.472,0.94,0.94,1.41,1.41c-2.22-0.354-4.354-0.967-6.326-2.076
				c0.332-0.555,0.675-1.094,1.467-0.742c0.464,0,0.928,0,1.392,0C470.593,774.384,471.479,774.564,472.146,775.06z"/>
			<path fill="#565F81" d="M462.434,770.878c0.007,0.432,0.014,0.865,0.02,1.297c-1.229,0.319-2.096-0.259-2.844-1.139
				c0.233-0.694,0.805-0.824,1.435-0.854C461.846,769.738,462.048,770.492,462.434,770.878z"/>
			<path fill="#3F4A70" d="M486.776,779.026c-0.278,0.096-0.558,0.191-0.835,0.289c-1.201,0.057-2.384,0.016-3.448-0.646
				l0.146-0.203C484.811,776.496,485.829,776.634,486.776,779.026z"/>
			<path fill="#3B466D" d="M468.697,773.65c-0.49,0.248-0.979,0.494-1.467,0.742c-0.221,0.027-0.418-0.028-0.594-0.166
				c-0.252-0.119-0.339-0.245-0.26-0.377c0.08-0.134,0.16-0.199,0.244-0.199c0.875-0.327-0.475-1.769,0.762-1.729
				C468.213,771.949,468.305,773.021,468.697,773.65z"/>
			<path fill="#5B6585" d="M466.62,773.65c0.017,0.191,0.021,0.385,0.017,0.576c-1.102-0.078-2.087-0.432-2.883-1.229
				c0.718-0.005,1.437-0.01,2.154-0.014C466.145,773.207,466.382,773.428,466.62,773.65z"/>
			<path fill="#777F9A" d="M517.499,780.722c-0.271-0.264-0.542-0.527-0.813-0.792c-0.303-0.846-0.827-1.614-0.854-2.555
				c0.225-0.474,0.618-0.749,1.083-0.946c3.171-1.136,6.602-1.288,9.721-2.61c0.637-0.264,1.271-0.544,1.973-0.241
				c0.562,0.801,0.306,1.617,0.051,2.435c-0.288,1.239-1.407,1.749-2.222,2.525c-0.469,0.201-0.935,0.4-1.401,0.602
				c-1.417-0.995-2.426-0.036-3.479,0.726C520.205,780.148,518.852,780.435,517.499,780.722z"/>
			<path fill="#333F67" d="M575.161,706.119c0.195,0.029,0.389,0.062,0.582,0.101c0.636,9.036-0.76,17.705-4.687,25.916
				c-0.487-0.306-0.688-0.78-0.778-1.32c0.061-2.222,0.88-4.321,1.067-6.525c2.245-4.177,2.107-8.813,2.534-13.335
				C574.04,709.26,573.816,707.488,575.161,706.119z"/>
			<path fill="#7C839D" d="M527.828,775.745c0.234-0.632,0.469-1.264,0.702-1.896c0.884-1.41,2.374-1.61,3.812-1.918
				c1.583,0.682,2.589-0.293,3.596-1.266c0.299-0.149,0.609-0.225,0.94-0.237c0.712,0.066,1.244,0.42,1.634,1.008
				c0.214,0.513,0.114,0.965-0.257,1.364c-1.12,0.777-2.239,1.552-3.356,2.326c-0.781,0.341-1.587,0.636-2.234,1.22
				c-0.707,0.248-1.414,0.495-2.122,0.743C529.193,777.538,528.615,776.434,527.828,775.745z"/>
			<path fill="#2C3862" d="M570.93,730.515c0.044,0.542,0.086,1.083,0.128,1.621c-1.675,5.287-4.351,10.033-7.754,14.39
				c-0.283,0.228-0.571,0.224-0.868,0.024c-0.325-4.503,2.293-7.599,5.07-10.62c0.901-0.945,0.927-2.221,1.253-3.383
				C569.403,731.788,569.428,730.358,570.93,730.515z"/>
			<path fill="#2A3660" d="M553.564,758.354c-1.93,2.047-3.858,4.097-5.787,6.145c-0.991,0.936-2.263,1.543-3.096,2.666
				c-0.536,0.427-1.12,0.681-1.822,0.529c-0.736-0.326-0.899-0.921-0.774-1.649c2.249-3.06,5.749-4.679,8.428-7.268
				c1.065-1.031,1.292-3.531,3.759-2.638C554.791,757.118,554.117,757.716,553.564,758.354z"/>
			<path fill="#888EA6" d="M561.888,749.291c-1.105,2.45-3.069,4.223-4.854,6.137c-0.599-0.533-0.683-1.217-0.582-1.957
				c0.805-1.999,1.723-3.906,3.979-4.672C560.988,748.748,561.481,748.892,561.888,749.291z"/>
			<path fill="#7D849E" d="M543.108,767.379c0.436-0.243,0.87-0.486,1.307-0.729c0.524-0.34,1.039-0.401,1.533,0.06
				c-1.612,1.442-3.228,2.883-4.84,4.327c-0.46-0.149-0.8-0.436-0.989-0.885c-0.1-0.668,0.207-1.186,0.62-1.663
				C541.317,767.668,542.35,767.816,543.108,767.379z"/>
			<path fill="#838AA3" d="M557.048,753.506c-0.006,0.641-0.011,1.281-0.016,1.922c-1.058,1.094-1.607,2.785-3.468,2.925
				c0.237-0.694,0.479-1.391,0.717-2.084C554.173,754.316,555.112,753.412,557.048,753.506z"/>
			<path fill="#878EA6" d="M527.828,775.745c1.188-0.122,1.788,0.942,2.713,1.346c-1.199,0.962-2.512,1.606-4.104,1.445
				C526.899,777.606,527.364,776.676,527.828,775.745z"/>
			<path fill="#7D859E" d="M540.306,770.151c0.268,0.294,0.535,0.588,0.804,0.884c-0.951,0.589-1.902,1.179-2.854,1.769
				c-0.013-0.439-0.024-0.882-0.039-1.318C537.834,769.345,538.968,769.588,540.306,770.151z"/>
			<path fill="#858CA4" d="M521.558,779.862c0.863-1.656,1.649-3.702,3.479-0.726C523.891,779.444,522.81,780.065,521.558,779.862z"
				/>
			<path fill="#777F9A" d="M545.948,766.709c-0.509-0.021-1.021-0.039-1.533-0.06c0.783-1.246,1.791-2.142,3.362-2.152
				C547.469,765.484,546.722,766.106,545.948,766.709z"/>
			<path fill="#3C476E" d="M561.888,749.291c-0.469-0.027-0.938-0.056-1.406-0.084c-0.628-1.936,0.82-2.258,2.106-2.702
				c0.239,0.005,0.479,0.013,0.716,0.021C563.367,747.722,562.406,748.391,561.888,749.291z"/>
			<path fill="#9EA4B7" d="M532.663,776.348c0.167-1.464,1.236-1.274,2.233-1.22C534.378,775.95,533.685,776.449,532.663,776.348z"
				/>
			<path fill="#3C476E" d="M529.87,634.548c3.564,1.002,6.533,2.971,9.078,5.62c0.703,0.871,1.893,0.755,2.732,1.348l0.02,0.021
				c0.26,1.266,1.489,1.466,2.319,2.105c0.066,0.746-0.303,1.229-0.935,1.553c-2.249-0.047-3.854-1.585-5.739-2.475
				c-1.176-1.046-2.516-1.758-4.092-1.983c-1.203-0.336-2.381-0.742-3.477-1.356c-0.672-0.384-1.42-0.523-2.178-0.633
				c-0.472-0.08-0.908-0.24-1.305-0.513c-1.676-0.885-2.749-3.456-5.3-1.88c-0.32-0.024-0.615-0.136-0.884-0.317
				c-0.729-1.472,1.873-2.242,0.803-3.79c2.041-0.932,3.695,0.98,5.639,0.767l-0.013-0.022
				C526.769,635.4,528.9,633.731,529.87,634.548z"/>
			<path fill="#7A829C" d="M569.461,669.332c0.856,1.548,1.994,2.968,2.201,4.812c-0.189,2.143,1.869,3.966,0.885,6.222
				c-1.273,0.587-1.727-0.493-2.045-1.233c-1.558-3.637-3.987-6.729-6.083-10.031c-0.121-0.31-0.188-0.635-0.211-0.967
				c0.009-0.676,0.289-1.258,0.643-1.812c0.347-0.524,0.687-1.062,1.291-1.334c0.473,0.462,0.941,0.923,1.411,1.387
				C568.136,667.394,568.182,668.761,569.461,669.332z"/>
			<path fill="#888FA6" d="M552.984,650.289c2.432,1.257,4.374,3.099,6.121,5.169c0.372,1.164,0.721,2.347,2.108,2.723l0,0
				c0.251,1.005,0.125,1.94-0.505,2.786c-0.679,0.408-1.251,0.091-1.817-0.264c-2.01-1.756-3.396-4.042-5.117-6.045
				c-0.468-0.771-1.062-1.446-1.598-2.171c-0.159-0.266-0.253-0.552-0.277-0.859C552.003,650.975,552.328,650.497,552.984,650.289z"
				/>
			<path fill="#39446B" d="M575.805,693.651c-1.141,2.952-0.264,6.079-0.778,9.086c-0.402,0.159-0.726,0.06-0.968-0.3
				c-1.072-2.462-0.177-5.181-1.011-7.673c-0.106-0.523-0.158-1.056-0.181-1.59c0.298-3.073-0.84-5.967-1.165-8.964
				c0.064-0.342,0.203-0.651,0.396-0.939c0.273-0.219,0.59-0.305,0.938-0.262c1.575,1.048,1.235,2.994,2.053,4.396
				C575.443,689.476,574.968,691.64,575.805,693.651z"/>
			<path fill="#838BA3" d="M552.984,650.289c-0.26,0.52-0.521,1.04-0.778,1.561c-0.301,0.419-0.724,0.506-1.203,0.448
				c-0.292-0.092-0.556-0.24-0.789-0.438c-0.532-0.531-0.906-1.189-1.42-1.738c-0.836-0.867-1.926-1.528-2.289-2.786
				c-0.218-0.75-0.562-1.506,0.055-2.234C548.921,646.557,551.102,648.236,552.984,650.289z"/>
			<path fill="#838AA3" d="M572.957,683.271c-0.207,0-0.413-0.013-0.621-0.035c-0.773-0.827-0.77-1.69-0.126-2.585
				c0.447-2.222-1.591-4.234-0.548-6.507c1.695,2.791,2.584,5.827,2.762,9.079C573.948,683.636,573.458,683.624,572.957,683.271z"/>
			<path fill="#8B92A9" d="M560.511,660.987c-0.096-1.02,0.223-1.936,0.704-2.808c0.719,0.864,1.438,1.731,2.155,2.6
				c0.239,1.012,1.207,1.584,1.537,2.542c-0.413,1.062-1.255,1.036-2.16,0.859C561.495,663.472,560.27,662.74,560.511,660.987z"/>
			<path fill="#596283" d="M546.56,645.1c0.21,0.687,0.419,1.371,0.63,2.057c-2.146,0.728-3.571,0.139-4.049-2.2
				c0.2-0.447,0.403-0.896,0.604-1.343c-0.216-0.144-0.28-0.271-0.192-0.383c0.082-0.103,0.165-0.154,0.247-0.154
				C544.72,643.75,545.641,644.425,546.56,645.1z"/>
			<path fill="#717995" d="M562.727,663.704c0.736,0.012,1.509,0.13,2.007-0.626c0.19-0.307,0.386-0.311,0.583-0.005
				c0.274,0.638,0.552,1.276,0.825,1.915c-0.07,0.645-0.19,1.262-0.867,1.571C562.896,666.974,562.524,665.595,562.727,663.704z"/>
			<path fill="#4B5578" d="M529.87,634.548c-1.143-0.207-1.568,1.81-3.033,0.877c-1.24-0.79-0.222-1.629-0.295-2.433
				C527.854,633.084,528.993,633.532,529.87,634.548z"/>
			<path fill="#4B5578" d="M526.555,633.015c-2.002,0.864-3.747-0.835-5.688-0.57c-0.169-0.146-0.229-0.293-0.174-0.442
				c0.052-0.152,0.106-0.226,0.164-0.226c0.482-0.257,0.968-0.513,1.45-0.768C523.704,631.718,525.373,631.851,526.555,633.015z"/>
			<path fill="#767D99" d="M572.957,683.271c0.489-0.015,0.979-0.03,1.467-0.048c0.121,1.409,1.138,2.68,0.664,4.184
				C573.661,686.399,573.877,684.544,572.957,683.271z"/>
			<path fill="#8B92A9" d="M561.215,658.181c-2.268,0.307-3.009-0.572-2.108-2.723C559.808,656.366,560.511,657.271,561.215,658.181
				z"/>
			<path fill="#8C92A9" d="M569.461,669.332c-3.171,0.648-1.142-2.055-1.908-2.957C568.469,667.18,569.023,668.218,569.461,669.332z
				"/>
			<path fill="#485377" d="M543.8,643.075c-0.019,0.18-0.036,0.357-0.055,0.537c-1.174-0.204-2.94,0.169-2.045-2.075
				C542.4,642.05,543.101,642.562,543.8,643.075z"/>
			<path fill="#485377" d="M541.682,641.516c-1.052-0.164-2.475,0.425-2.732-1.348C540.2,639.926,541.038,640.521,541.682,641.516z"
				/>
			<path fill="#8C93A9" d="M565.315,663.073c-0.194,0.002-0.39,0.004-0.583,0.005c-1.001-0.442-1.49-1.188-1.362-2.299
				C564.188,661.399,565.019,662.01,565.315,663.073z"/>
			<path fill="#3B476D" d="M509.781,630.48c1.139-0.027,2.274-0.055,3.415-0.082c1.35,0.638,2.889-0.103,4.233,0.573
				c0.932,0.268,2.021-0.093,2.812,0.722c-0.07,1.389-0.196,2.756-1.361,3.744c-1.201,0.563-2.305,0.021-3.431-0.299
				c-1.194-0.445-2.396-0.876-3.646-1.164c-0.466-0.117-0.903-0.301-1.296-0.582c-0.614-0.559-0.857-1.298-1.023-2.078
				C509.452,630.989,509.547,630.709,509.781,630.48z"/>
			<path fill="#525C7E" d="M509.781,630.48c-0.025,0.187-0.042,0.375-0.05,0.564c-0.021,0.608-0.14,1.178-0.624,1.606
				c-0.415,0.232-0.856,0.279-1.317,0.189c-0.296-0.091-0.575-0.218-0.842-0.367c-1.16-0.732-2.463-0.098-3.676-0.387
				c-0.933-0.222-1.896-0.337-1.249-1.688c0.582-0.053,1.131-0.166,1.453-0.73C505.6,629.785,507.822,629.098,509.781,630.48z"/>
			<path fill="#354068" d="M518.78,635.246c0.31-1.257,0.438-2.587,1.462-3.553c0.209-0.008,0.414,0.02,0.615,0.08
				c0.002,0.225,0.005,0.446,0.01,0.67c2.098,1.619-0.434,2.314-0.688,3.465C519.424,636.295,518.787,636.435,518.78,635.246z"/>
			<path fill="#5E6787" d="M517.431,630.973c-1.427-0.093-2.961,0.631-4.233-0.573C514.688,630.013,516.146,629.837,517.431,630.973
				z"/>
			<path fill="#78809B" d="M515.918,777.79c1.146,0.394,1.352,1.125,0.768,2.137c-2.486,0.892-5.096,0.389-7.636,0.661
				c-0.025-0.573-0.162-1.088-0.723-1.381c-0.217-0.36-0.17-0.681,0.141-0.965c1.129-0.696,2.454-0.726,3.682-1.095
				C513.474,776.951,514.809,776.721,515.918,777.79z"/>
			<path fill="#485377" d="M508.373,778.547c-0.008,0.22-0.023,0.441-0.046,0.66c-0.669,0.021-1.337,0.046-2.005,0.069
				c-1.096,0.69-2.464-0.18-3.541,0.62c-1.626-0.005-3.254-0.009-4.88-0.014c-2.262-0.889-4.76,0.796-6.97-0.644
				c0.307-0.612,0.862-0.936,1.434-1.242c0.756-0.359,1.531-0.609,2.385-0.446c2.508,0.438,5.021-0.057,7.533,0.038
				c0.55-0.014,1.098-0.018,1.649-0.021C505.475,777.625,507.104,777.273,508.373,778.547z"/>
			<path fill="#596283" d="M502.781,779.896c1.021-1.117,2.337-0.553,3.541-0.621C505.281,780.275,503.977,779.778,502.781,779.896z
				"/>
			<path fill="#212E5A" d="M429.733,717.324c-1.078-0.921-0.515-2.491-1.384-3.495c-0.893-2.021,0.224-4.258-0.67-6.28
				c0.006-1.85,0.013-3.7,0.02-5.552c-1.41-1.605-0.453-3.12,0.177-4.644c0.193-0.297,0.463-0.509,0.795-0.632
				c2.279,0.98,3.875,2.364,3.068,5.173c2.91,1.115,2.017,3.871,1.555,5.47c-0.5,1.732-0.731,3.006,0.062,4.598
				c0.599,1.201,0.202,2.451-0.416,3.596c-0.132,0.288-0.339,0.509-0.616,0.661C430.785,714.991,430.73,717.267,429.733,717.324z"/>
			<path fill="#757D98" d="M428.383,697.145c-0.229,1.617-0.457,3.235-0.685,4.854c-0.59,0.289-0.728,0.82-0.754,1.411
				c-1.614,0.935-2.057-0.329-2.606-1.389c-0.001-0.943-0.002-1.888-0.002-2.829c2.652-0.109,2.502-2.902,3.971-4.146
				C428.968,695.723,428.895,696.425,428.383,697.145z"/>
			<path fill="#7E859E" d="M424.338,702.02c0.847,0.503,1.458,1.448,2.606,1.39c0.009,1.026-0.476,1.718-1.433,2.083
				C423.933,704.736,424.167,703.367,424.338,702.02z"/>
			<path fill="#757D98" d="M426.271,710.354c-0.241-1.168-0.48-2.336-0.722-3.502c0.018-0.229,0.036-0.455,0.059-0.681
				C427.975,707.226,427.031,708.804,426.271,710.354z"/>
			<path fill="#4E587B" d="M427.68,707.549c1.312,1.978,0.398,4.192,0.67,6.28c-0.222,0-0.441,0.004-0.664,0.014
				C427.684,711.745,427.682,709.646,427.68,707.549z"/>
			<path fill="#1F2C58" d="M574.428,702.704c0.2,0.005,0.399,0.017,0.599,0.031c0.046,1.129,0.091,2.257,0.136,3.384
				c-0.688,5.425-0.609,10.929-1.896,16.309c-0.288,1.2-0.938,1.354-1.604,1.844c-0.226,0.24-0.501,0.369-0.831,0.384
				c-0.319-0.061-0.591-0.203-0.811-0.444c-0.219-0.441-0.241-0.91-0.188-1.387c-0.269-4.346,0.465-8.54,1.925-12.623
				c0.836-0.961,1.202-2.055,0.925-3.328c0.034-1.275,0.669-2.356,1.12-3.497C573.956,703.1,574.164,702.876,574.428,702.704z"/>
			<path fill="#1E2A57" d="M451.979,650.494c0.707-1.147,1.625-2.082,2.8-2.757c2.325-1.98,4.71-3.868,7.673-4.836
				c0.236-0.229,0.472-0.456,0.708-0.687c0.612-0.954,1.552-1.12,2.581-1.067c1.729-0.544,3.354-0.849,3.581,1.718
				c0.097,1.104,0.851,1.466,1.778,1.664c1.047,0.45,1.651,1.164,1.428,2.375c-0.195,0.495-0.543,0.84-1.025,1.056
				c-3.562-0.227-5.951,1.713-7.97,4.338c-0.725,0.75-1.511,1.396-2.562,1.632c-1.913,0.218-3.333-0.533-4.296-2.179
				c-0.349-0.573-1.037-1.384-1.446-0.729c-0.526,0.84,0.184,1.793,1.057,2.371c1.84,1.331,0.453,2.623-0.097,3.872
				c-0.75,1.707-1.777,0.682-3,0.453c-4.378-0.812-4.403-0.671-3.927-4.455c0.062-0.521,0.306-0.954,0.664-1.325l0.007-0.007
				C450.574,651.394,451.908,651.846,451.979,650.494z"/>
			<path fill="#1E2B57" d="M481.346,633.334c2.149,0.425,4.32,0.988,6.123-0.912l-0.012,0.004c1.221-0.586,2.285,0.056,3.385,0.424
				c0.962,3.017-2.806,2.55-3.483,4.627c-0.308,0.943-1.017,2.211-0.522,2.726c2.295,2.389-0.518,2.78-1.426,3.366
				c-1.391,0.895-2.989,0.525-3.546-1.336c-0.264-0.885-0.813-1.662-0.896-2.487c-0.091,1.021-0.166,2.169-1.5,2.623
				c-0.577-0.043-1.235-0.194-1.584-0.536c-1.02-1.005-1.521-0.569-1.947,0.484c-0.615,0.568-1.354,0.854-2.173,0.953
				c-2.513,0.263-4.906,0.324-5.065-3.174c1.16-0.694,2.318-1.392,3.479-2.087c1.153-0.999,2.38-0.091,3.568-0.116
				C478.831,637.824,479.183,634.481,481.346,633.334z"/>
			<path fill="#344068" d="M462.451,642.901c-2.353,1.938-4.636,3.983-7.673,4.836c0.233-0.925,0.468-1.85,0.702-2.773
				c0.566-1.666,1.798-0.688,2.78-0.698C459.135,642.208,460.479,641.588,462.451,642.901z"/>
			<path fill="#1F2C58" d="M468.697,640.096c0.806,2.358,2.803,2.633,4.87,2.783c0.198,2.173,0.098,2.249-2.784,2.085
				c-1.543,0.517-2.863,0.716-2.314-1.666c0.626-2.721-1.188-1.974-2.584-1.824c-0.209-0.156-0.277-0.311-0.205-0.464
				c0.073-0.15,0.145-0.228,0.217-0.228C466.771,640.312,467.68,639.982,468.697,640.096z"/>
			<path fill="#3C476D" d="M465.896,640.782c0.009,0.229,0.006,0.461-0.011,0.69c-0.909,0.248-1.817,0.495-2.727,0.742
				C462.354,638.457,464.91,641.118,465.896,640.782z"/>
			<path fill="#303C65" d="M428.383,697.145c-0.024-0.7-0.05-1.398-0.075-2.099c0.023-0.463,0.046-0.928,0.068-1.391
				c-0.002-0.694-0.006-1.39-0.009-2.082c0.222-1.16,0.442-2.321,0.665-3.481c0.609-0.362,0.171-1.968,1.604-1.354
				c0.217,0.277,0.361,0.586,0.453,0.924c0.173,3.343-0.507,6.502-2.053,9.473C428.819,697.134,428.601,697.137,428.383,697.145z"/>
			<path fill="#414C72" d="M430.439,686.701c-0.47,0.463-0.938,0.927-1.407,1.391c0.021-1.356,0.046-2.715,0.068-4.072
				c1.077-0.681,1.977-1.484,1.999-2.895c0.174-0.72-0.095-1.577,0.66-2.115c1.917,0.339,0.658,1.78,0.943,2.689
				c-0.038,0.656-0.125,1.308-0.296,1.943c-0.236,0.767-0.483,1.528-0.837,2.251C431.31,686.325,430.947,686.615,430.439,686.701z"
				/>
			<path fill="#1E2B57" d="M495.15,631.166c0.228-0.03,0.455-0.034,0.684-0.01c0.885,0.479,1.684,0.938,2.812,0.396
				c1.212-0.584,2.408-0.062,3.466,0.688c1.458,2.856-0.085,4.945-2.036,6.623c-1.621,1.392-3.162,1.031-3.812-1.324
				c-1.243,0.691-0.18,3.168-2.228,3.222c-0.799,0.021-0.718-0.976-0.854-1.787c-0.312,1.497,0.064,2.897-0.787,4.07
				c-0.655,0.361-1.271,0.18-1.88-0.13c-2.771-1.479-3.312-3.653-1.458-6.137c1.021-1.362,2.004-2.77,3.341-3.861
				C493.189,632.138,494.287,631.839,495.15,631.166z"/>
			<path fill="#29355F" d="M502.086,632.45c-1.369,0.169-2.673-0.855-4.194,0.4c-1.062,0.878-1.468-0.947-2.059-1.695
				c0.694-0.038,1.388-0.079,2.082-0.119c1.078-0.767,2.453,0.119,3.534-0.636c0.19,0.003,0.384,0.002,0.574-0.002
				c0.659,1.796,2.529,1.197,3.209,0.838c1.746-0.927,1.784,0.508,2.406,1.215c-1.475,1.112-3.095,1.222-4.809,0.69
				C502.552,632.945,502.304,632.714,502.086,632.45z"/>
			<path fill="#29355F" d="M495.15,631.166c-0.115,1.286-1.248,1.485-2.107,1.976c-0.695,0.483-1.391,0.617-2.086-0.003
				c-1.166-0.235-2.332-0.475-3.5-0.713c0.02-0.191,0.076-0.369,0.174-0.533C490.161,631.884,492.578,630.733,495.15,631.166z"/>
			<path fill="#525C7E" d="M501.449,630.4c-1.021,1.094-2.335,0.546-3.535,0.636C498.929,629.923,500.251,630.507,501.449,630.4z"/>
			<path fill="#1C2956" d="M449.916,653.316c-0.328,3.365-0.333,3.34,3.414,2.688c1.378-0.241,0.246,1.761,1.458,1.752
				c1.449-2.737,1.449-2.737,0.692-3.75c-0.584-1.45-0.358-2.499,1.391-2.782c1.131,1.217,2.333,2.29,4.174,2.088
				c-1.18,2.953-2.982,5.373-5.906,6.812c-0.191,0.095-0.633,0.073-0.628,0.136c0.23,3.324-3.297,4.072-4.401,6.469
				c-1.043,1.231-1.979,2.709-3.902,2.459c-1.507-0.192-0.155,0.506-0.146,0.569c0.203,1.431-0.365,2.815-1.463,3.317
				c-2.876,1.315-4.479,3.81-6.369,6.072c-0.312,0.114-0.626,0.115-0.942,0.025c-1.047-0.958-2.24-1.822-2.319-3.436
				c-0.125-0.748-0.361-1.482-0.337-2.258c-0.006-0.693-0.011-1.39-0.017-2.085v0.003c0.646-1.062,0.761-2.347,1.421-3.402
				c0.896-2.061,1.931-4.031,3.563-5.624c1.514-0.474,2.652-1.388,3.349-2.827c0.461-0.907,1.149-1.594,2.032-2.092
				c1.812-0.506,2.675-1.984,3.535-3.461l-0.004,0.008C448.913,653.637,449.12,652.868,449.916,653.316z"/>
			<path fill="#25315D" d="M442.944,659.544c0.24,2.55-0.414,4.04-3.349,2.827c0.228-0.415,0.453-0.831,0.68-1.245
				c0.438-0.512,0.874-1.026,1.31-1.541C442.038,659.572,442.491,659.557,442.944,659.544z"/>
			<path fill="#25315D" d="M448.512,653.991c-0.099,2.255-1.344,3.341-3.533,3.462C445.792,655.928,446.891,654.692,448.512,653.991
				z"/>
			<path fill="#25315D" d="M451.979,650.494c0.922,2.765-0.989,1.492-2.046,1.437c-0.008-0.234-0.018-0.473-0.026-0.707
				C450.597,650.979,451.287,650.737,451.979,650.494z"/>
			<path fill="#25315D" d="M449.916,653.316c-0.469,0.228-0.938,0.455-1.409,0.683c0.018-1-0.006-2.029,1.417-2.062
				C449.922,652.396,449.92,652.856,449.916,653.316z"/>
			<path fill="#343F67" d="M436.032,667.995c0.018,1.338-0.316,2.531-1.421,3.401C434.618,670.067,434.751,668.792,436.032,667.995z
				"/>
			<path fill="#3F4A70" d="M431.84,681.854c-0.361-0.938,0.766-1.918-0.08-2.844c-0.002-0.23,0.008-0.463,0.03-0.69
				c0.224,0.01,0.449,0.018,0.673,0.021c0.304-0.271,0.616-0.281,0.937-0.025c0.454,0.629,0.478,1.315,0.288,2.035
				C433.299,681.129,433.02,682.045,431.84,681.854z"/>
			<path fill="#2C3862" d="M434.628,673.48c0.457,0.694,0.915,1.39,1.371,2.082c-0.657,0.387-1.204,1.061-2.106,0.817
				c-0.159-0.183-0.21-0.364-0.152-0.542c0.059-0.18,0.115-0.269,0.17-0.269C433.938,674.803,433.797,673.975,434.628,673.48z"/>
			<path fill="#333F67" d="M433.91,675.57c0.003,0.233,0.007,0.467,0.01,0.701c0.432,0.92,0.018,1.554-0.703,2.085
				c-0.251-0.005-0.502-0.012-0.753-0.017c0.052-0.923,0.104-1.845,0.156-2.769C433.052,675.572,433.48,675.571,433.91,675.57z"/>
			<path fill="#1F2C58" d="M469.39,770.188c-3.193-2.574-7.381-3.49-10.458-6.259c0.134-2.292,2.738-2.693,3.465-4.534
				c1.306-0.009,1.991,0.981,2.824,1.734c1.352,1.686,4.863,1.578,4.172,4.99c-0.01,0.055,0.285-0.138,0.371-0.243
				c1.484-1.815,3.318-0.487,3.709,0.444c1.058,2.517,2.614,2.244,4.562,1.665c0.28-0.083,0.562,0.315,0.7,0.646
				c0.822,1.114-2.336,1.964-0.092,3.347c2.415,1.487,4.298,0.897,6.185-0.77c0.77,0.078,1.336,0.484,1.788,1.087
				c0.904,1.646,1.286,3.227-0.583,4.514c-3.395,0.628-6.227-0.782-8.98-2.479l0.004-0.007
				C473.895,774.066,471.018,773.282,469.39,770.188z"/>
			<path fill="#1B2856" d="M462.438,759.739c-0.14,2.256-1.933,3.131-3.505,4.188c-0.564-0.021-1.072-0.158-1.375-0.696
				c-0.335-0.399-0.372-1-0.875-1.284c-0.529-0.216-1.072-0.401-1.511-0.793c-0.599-2.375-0.833-4.824-3.731-5.944
				c-1.073-0.415-1.687-2.061-2-3.428c0.013-1.607,0.319-3.083,1.78-4.051c0.76-0.157,1.51,0.118,1.82,0.705
				c1.222,2.315,3.257,3.795,5.188,5.41c0.696,0.583,1.514,1.417,1.41,2.279c-0.127,1.066-0.119,1.146,1.025,1.203
				C461.759,757.383,462.785,758.243,462.438,759.739z"/>
			<path fill="#212E5A" d="M449.917,752.087c1.494,1.31,1.851,4.014,4.711,3.717c0.368-0.038,1.738,0.56,1.011,1.683
				c-0.79,1.219,0.166,2.441-0.152,3.64c-0.468,0.409-0.94,0.397-1.418,0.021c-2.954-0.985-4.41-4.294-7.604-4.906
				c-0.616-0.353-0.915-0.896-0.968-1.591C446.83,753.556,447.03,750.502,449.917,752.087z"/>
			<path fill="#3B466D" d="M469.39,770.188c2.306,1.842,5.06,2.854,7.665,4.139c-0.668,1.188-0.901,3.415-2.971,1.222
				c-0.528-0.561-1.252-0.479-1.938-0.487c-1.195,0.272-1.74-0.401-2.059-1.408C470.325,772.399,468.355,771.597,469.39,770.188z"/>
			<path fill="#3C476E" d="M462.434,770.878c-0.464-0.231-0.926-0.465-1.39-0.696c0.683-0.731,0.286-2.425,1.519-2.433
				c1.381-0.01,1.211,1.403,1.266,2.425C463.061,769.81,462.399,769.658,462.434,770.878z"/>
			<path fill="#4C5679" d="M445.754,754.835c0.562,0.304,0.669,0.838,0.71,1.404c-0.262,0.248-0.524,0.494-0.787,0.741
				c-0.19-0.013-0.382-0.029-0.571-0.052c-0.09-1.539-1.67-2.15-2.142-3.45c0.003-0.234,0.005-0.47,0.008-0.702
				c1.048-0.423,1.569,0.372,2.191,0.94C445.449,754.042,445.465,754.511,445.754,754.835z"/>
			<path fill="#25315D" d="M457.567,761.133c1.112,0.704,0.19,1.398-0.011,2.099c-0.57-0.018-1.091-0.137-1.388-0.697
				C455.73,761.165,457.261,761.759,457.567,761.133z"/>
			<path fill="#25325D" d="M457.567,761.133c-0.467,0.467-0.932,0.935-1.397,1.4c-0.701-0.462-1.402-0.926-2.102-1.387
				c0.473-0.007,0.944-0.015,1.418-0.021C456.18,761.128,456.874,761.13,457.567,761.133z"/>
			<path fill="#1A2755" d="M433.218,729.83c-0.021-0.229-0.03-0.456-0.026-0.684c0.33-1.805,0.985-3.571,0.594-5.454
				c0.223-0.242,0.458-0.464,0.802-0.51c-0.358-0.01-0.54,0.267-0.769,0.481c-0.815,0.552-0.379,2.341-2.037,2.03
				c-0.217-0.242-0.437-0.482-0.653-0.725c-0.69-1.834,0.476-2.928,1.654-3.946c0.731-0.636,1.87-0.884,1.807-2.17
				c0.113-1.079,0.4-2.045,1.556-2.461c1.74,0.239,2.049,1.684,2.481,2.991c2.356,7.117,3.963,14.556,8.956,20.532
				c0.766,0.915,1.135,2.033,0.431,3.222c-0.571,0.532-1.28,0.686-2.025,0.736c-0.718,0.026-1.411-0.077-2.048-0.425
				c-0.653-3.593-1.554-7.038-5.43-8.603c-1.553-1.292-2.093-3.024-2.149-4.968C435.281,731.645,434.241,731.225,433.218,729.83z"/>
			<path fill="#1F2C58" d="M433.218,729.83c1.856,0.513,1.933,0.507,1.816-0.991c-0.044-0.578,0.013-0.884,0.551-0.938
				c0.725-0.076,0.98,0.438,1.084,1.046c0.353,2.049,1.156,3.93,2.117,5.753c2.687,2.011,5.021,4.245,3.973,8.036
				c-0.312,1.134,0.356,1.707,0.78,2.476c0.728,1.473,1.228,2.929-0.336,4.214c-1.169,0.395-2.322-0.087-2.499-1.089
				c-0.636-3.596-4.453-5.329-5.01-8.91c-0.032-0.206-0.241-0.378-0.385-0.553C434.612,735.856,433.915,732.843,433.218,729.83z"/>
			<path fill="#1B2856" d="M436.004,716.613c-0.475,0.865-0.804,1.77-0.696,2.78c-0.358,0.452-0.866,0.708-1.327,1.031
				c-1.637,1.146-2.845,1.342-3.096-1.205c-0.05-0.509-0.646-0.896-1.106-1.229c-0.026-0.225-0.041-0.443-0.044-0.669
				c0.419-1.483,1.36-1.933,2.792-1.404c0.206,0.207,0.399,0.424,0.582,0.653c-0.178-0.233-0.371-0.451-0.582-0.653
				c-0.188-1.976,1.392-4.374-1.383-5.742c-0.117-0.058-0.186-0.528-0.146-0.55c2.79-1.414,0.499-4.427,2.026-6.295
				c-1.228-0.174-2.516-0.14-3.281-1.325c1.554-0.361,3.037-0.73,3.276-2.753c0.104-0.876,0.539-1.736,1.397-2.235
				c1.976,0.029,2.136,1.57,2.108,2.896c-0.111,5.178-0.451,10.352,0.117,15.524C436.694,715.893,436.362,716.298,436.004,716.613z"
				/>
			<path fill="#23305B" d="M435.31,738.872c1.311,3.287,5.744,4.521,5.688,8.756c-0.014,1.021,1.195,1.235,1.961,1.679
				c0.208,0.085,0.4,0.21,0.609,0.284c4.186,1.478,4.186,1.477,1.479,4.58c-0.691-0.464-1.384-0.931-2.076-1.395
				c-1.678-2.317-3.354-4.634-5.034-6.95c-0.64-1.169-1.276-2.338-1.914-3.507C435.786,741.17,435.548,740.021,435.31,738.872z"/>
			<path fill="#1F2C58" d="M429.777,717.99c0.711-0.391,1.583-0.324,1.667,0.447c0.438,4.023,2.545,0.821,3.863,0.956
				c0.246,0.663,0.484,1.212-0.582,1.479c-2.092,0.523-3.103,2.112-3.597,4.099C429.768,722.819,430.885,720.19,429.777,717.99z"/>
			<path fill="#1F2C58" d="M431.782,725.695c0.957-0.464,0.596-2.25,2.135-2.127l0,0c2.183,2.174,1.094,3.924-0.726,5.578
				C432.122,728.24,431.816,727.021,431.782,725.695z"/>
			<path fill="#4E587B" d="M428.292,723.663c-1.063-1.271-0.499-2.823-0.737-4.237C428.997,720.63,428.125,722.236,428.292,723.663z
				"/>
			<path fill="#3F4A70" d="M477.051,774.332c3.117,0.249,5.729,2.634,9.024,2.13c0.946-0.134,1.896-0.182,2.854-0.085
				c0.329,0.021,0.65,0.079,0.974,0.151c0.944,0.495,2.451,0.303,2.444,1.975c-0.297,0.581-0.834,0.699-1.414,0.736
				c-1.387-0.07-2.771-0.143-4.156-0.213c-1.21-1.436-2.632-1.302-4.137-0.562C481.221,776.488,477.904,777.076,477.051,774.332z"/>
			<path fill="#26335E" d="M532.688,772.419c-1.386,0.479-2.771,0.954-4.156,1.43c-0.455,0.176-0.914,0.349-1.37,0.521
				c-2.201,0.409-4.352,1.134-6.625,1.076c-0.561-0.242-0.74-0.699-0.722-1.268c2.254-1.636,5.324-1.513,7.44-3.447
				c0.242-0.188,0.503-0.348,0.771-0.497c1.724-0.411,3.247,0.432,4.855,0.771c0.281,0.151,0.499,0.368,0.666,0.638
				C533.515,772.18,533.304,772.524,532.688,772.419z"/>
			<path fill="#3A456C" d="M520.168,775.037c2.362,0.125,4.595-1.141,6.992-0.669c-3.255,1.805-6.943,1.974-10.465,2.761
				c-0.23-0.245-0.292-0.528-0.193-0.849c0.227-0.433,0.562-0.753,0.989-0.983C518.361,774.995,519.215,774.5,520.168,775.037z"/>
			<path fill="#26335E" d="M516.699,776.438c-0.006,0.23-0.007,0.462-0.004,0.691c-0.262,0.221-0.521,0.442-0.777,0.661
				c-1.364,0.036-2.729,0.07-4.093,0.104C512.837,775.361,514.59,775.303,516.699,776.438z"/>
			<path fill="#222F5A" d="M570.952,724.264c0.236,0.001,0.472,0.004,0.708,0.008c1.101,2.237-0.521,4.157-0.73,6.243
				c-0.886,0.503-0.541,2.217-2.058,2.103c-0.158-0.03-0.314-0.062-0.474-0.089c-1.413-1.198-3.449-2.369,0.013-3.6
				c0.805-0.287,0.488-1.182,0.486-1.816C568.896,725.642,569.779,724.859,570.952,724.264z"/>
			<path fill="#2D3963" d="M543.108,767.379c-0.688,0.469-1.378,0.938-2.067,1.405c-1.224,1.042-2.957,1.05-4.195,2.062
				c-0.224,0.011-0.444,0.047-0.659,0.107c-0.913,0.271-1.589,1.603-2.78,0.624l-0.089-0.057c-0.294-0.419-0.397-0.98-0.003-1.246
				c2.819-1.887,5.681-3.712,9.122-4.286C542.449,766.556,542.558,767.074,543.108,767.379z"/>
			<path fill="#656E8C" d="M533.405,771.578c0.927-0.208,1.853-0.416,2.78-0.624c-0.92,1.08-1.183,3.728-3.498,1.464
				C532.927,772.139,533.166,771.858,533.405,771.578z"/>
			<path fill="#656E8C" d="M536.846,770.847c0.94-1.616,2.697-1.577,4.195-2.062c-0.245,0.456-0.489,0.912-0.733,1.367
				c-0.976,0.009-1.96,0.004-2.092,1.333C537.759,771.271,537.302,771.061,536.846,770.847z"/>
			<path fill="#1C2956" d="M542.438,765.989c-2.551,2.653-6.831,2.453-9.12,5.533c-1.831-0.219-3.66-0.434-5.488-0.649
				c-1.725-2.351-1.36-4.738-0.13-7.146c0.306-0.091,0.613-0.099,0.922-0.021c2.71-0.047,4.353-1.759,5.824-3.74
				c0.759-0.119,1.937,0.199,2.146-0.626c0.794-3.099,2.913-4.34,5.827-4.846c0.642-0.11,0.672-1.111,1.003-1.694
				c0.26-0.435,0.619-0.749,1.095-0.924c2.477,2.351,3.184,1.049,4.355-1.511c1.248-2.721,2.916-5.33,4.471-7.949
				c0.236-0.229,0.523-0.345,0.851-0.366c3.514,0.617,4.694-0.409,4.291-3.744c-0.567-0.909-0.909-1.886-0.691-2.961
				c0.163-0.809,0.364-1.497,1.55-1.354c2.441,0.294,3.07-0.837,2.748-3.469c-0.269-2.202-1.459-5.092,2.323-5.804
				c0.329,0.068,0.626,0.207,0.895,0.41c1.521,1.245,2.75,2.555,0.908,4.479c-0.879,1.038-0.386,1.911,0.452,2.582
				c1.291,1.032,1.445,2.429,1.495,3.898c-2.682,3.031-4.524,6.511-5.575,10.415c-0.312,1.203-2.057,1.293-2.106,2.702
				c-1.696,0.993-2.203,2.935-3.434,4.299c-1.21,0.634-2.033,1.653-2.767,2.763c-2.511-0.278-2.561,2.455-3.852,3.582
				C547.876,762.081,545.036,763.87,542.438,765.989z"/>
			<path fill="#222F5A" d="M568.163,736.09c0.322-2.815-5.063-3.355-2.775-6.956c1.045,1.271,1.907,2.727,3.477,3.477l0.009,0.007
				C569.75,734.002,569.327,735.121,568.163,736.09z"/>
			<path fill="#1E2B58" d="M502.782,632.445c1.617,0.677,3.239-0.342,4.856,0.006l0.011,0.004c0.704,0.533,1.606,0.428,2.384,0.719
				c0.133-0.021,0.265-0.032,0.396-0.045c0.465,0.008,0.929,0.014,1.394,0.021c0.948,0.992,2.326,0.906,3.481,1.379
				c1.158,0.238,2.315,0.478,3.476,0.717c0.31,0.55,0.829,0.66,1.397,0.663c0.227,0.02,0.449,0.028,0.677,0.028
				c1.855,0.697,3.981,0.657,5.591,2.039c0.458,0.017,0.916,0.03,1.375,0.048c0.522,0.798,1.441,0.325,2.109,0.659
				c1.152,0.476,2.307,0.951,3.458,1.426c0.558,0.376,1.125,0.742,1.076,1.541c-1.313,2.1-3.367,2.903-5.692,3.155
				c-0.674,0.074-1.584-0.038-1.719-0.776c-0.171-0.955-0.003-1.822-1.356-0.883c-0.313,0.217-1.021-0.021-1.22-0.398
				c-1.252-2.378-1.332,0.13-1.93,0.44c-0.738,0.503-1.472,0.908-2.072-0.176c0.563-2.217-1.356-2.028-2.509-2.61
				c-1.336-0.678-2.623-0.27-3.922,0.098c-0.326,0.05-0.651,0.038-0.976-0.027c-0.861-0.362-1.492-1.053-2.225-1.596
				c-1.486-1.109-2.706-3.469-4.769-0.653c-0.298,0.406-1.559,0.242-1.521-0.031C504.881,635.954,501.02,635.047,502.782,632.445z"
				/>
			<path fill="#1E2B58" d="M543.141,644.955c1.164,1.076,2.34,2.129,4.049,2.2c-0.038,1.546,1.993,1.355,2.232,2.669
				c-0.26,0.652-0.86,1.463-1.347,1.326c-2.449-0.693-2.84,1.35-3.812,2.638c-1.874,1.009-3.555-1.14-5.425-0.337
				c-0.662-0.562-0.995-1.3-1.179-2.125c0.009-0.893-0.089-2.382,1.011-2.104c2.113,0.536,0.578-1.01,0.582-1.067
				c0.116-1.521-0.551-0.098-0.713-0.083c-0.862,0.079-1.765-0.212-2.572,0.588c-1.254,1.243-2.526,0.585-3.684-0.35
				c-0.366-0.349-0.602-0.762-0.61-1.277c2.312-0.575,2.047-3.224,3.562-4.444c0.718-0.49,1.472-0.785,2.342-0.422
				C539.433,643.096,541.285,644.025,543.141,644.955z"/>
			<path fill="#354068" d="M526.445,637.976c-1.875-0.652-4.083-0.388-5.592-2.038C523.447,634.385,525.467,635.122,526.445,637.976
				z"/>
			<path fill="#24315C" d="M537.579,642.167c-0.701,0.237-1.402,0.476-2.105,0.712c-0.819-0.104-1.046-0.809-1.39-1.389
				c-0.23-0.461-0.465-0.921-0.695-1.382C535.123,640.108,536.617,640.598,537.579,642.167z"/>
			<path fill="#25315D" d="M529.931,638.684c-0.892,0.382-1.913,1.178-2.109-0.659C528.593,638.019,529.405,637.89,529.931,638.684z
				"/>
			<path fill="#1D2A57" d="M543.824,653.312c0.461-3.414,3.19-3.191,5.598-3.488c0.479,0.679,0.959,1.358,1.438,2.038l-0.23,0.19
				l0.211-0.215c0.455,0.003,0.91,0.007,1.365,0.011l-0.105,0.186c0.626,0.73,1.278,1.435,2.051,2.02
				c1.685,2.013,3.37,4.022,5.054,6.034c0.592,1.877,1.071,3.746-0.32,5.378c2.635-1.155,3.849,1.486,5.741,2.459
				c0.096,0.173,0.149,0.359,0.162,0.559c-0.646,2.601-2.485,1.368-3.979,1.254c-4.426,0.482-5.787-3.809-8.727-5.655
				c-1.241-0.78-2.219-1.977-3.431-2.854c-0.197-0.264-0.308-0.562-0.345-0.889c-0.033-0.997,1.813-2.404-1.058-2.727
				C545.307,657.395,544.423,655.204,543.824,653.312z"/>
			<path fill="#212E5A" d="M560.519,668.616c1.443,0.619,2.891,1.38,4.269-0.134c3.638,3.345,5.004,8.078,7.425,12.167
				c0.041,0.861,0.083,1.725,0.125,2.587c-0.021,0.223-0.029,0.447-0.029,0.673c-1.08,0.322-1.75-0.58-2.624-0.876
				c-0.279-0.163-0.524-0.37-0.739-0.613c-0.182-0.516-0.558-0.631-1.127-0.395c-0.694,0.284-1.354,0.102-1.897-0.344
				c-1.277-1.042-0.713-2.19-0.127-3.324c0.413-0.411,0.922-0.372,1.438-0.281c-0.213-0.237-0.58-0.268-0.759-0.56
				c-0.118-1.718-0.466-3.321-2.079-4.312C562.446,672.227,559.748,671.88,560.519,668.616z"/>
			<path fill="#23305B" d="M564.625,667.925c-2.607,0.462-3.764-3.509-6.776-2.058c1.865-1.715,0.774-3.93,1.355-5.779
				c0.436,0.298,0.873,0.6,1.307,0.899c0.739,0.904,1.476,1.811,2.214,2.717c0.771,1.022,1.008,2.523,2.55,2.855
				C565.058,667.014,564.841,667.47,564.625,667.925z"/>
			<path fill="#3C476E" d="M554.15,654.054c-1.205-0.145-1.881-0.827-2.05-2.02C553.033,652.454,553.875,652.966,554.15,654.054z"/>
			<path fill="#1C2956" d="M568.863,732.609c-2.086-0.231-3.242-1.394-3.477-3.477c2.96-1.8-0.084-2.396-0.695-3.479
				c0.904-0.463,1.67-0.722,1.963-2.112c0.663-3.149,1.479-6.256,1.132-9.49c-0.196-1.812,0.251-3.399,1.031-4.96
				c-0.624-2.656-1.425-5.275-1.477-8.033c0.211-0.955,0.618-1.839,0.989-2.734c1.354-3.365-0.186-6.441-1.084-9.523
				c-0.646-2.208-0.011-4.458,2.312-6.271l0,0c1.909,2.07,3.371,5.771,2.692,8.312c-0.47,1.751,0.992,1.439,1.487,2.119
				c-0.007,0.465-0.014,0.93-0.019,1.396c-0.179,0.661-1.266,0.963-1.003,1.656c0.771,2.021,1.28,3.943,0.333,6.099
				c-0.297,0.673,0.951,0.786,1.374,1.286c-0.463,1.157-0.925,2.317-1.387,3.477c0.421,1.29-1.169,2.177-0.695,3.479
				c-0.609,1.812-1.164,3.521-0.918,5.595c0.273,2.298-1.522,4.468-1.169,6.927c-0.757,0.463-0.552,0.928,0,1.391
				c0.231,0,0.465,0,0.695,0c-0.563,1.093-1.833,1.984-1.29,3.411c1.073,2.823-0.854,2.189-2.373,2.054
				C566.96,731.213,568.662,731.503,568.863,732.609z"/>
			<path fill="#1D2A57" d="M573.739,692.961c-1.508,1.099-2.394-0.088-3.074-1.045c-0.873-1.227,0.004-1.381,1.115-1.581
				c0.729-0.131,0.241-1.058-0.047-1.393c-1.598-1.862-0.898-4.471-2.175-6.414c1.286-0.275,1.99,0.606,2.748,1.381
				C573.003,686.892,574.012,689.824,573.739,692.961z"/>
			<path fill="#1D2A57" d="M574.426,703.396c-2.505,0.75-3.11-1.93-2.514-2.488c1.689-1.576,0.576-2.439-0.042-3.722
				c-0.861-1.784-0.431-2.979,1.852-2.831c1.343,2.688,0.446,5.567,0.706,8.349C574.428,702.936,574.428,703.166,574.426,703.396z"
				/>
			<path fill="#29355F" d="M515.306,634.528c-1.342-0.005-2.775,0.228-3.481-1.381C513.054,633.431,514.335,633.583,515.306,634.528
				z"/>
			<path fill="#333F68" d="M509.006,632.412c0.033-0.566,0.159-1.083,0.727-1.366c0.814,0.499,0.679,1.317,0.698,2.083l0.017,0.025
				C509.641,633.535,509.333,632.956,509.006,632.412z"/>
			<path fill="#29355F" d="M509.006,632.412c0.479,0.247,0.96,0.494,1.44,0.742c0.093,0.537,0.803,1.6-0.638,0.961
				c-0.808-0.357-1.444-1.096-2.159-1.66C508.101,632.439,508.554,632.426,509.006,632.412z"/>
			<path fill="#212E5A" d="M516.699,776.438c-1.776-0.021-3.498,0.138-4.874,1.456c-1.022,0.896-2.291,0.491-3.452,0.653
				c-1.634-0.015-3.266-0.029-4.897-0.044c-0.934-2.307,0.887-2.752,2.276-2.741c2.022,0.02,3.66-1.06,5.534-1.34
				c0.163-0.025,0.288,0.498,0.506-0.097c0.921-2.516,1.039-2.582,2.948-0.742c0.839,0.81,2.009,1.162,2.661,2.163
				C517.167,775.977,516.934,776.207,516.699,776.438z"/>
			<path fill="#1B2856" d="M517.401,775.746c-2.451,0.323-3.228-2.356-5.408-3.168c0.322,1.341,0.571,2.383,0.88,3.657
				c-1.838-1.269-8.4,0.494-9.397,2.268c-0.461,0.006-0.924,0.009-1.386,0.015c-0.361-1.205-1.185-2.033-2.198-2.713
				c-0.209-0.783,0.828-2.061-0.607-2.297c-1.359-0.223-3.009-1.516-4.133-0.057c-1.48,1.922-2.105,1.444-2.616-0.492
				c-0.312-1.18-1.345-1.858-1.876-2.882c-0.078-0.345-0.06-0.681,0.041-1.016c3.153-1.974,6.487-0.583,9.677-0.283
				c2.251,0.211,4.224,0.429,6.349-0.665c3.236-1.665,7.097-0.746,10.46-2.247c1.664-0.741,3.465-1.104,5.107-2.05
				c1.717-0.985,3.715-1.337,5.531,0.098c-0.223,2.317-0.354,4.64,0.005,6.959v-0.001c-2.691,0.547-5.193,1.608-7.656,2.782
				c0,0.461-0.002,0.922-0.004,1.383C519.309,775.515,518.411,775.849,517.401,775.746z"/>
			<path fill="#1F2B58" d="M490.957,770.174c2.302,0.273,2.549,2.11,2.662,3.918c1.583-0.465,0.22-3.144,1.551-2.476
				c2.033,1.021,4.904-0.341,6.204,2.205c0.629,1.229-1.197,1.062-1.373,1.916c-0.535,1.055-1.179,1.938-2.57,1.646
				c-0.245-0.181-0.279-0.523-0.529-0.708c0.19,0.36,0.481,0.695,0.315,1.159c-0.937,0.499-1.867,0.631-2.797-0.002
				c-0.689,0.225-1.381,0.447-2.072,0.67c-0.926-0.458-1.854-0.915-2.781-1.372c-0.231-0.526-0.463-0.334-0.694,0
				c-0.963-0.095-2.041,0.296-2.796-0.669c1.146-1.396,0.259-2.8,0.013-4.201C487.449,770.956,488.512,768.954,490.957,770.174z"/>
			<path fill="#212E5A" d="M497.217,777.131c0.93-0.465,1.856-0.929,2.784-1.394c2.101-0.129,3.539,0.238,2.089,2.779
				c-2.531-0.519-5.256,1.141-7.67-0.685C495.383,777.72,496.482,778.153,497.217,777.131L497.217,777.131z"/>
			<path fill="#1E2B58" d="M434.613,697.135c-0.862,2.384-1.01,5.483-4.869,4.87c1.585-0.889,2.796-2.01,0.396-3.163
				c-0.966-0.465,0.536-2.052-1.103-1.709c0.473-3.246,0.944-6.492,1.417-9.738c2.406-0.825,1.905,1.495,2.337,2.429
				c0.619,1.333,0.604,2.935-0.489,4.466c1.738-0.307,3.812-1.151,3.417,1.914C435.51,696.702,435.061,696.917,434.613,697.135z"/>
			<path fill="#1D2A57" d="M572.344,710.352c-2.601-1.727,0.128-2.385,0.695-3.478C574.308,708.334,573.835,709.445,572.344,710.352
				z"/>
			<path fill="#202D59" d="M570.257,724.264c-1.045,0.486-1.55,0.163-1.343-0.981c0.161-0.893,0.61-1.209,1.343-0.408
				C570.257,723.336,570.257,723.801,570.257,724.264z"/>
			<path fill="#182653" d="M434.613,697.135c0.231-0.23,0.463-0.463,0.694-0.693c0.505-0.428,0.786-1.015,1.11-1.572
				c0.775-1.311,1.201-2.754,1.493-4.219c1.82-9.131,6.044-17.057,12.005-24.12c-0.609-1.08-0.664-1.738,0.826-2.281
				c1.677-0.609,3.357-1.592,2.75-3.967c-0.044-0.176-0.005-0.54,0.015-0.542c4.1-0.289,4.763-4.602,7.539-6.427
				c0.696-0.465,1.392-0.929,2.088-1.393c2.277-2.399,5.458-2.993,8.348-4.174c0.23-0.232,0.463-0.465,0.694-0.696
				c2.147-1.625,4.89-0.737,7.234-1.76c2.989-1.302,6.521-1.049,9.288-3.163c0.614-0.47,1.517-0.477,2.26,0.055
				c0.299,0.562,0.817,0.683,1.391,0.694c0.402-0.557,0.738-1.44,1.453-1.373c3.718,0.354,6.96-1.937,10.773-1.622
				c2.831,0.235,5.77-1.145,8.643,0.215c0.231-0.001,0.464-0.001,0.695-0.001c2.536,0.383,5.122,0.644,6.955,2.782
				c0.465,0.771,0.927,0.058,1.392-0.001c1.23-0.431,1.981,0.436,2.6,1.171c1.887,2.254,4.216,3.291,7.14,3.004
				c0.231,0.232,0.464,0.464,0.696,0.695c0.435,3.431,3.432,2.764,5.564,3.479c0.232,0.694,0.463,1.392,0.693,2.087
				c4.503,0.561,6.707,4.338,9.74,6.956c0,0.231,0,0.463,0,0.694c5.445,6.043,9.771,12.834,12.843,20.337
				c1.116,2.731,1.351,5.831,1.943,8.768c0.303,1.51,0.697,2.897,1.571,4.152c0.317,4.138,2.489,7.975,1.92,12.28
				c-0.138,1.038-0.331,1.988-0.798,2.903c-0.129,0.29-0.275,0.572-0.422,0.854c-0.881,6.477-3.574,12.488-4.781,18.89
				c-0.594,3.138-3.551,5.362-3.676,8.752c-0.521,1.817-0.867,3.759-3.038,4.45c-0.23,0-0.463,0-0.692,0
				c-2.184,2.061-3.692,4.673-5.677,6.9c-0.996,1.119-1.85,2.359-3.367,2.838c-0.23,0.231-0.464,0.464-0.694,0.694
				c-4.219,3.19-8.841,5.767-13.2,8.74c-0.842,0.67-1.133,1.833-2.104,2.391h-0.35h-0.349c-3.923-1.088-6.731,2.021-10.19,2.769
				c-2.46,0.53-4.812,1.543-7.402,1.404c-1.308-0.07-2.637,0.037-3.559,1.02c-1.545,1.646-3.652,1.487-5.163,0.863
				c-3.105-1.279-6.386,0.073-9.416-1.111c-0.259-0.101-0.753,0.4-1.136,0.621c-3.689-0.595-7.023-2.55-10.715-2.996
				c-5.525-0.67-10.423-3.301-15.717-4.655c-0.455-0.938-1.151-1.633-2.088-2.088c-3.699-3.952-7.861-7.467-11.13-11.824
				c-2.026,0.588-3.109-0.435-3.764-2.195c-0.358-0.938-0.109-1.812,0.287-2.675c-0.074-0.565,0.062-1.315-0.251-1.67
				c-5.719-6.489-7.617-14.669-10.054-22.604c-0.282-0.921-0.562-1.756-1.521-2.156c-0.058-1.455,0.289-2.974-1.017-4.165
				c-1.943-1.775,1.229-0.728,0.94-1.648c-1.298-4.162,0.364-8.44-0.497-12.615C435.352,697.795,434.896,697.482,434.613,697.135z"
				/>
			<path fill="#1B2855" d="M490.957,642.183c-3.502,1.15-6.789,2.803-10.409,3.771c-2.827,0.758-5.537,1.062-8.372,1.097
				c-0.003-1.003-0.468-1.698-1.392-2.087c0.708-0.988,3.056,0.213,2.784-2.085c0.695-0.232,1.39-0.465,2.087-0.697
				c1.159,0.26,2.317,0.271,3.478,0c1.69-1.127,1.189-2.906,0.994-5.174c3.19,6.317,3.19,6.317,7.007,4.482
				c-0.483-1.327-1.918-0.214-2.355-0.745c0.484-3.95,4.21-5.013,6.181-7.606c0.695,0.002,1.391,0.002,2.086,0.003
				c-1.42,1.605-2.838,3.212-4.393,4.97c0.291,1.135,2.176-0.84,2.178,0.876c0,1.562-1.818,0.679-2.277,1.742
				C488.844,641.997,490.545,641.089,490.957,642.183z"/>
			<path fill="#1A2755" d="M471.48,647.747c-2.25,2.457-5.584,2.747-8.348,4.174c1.152-3.131,4.144-3.914,6.721-5.181
				C470.665,646.342,470.848,647.537,471.48,647.747z"/>
			<path fill="#212E5A" d="M456.871,651.226c-0.902,0.708-1.279,1.681-1.391,2.782c-2.285-0.495-0.387-2.646-1.438-3.63
				c0.74-0.726,1.689-0.634,2.548-0.483C457.468,650.049,456.967,650.732,456.871,651.226z"/>
			<path fill="#1F2C58" d="M479.132,642.182c-1.159,1.14-2.317,1.142-3.478,0c0.09-1.486,1.15-2.305,2.391-3.32
				C477.092,640.565,478.306,641.294,479.132,642.182z"/>
			<path fill="#1B2856" d="M436.699,695.743c-0.3,0.562-0.818,0.683-1.392,0.697c-0.087-2.287-0.956-2.808-2.582-1.03
				c-0.651,0.714-1.187,0.588-1.721,0.102c-0.538-0.488-0.238-1.01,0.207-1.447c2.601-2.546,0.713-4.584-0.758-6.67
				c-0.007-0.23-0.013-0.462-0.015-0.692c0.232-0.23,0.466-0.463,0.699-0.693c1.887-0.332,2.311,1.271,3.133,2.351
				c0.384,0.646,0.926,1.184,1.32,1.825c0.16,0.443,0.157,0.876-0.098,1.265c-0.137,0.15-0.322,0.212-0.538,0.161
				c0.331,0.331,0.374-0.282,0.653-0.196C437.867,692.391,436.886,694.166,436.699,695.743z"/>
			<path fill="#1C2956" d="M435.309,690.18c-0.903-0.023-1.367-0.486-1.392-1.392c0.028-1.192-1.167-2.118-0.76-3.364
				c0.17-0.188,0.267-0.318,0.271-0.355c-0.106,0.154-0.271,0.291-0.519,0.411c-0.815-0.23-1.448-0.573-1.095-1.583
				c0.009-0.681,0.018-1.361,0.025-2.043c0.457-0.473,0.913-0.943,1.371-1.418c0.251-0.258,0.497-0.265,0.734,0.018
				c0.19,0.116,0.34,0.316,0.596,0.319c-0.453-0.169-0.71-0.479-0.713-0.979c0.906-1.625,2.121-1.741,3.564-0.744l0.002,0.002
				c1.584,2.423,2.238,4.892,0.359,7.478c-0.247,0.648-1.42-0.132-1.403,0.928C437.056,688.775,437.307,689.916,435.309,690.18z"/>
			<path fill="#1E2B58" d="M431.815,683.896c0.271,0.669,0.732,1.146,1.406,1.413l0,0c0.417,1.122,1.542,2.104,0.695,3.479
				c-1.019-0.833-1.409-2.297-2.778-2.78C431.171,685.243,431.031,684.422,431.815,683.896z"/>
			<path fill="#1B2855" d="M513.217,640.097c-3.469-0.681-6.809,1.806-10.307,0.419c-0.104-0.042-0.27-0.138-0.317-0.098
				c-3.034,2.419-7.023,0.843-10.245,2.459c-1.066-1.918,1.381-3.818-1.11-6.163c3.118,0.695,2.142,2.524,2.893,3.937
				c0.948-1.842,0.699-3.913,2.353-5.125c0.655-0.064,0.666,0.663,1.01,1.071c0.578,0.688-1.562,1.56,0.242,2.166
				c1.496,0.503,2.083-0.555,2.791-1.374c1.216-1.405,1.359-3.19,1.562-4.938c0.233-0.005,0.465-0.008,0.696-0.005
				c0.171,0.842-0.354,2.489,0.637,2.385c3.877-0.416,2.334,1.298,0.993,2.837c0.56,0.142,0.879,0.313,0.972,0.231
				c3.344-2.977,3.558-3.044,3.959-1.706C509.966,638.263,512.618,638.131,513.217,640.097z"/>
			<path fill="#1A2754" d="M436.7,686.701c2.774-2.319,0.406-5.106,0.696-7.65c2.099-2.354,3.205-5.736,6.815-6.533
				c0.261-0.059,0.628-0.519,0.619-0.777c-0.132-3.545,3.278-3.594,5.085-5.21c-1.03,3.469-3.389,6.311-5.271,9.199
				c-3.207,4.919-4.495,10.265-5.969,15.688c-0.412,1.517-0.596,3.218-1.977,4.325c-0.946-1.229,0.486-3.252-1.392-4.172l0,0
				c0-0.466,0-0.929,0-1.393c1.369-0.928,1.05-1.854,0-2.782C435.655,686.932,436.11,686.682,436.7,686.701z"/>
			<path fill="#202D59" d="M433.917,680.44c-0.235-0.001-0.471-0.003-0.706-0.006c0.001-0.692,0.004-1.387,0.007-2.078
				c0.234-0.695,0.47-1.392,0.703-2.085c0.694-0.236,1.386-0.473,2.079-0.709c-1.012,1.754,1.943,1.919,1.395,3.485
				C436.054,679.061,434.613,678.818,433.917,680.44L433.917,680.44z"/>
			<path fill="#1B2855" d="M464.525,761.827c1.244,0.128,2.496-0.683,3.729-0.011c5.922,3.22,12.674,3.594,18.992,5.455
				c1.552,0.459,1.946,2.414,3.71,2.207c0,0.23,0,0.464,0,0.694c-2.068-0.343-2.861,2.288-4.869,2.087
				c-0.464-0.23-0.927-0.465-1.391-0.695c-0.972-1.033,0.181-1.65,0.476-2.436c-1.68,0.167-0.944,1.766-1.52,2.605
				c-0.847,1.234-1.612,0.084-2.394,0.034c-1.822-0.11-2.337-1.559-2.824-2.987c-0.962-0.775-1.371,0.328-2.048,0.565
				c-1.442,0.506-2.33,0.396-2.694-1.573c-0.159-0.855-1.847-1.983-3.174-1.745c-0.896,0.159-1.645,1.144-3.539,2.572
				C470.684,763.459,466.3,763.415,464.525,761.827z"/>
			<path fill="#1F2B58" d="M478.438,768.782c0.817,0.313,1.228,0.999,1.575,1.739c0.905-1.188,3.333,3.394,3.452-0.923
				c0.024-0.926,0.557-1.042,4.407-1.148c-1.862,0.828-3.163,1.472-3.174,3.114c-1.949,2.689-4.331,3.065-6.435,0.669
				c-0.944-1.079-1.627,1.263-2.238-0.396C476.77,770.893,477.604,769.838,478.438,768.782z"/>
			<path fill="#1D2A57" d="M447.83,745.133c0.714,1.483,1.943,2.322,3.477,2.782c-0.464,1.391-0.927,2.782-1.391,4.172
				c-2.294-0.458-2.483,2.275-4.164,2.749c-0.234-0.222-0.47-0.443-0.705-0.665c-1.547-2.143,2.009-1.412,1.577-2.718
				c-0.624-1.882-2.901,0.861-3.599-1.132c-0.108-0.309-0.051-0.675-0.068-1.016c1.146-1.391,0.233-2.781,0.001-4.174
				c-0.364-0.896-0.058-1.564,0.696-2.088c0.694,0,1.391,0,2.086,0C446.507,743.672,445.9,745.672,447.83,745.133z"/>
			<path fill="#1A2755" d="M443.656,743.045c-0.232,0.697-0.464,1.391-0.696,2.088c-0.883-0.789-2.876-1.168-0.808-2.978
				c0.263-0.229,0.936-3.122-0.563-3.749c-1.864-0.779-1.947-2.435-2.803-3.708c0.612-0.163,1.323-0.932,1.838-0.182
				c1.406,2.052,2.674,4.198,3.993,6.311C445.363,742.024,444.021,742.326,443.656,743.045z"/>
			<path fill="#1A2755" d="M447.83,745.133c-2.199,0.81-2.189-0.594-2.088-2.088c0.695,0,1.391,0,2.088,0
				C448.634,743.742,447.598,744.438,447.83,745.133z"/>
			<path fill="#1F2C58" d="M433.917,723.568c0.271-1.817,1.196-1.365,2.542-0.733C435.587,723.84,434.682,723.463,433.917,723.568
				L433.917,723.568z"/>
			<path fill="#202D59" d="M432.525,715.917c1.457,0.124,1.65,1.165,2.04,2.698C432.92,717.993,432.642,717.015,432.525,715.917
				L432.525,715.917z"/>
			<path fill="#1B2855" d="M488.871,777.131c0.188-0.624-0.368-1.908,0.825-1.648c0.853,0.186-0.046,1.071-0.131,1.648
				C489.334,777.131,489.104,777.131,488.871,777.131z"/>
			<path fill="#1C2956" d="M520.172,773.654c1.894-2.744,4.763-2.795,7.656-2.782C525.671,772.887,523.417,774.632,520.172,773.654z
				"/>
			<path fill="#1B2855" d="M556.346,737.481c2.762-5.243,4.031-11.021,6.013-16.539c1.336-3.72,0.969-7.822,3.028-11.286
				c2.713,0.789,1.541,2.949,1.496,4.579c-0.102,3.687-1.081,7.227-2.19,10.725c-0.905,0.649-2.014,1.075-2.515,2.155
				c0.59,0.922,1.318-0.168,2.202,0.462c-3.539,0.938-1.115,2.627-0.753,4.164c0.437,1.836-3.693,2.188-1.174,4.789
				c-1.946,0.026-2.336-1.916-3.744-2.062c-0.595,1.376-0.181,2.551,0.418,3.707c0.223,0.873,0.68,1.941-0.548,2.296
				c-0.997,0.288-1.353-0.638-1.501-1.473C556.974,738.414,556.791,737.892,556.346,737.481z"/>
			<path fill="#1F2C58" d="M564.691,724.96c-0.137-1.809-1.384-3.813,0.945-5.192c0.268-0.158,0.627-0.709,0.585-0.757
				c-2.266-2.543-0.104-4.882,0.224-7.315c0.081-0.622-0.684-1.355-1.06-2.038l0,0c1.188-1.451,2.757-0.622,4.173-0.695
				c-0.706,5.439-1.301,10.899-2.188,16.312c-0.286,1.748-1.836-0.265-2.682,0.384C564.691,725.423,564.691,725.192,564.691,724.96z
				"/>
			<path fill="#1A2755" d="M544.519,752.089c2.125-3.118,5.099-5.579,6.938-8.914c0.485-0.878,1.305-0.801,2.105-0.825
				c1.214,1.665-0.599,2.426-1.166,3.438c-2.033,3.641-3.449,7.785-7.477,10.038C544.183,754.636,546.928,753.043,544.519,752.089z"
				/>
			<path fill="#1A2755" d="M529.911,761.133c4.375-3.222,9.037-5.964,13.913-8.35c0.007,1.753,0.256,3.146-2.623,2.97
				c-2.784-0.171-4.055,2.003-3.12,5.157c-1.235-0.18-2.268-0.326-3.301-0.475c-0.819-0.685-1.368-0.157-1.961,0.396
				C531.942,761.649,530.983,762.05,529.911,761.133z"/>
			<path fill="#1F2C58" d="M556.346,737.481c1.724-0.022,1.088,1.7,1.991,2.686c0.3-0.755,0.544-1.372,0.79-1.99
				c2.441,2.3-0.495,3.204-1.298,4.528c-1.231,2.036-2.441,0.498-3.573-0.355C555.188,740.828,556.548,739.49,556.346,737.481z"/>
			<path fill="#1B2856" d="M529.911,761.133c1.774,0.842,2.944-2.583,4.869-0.695c-0.399,0.079-1.223,0.254-0.838,0.61
				c1.841,1.706,0.205,1.824-0.895,2.111c-0.927,0.239-1.89-0.066-2.473,1.266c-0.71,1.627-0.931,1.529-2.057-0.511
				C528.633,762.812,529.007,761.838,529.911,761.133z"/>
			<path fill="#222F5A" d="M564.667,736.507c-0.191,0.212-0.365,0.58-0.604,0.633c-0.396,0.084-0.62-0.3-0.48-0.632
				c0.113-0.264,0.463-0.428,0.707-0.637C564.396,736.053,564.505,736.235,564.667,736.507z"/>
			<path fill="#1B2855" d="M531.997,647.052c-2.065,1.498-3.957,1.107-5.736-0.523c-1.331-1.22-2.668-2.435-4.002-3.65
				c0.253-0.827,0.506-1.654,0.786-2.568c1.159,0.821,1.807,3.775,3.904,0.808c0.464-0.654,1.387,0.591,1.516,1.611
				c0.063,0.526-2.551,0.898-0.104,1.324c0.224,0.038,2.651,1.24,2.264-1.133c-0.193-1.168,0.853-1.152,1.061-0.845
				c1.448,2.139,1.744,0.137,2.399-0.584c0.666,0.26,1.127,0.726,1.39,1.389C534.661,644.559,534.641,646.899,531.997,647.052z"/>
			<path fill="#1B2855" d="M520.867,642.878c-2.272-1.04-4.991-0.971-6.955-2.782c2.419-2.713,4.923,0.896,7.454,0.022
				C521.569,640.047,520.71,641.86,520.867,642.878z"/>
			<path fill="#1B2855" d="M538.259,651.226c-2.436,1.768-4.275-0.271-6.119-1.184c-1.616-0.8,0.192-1.543,0.555-2.295
				c1.116,0.374,2.585,2.688,3.028-0.605c0.117-0.895,0.851-0.585,1.308-0.222c2.165,1.713,1.652-0.704,2.29-1.544
				c2.183,0.886-0.021,3.832,2.163,4.627c-0.468,1.143-1.193,1.387-2.093,0.492C537.79,648.898,538.41,650.638,538.259,651.226z"/>
			<path fill="#1B2855" d="M548.692,660.269c-3.839-1.49-5.964-5.38-9.74-6.956c1.625-1.26,3.249-0.651,4.872,0
				c1.992,1.175,2.198,5.512,5.986,3.293C550.568,658.271,549.749,659.31,548.692,660.269z"/>
			<path fill="#1B2855" d="M564.691,694.354c-1.2-0.75-1.74-1.595-1.976-3.232c-1.297-9.022-4.493-17.306-10.578-24.297
				c-1.504-1.728-3.022-3.48-3.445-5.859c3.12,0.788,5.637,3.163,7.117,5.362c1.483,2.197,2.867,2.115,4.708,2.29
				c0.275,2.506,2.791,2.771,4.173,4.173c0.045,1.086-0.703,1.852-0.93,2.67c-0.604,0.278,0.486,0.393,0.088,0.153
				c-0.186-0.111-0.105-0.153,0.155-0.287c2.793-1.435,1.722,1.709,2.772,2.335c0.264,0.132,0.525,0.266,0.79,0.398
				c-0.494,0.099-0.988,0.196-1.484,0.297c-1.025,2.767-1.962,5.403-0.482,8.474c0.819,1.699,0.021,3.919,1.137,5.857
				C567.226,693.535,565.866,694.343,564.691,694.354z"/>
			<path fill="#212E5A" d="M552.756,658.854c0.46,0.155,1.154-0.066,0.926,0.697c-0.069,0.233-0.505,0.477-0.791,0.499
				c-0.48,0.041-0.946-0.212-0.877-0.771C552.035,659.099,552.528,658.979,552.756,658.854z"/>
			<path fill="#24305C" d="M550.841,651.839c-0.15,0.683-0.264,1.413-1.225,1.332c-0.372-0.032-0.719-0.266-0.551-0.662
				c0.342-0.812,1.167-0.5,1.795-0.646L550.841,651.839z"/>
			<path fill="#1D2A57" d="M564.691,694.354c0.698-0.854,2.779-1.384,0.46-2.869c-0.829-0.532-1.119-1.678-0.218-2.705
				c0.604-0.688,0.478-1.469-0.08-2.192c-2.428-3.163-0.498-5.684,1.229-8.229c0.368,0.929-0.891,2.014,0.259,2.854
				c0.269,0.195,0.625,0.38,0.938,0.376c0.447-0.008,0.474-0.382,0.254-0.69c-0.977-1.369-0.457-1.931,1.03-1.779
				c2.015,0.205,0.74,1.276,0.556,2.136c-0.08,0.377,0.28,0.848,0.438,1.277c-1.153,1.167-0.569,3.188-2.059,4.204
				c-0.157,0.107-0.205,0.38-0.305,0.573c2.761,0.708,0.521,3.284,1.641,4.481c2.162,2.312,0.861,4.495,0.029,6.736
				c-1.68,0.567-1.178,1.679-0.697,2.784c0.48,2.081-0.396,4.496,1.604,6.218c0.508,0.438,0.373,1.027-0.213,1.435
				c-1.171,1.541-2.756,0.618-4.173,0.695c1.45-3.834,0.725-7.7-0.35-11.378C564.625,696.874,564.766,695.659,564.691,694.354z"/>
			<path fill="#1D2A57" d="M566.777,677.66c-1.17-0.326-1.186-1.558-1.77-2.319c-1.22,0.205-0.986,2.206-2.978,1.881
				c1.593-1.236,0.654-3.553,2.659-4.433C567.128,673.665,567.539,675.411,566.777,677.66z"/>
			<path fill="#202D59" d="M568.169,701.31c-1.396-0.724-1.233-2.142-1.236-3.322c0-0.264,1.402-0.216,1.935,0.539
				C568.633,699.454,568.401,700.381,568.169,701.31z"/>
			<path fill="#1D2A57" d="M571.146,706.776c-0.625-0.078-1.159-0.398-1.27-0.988c-0.14-0.75,0.402-0.983,1.062-0.862
				c0.604,0.112,1.061,0.48,1.124,1.114C572.128,706.672,571.607,706.72,571.146,706.776z"/>
			<path fill="#212E5A" d="M509.099,774.741c-0.126-1.77-0.519-2.646-2.241-1.288c-0.627,0.492-1.205,1.099-1.909,1.421
				c-0.575,0.261-1.505,0.418-1.781-0.399c-0.31-0.911,0.398-1.212,1.183-1.054c0.973,0.195,1.517-0.377,2.027-0.996
				c0.645-0.774,1.09-1.873,2.417-0.943C510.132,772.42,509.77,773.521,509.099,774.741z"/>
			<path fill="#222F5B" d="M497.217,777.131c-0.664-0.604-1.308-1.218-1.018-2.308C497.471,775.255,497.119,776.286,497.217,777.131
				L497.217,777.131z"/>
			<path fill="#212E59" d="M435.308,691.571c-0.329,0.542-0.407,1.271-1.139,1.511c-0.081-0.313-0.235-0.629-0.229-0.941
				C433.963,690.97,434.683,691.361,435.308,691.571L435.308,691.571z"/>
			<path fill="#202D59" d="M433.917,680.44c0.836-0.038,1.672-0.076,2.915-0.134C435.553,682.044,434.718,681.922,433.917,680.44
				L433.917,680.44z"/>
			<path fill="#1E2B58" d="M433.222,685.311c0.077-0.757-0.207-1.689,0.896-1.964c0.366-0.09,0.721,0.062,0.684,0.489
				C434.718,684.767,434.164,685.264,433.222,685.311L433.222,685.311z"/>
			<path fill="#1E2B58" d="M436.7,686.701c-0.3,0.561-0.819,0.681-1.393,0.695c-0.142-0.508-0.704-1.097-0.064-1.518
				C436.1,685.315,436.374,686.133,436.7,686.701z"/>
			<path fill="#25315C" d="M566.811,694.783c0.28,0.323,0.677,0.609,0.824,0.993c0.176,0.46-0.293,0.582-0.558,0.39
				c-0.334-0.246-0.538-0.665-0.798-1.009C566.428,695.053,566.575,694.95,566.811,694.783z"/>
		</g>
		<g>
			<path fill="#FFFFFF" stroke="#182653" stroke-linecap="round" stroke-linejoin="round" stroke-miterlimit="10" d="
				M532.291,659.043c-0.457-0.029-1.32,0.939-2.934,2.782c-1.47,1.678-3.498,2.65-5.672,1.576c-3.927-1.943-2.563-5.714-2.028-9.191
				c0.178-1.165-0.12-2.636-4.034-0.64c-1.725,0.881-4.125,2.537-5.442,4.832c-0.761,1.322-1.336,1.484-3.014,3.584
				c-1.681,2.098-3.009,5.244-3.009,7.343c0,2.096,0.562,3.287-1.817,4.613c-3.11,1.74-6.815,1.89-11.8,0.631
				c-4.987-1.261-7.924-3.148-11.909-3.984c-3.985-0.837-8.813,0-8.813,0s-0.724-6.194-4.405-9.65
				c-4.615-4.34-11.052-5.598-16.365-0.424c-4.938,4.811-4.772,9.718-3.567,12.731c1.257,3.145,4.404,5.736,8.393,4.688
				c4.697-1.238,4.355-6.348,2.098-8.604c-1.681-1.68-4.547-0.91-4.547-0.91s1.802,0.972,2.52,2.028
				c1.326,1.957,0.025,4.21-2.101,4.126c-1.747-0.069-5.593-3.567-2.589-8.602c2.479-4.146,7.787-5.5,11.544-3.568
				c5.035,2.587,5.453,8.813,5.453,8.813s-1.677,9.234-1.047,12.17c0.628,2.937,1.677,7.345,1.047,13.22
				c-0.63,5.872-1.108,10.687-0.561,15.942c0.704,6.715,5.315,10.61,5.315,10.61s-2.729-7.125-1.395-14.665
				c0.458-2.6,1.408-4.188,2.688-5.431c0.042,2.312,0.252,5.274,0.949,7.775c1.749,6.3,5.529,9.343,5.763,9.394
				c-3.342-6.524-3.86-13.009-3.061-17.692c0.184-1.081,0.427-1.915,0.703-2.588c0.2-0.131,0.407-0.269,0.611-0.411
				c3.675-2.519,3.747-5.866,5.141-6.188c1.935-0.445,5.729-0.286,8.603,0.946c1.639,0.698,5.562,3.67,5.562,3.67
				s-1.619,6.197-1.47,13.635c0.25,12.351,5.35,13.698,5.874,14.271c0,0-2.201-4.512-1.781-12.066
				c0.422-7.551,2.31-11.539,3.775-14.897c1.47-3.354,4.406-4.93,4.406-4.93s0.084,7.602,1.261,14.373
				c1.26,7.273,4.5,11.408,8.81,13.641c4.196,2.166,7.767-0.631,7.767-0.631s-4.088,1.715-8.603-2.8
				c-4.057-4.054-4.564-10.503-3.918-17.062c0.804-8.119,2.309-14.479,3.146-15.947c0.84-1.471,6.505-1.961,9.859-5.734
				c3.358-3.778,4.182-7.821,4.593-12.432c0.205-2.27,0.271-2.638,0.674-4.032C533.408,661.822,533.418,659.119,532.291,659.043z"/>
		</g>
		<path fill="#FFFFFF" stroke="#182653" stroke-linecap="round" stroke-linejoin="round" stroke-miterlimit="10" d="
			M529.114,688.211c0,0-16.845,33.975,1.217,34.975c12.828,0.706,12.145-18.295,12.145-18.295s17.738,37.64-3.024,44.895
			c-9.522,3.326-16.083,1.219-19.963-3.693c-2.775-3.511-1.117-7.761-1.117-7.761s-3.398,6.011,0.145,11.174
			c5.097,7.437,17.646,8.811,25.425,3.558c18.622-12.572-1.099-58.039-1.099-58.039s-3.035,22.782-11.124,20.973
			C521.979,713.812,529.114,688.211,529.114,688.211z"/>
		<g>
			<path fill="#FFFFFF" d="M455.451,730.142h5.144v2.291h-2.355v0.969h2.316v2.174h-2.316v3.298h-2.788V730.142L455.451,730.142z"/>
			<path fill="#FFFFFF" d="M466.525,730.142h2.094l3.312,8.73h-2.749l-0.287-0.785h-2.645l-0.288,0.785h-2.748L466.525,730.142z
				 M468.161,736.162l-0.589-1.531l-0.589,1.531H468.161z"/>
			<path fill="#FFFFFF" d="M475.504,730.142l1.48,3.797l1.49-3.797h3.051l-3.403,8.73h-2.264l-3.403-8.73H475.504z"/>
			<path fill="#FFFFFF" d="M484.145,734.514c0-0.629,0.118-1.223,0.358-1.779c0.24-0.559,0.567-1.047,0.981-1.459
				c0.414-0.416,0.9-0.741,1.459-0.982c0.559-0.24,1.151-0.36,1.779-0.36c0.629,0,1.223,0.12,1.78,0.36
				c0.56,0.241,1.045,0.566,1.46,0.982c0.414,0.412,0.742,0.9,0.981,1.459c0.239,0.558,0.358,1.15,0.358,1.779
				s-0.119,1.222-0.358,1.78c-0.239,0.56-0.567,1.044-0.981,1.459c-0.415,0.414-0.9,0.742-1.46,0.981
				c-0.559,0.239-1.151,0.359-1.78,0.359c-0.628,0-1.222-0.12-1.779-0.359c-0.559-0.239-1.045-0.567-1.459-0.981
				c-0.414-0.415-0.742-0.9-0.981-1.459C484.263,735.734,484.145,735.143,484.145,734.514z M486.893,734.514
				c0,0.253,0.048,0.49,0.144,0.713c0.096,0.224,0.227,0.416,0.394,0.582c0.165,0.167,0.359,0.299,0.581,0.395
				c0.225,0.096,0.461,0.144,0.714,0.144c0.254,0,0.491-0.048,0.715-0.144c0.223-0.096,0.416-0.228,0.582-0.395
				c0.166-0.166,0.297-0.358,0.393-0.582c0.096-0.223,0.145-0.46,0.145-0.713c0-0.254-0.049-0.492-0.145-0.715
				c-0.096-0.222-0.227-0.415-0.393-0.58c-0.166-0.167-0.359-0.297-0.582-0.394c-0.224-0.097-0.461-0.146-0.715-0.146
				c-0.253,0-0.489,0.049-0.714,0.146c-0.222,0.097-0.416,0.227-0.581,0.394c-0.167,0.165-0.298,0.358-0.394,0.58
				C486.939,734.021,486.893,734.26,486.893,734.514z"/>
			<path fill="#FFFFFF" d="M500.216,739.095c-0.549,0-1.047-0.068-1.491-0.21c-0.444-0.139-0.825-0.349-1.139-0.629
				c-0.314-0.278-0.557-0.632-0.728-1.06c-0.171-0.429-0.255-0.929-0.255-1.505v-5.551h2.786v5.434c0,0.305,0.064,0.539,0.19,0.698
				c0.126,0.161,0.339,0.242,0.635,0.242c0.298,0,0.509-0.081,0.637-0.242c0.124-0.159,0.188-0.395,0.188-0.698v-5.434h2.802v5.551
				c0,0.576-0.085,1.076-0.256,1.505c-0.171,0.428-0.414,0.78-0.732,1.06c-0.317,0.28-0.699,0.49-1.146,0.629
				C501.264,739.025,500.766,739.095,500.216,739.095z"/>
			<path fill="#FFFFFF" d="M507.336,730.142h3.011c0.56,0,1.076,0.074,1.552,0.224c0.477,0.147,0.889,0.367,1.237,0.652
				c0.35,0.289,0.621,0.646,0.817,1.067c0.196,0.424,0.295,0.91,0.295,1.459c0,0.438-0.062,0.808-0.184,1.113
				c-0.123,0.306-0.259,0.56-0.407,0.759c-0.173,0.227-0.369,0.419-0.588,0.576l1.636,2.88h-3.271l-1.309-2.212v2.212h-2.789
				V730.142L507.336,730.142z M510.125,734.435h0.143c0.332,0,0.614-0.073,0.847-0.223c0.229-0.147,0.347-0.396,0.347-0.746
				c0-0.348-0.116-0.598-0.347-0.745c-0.231-0.148-0.515-0.223-0.847-0.223h-0.143V734.435z"/>
			<path fill="#FFFFFF" d="M517.585,730.142h2.959v8.73h-2.959V730.142z"/>
			<path fill="#FFFFFF" d="M525.229,732.433h-1.609v-2.291h6.1v2.291h-1.608v6.439h-2.88v-6.439H525.229z"/>
			<path fill="#FFFFFF" d="M532.794,730.142h5.146v2.291h-2.355v0.969h2.316v2.174h-2.316v1.007h2.447v2.291h-5.236L532.794,730.142
				L532.794,730.142z"/>
			<path fill="#FFFFFF" d="M474.319,750.22c0-0.698,0.124-1.328,0.366-1.891c0.245-0.563,0.576-1.045,0.994-1.447
				c0.419-0.401,0.908-0.708,1.467-0.922c0.558-0.214,1.151-0.32,1.778-0.32c0.499,0,0.94,0.048,1.33,0.145
				c0.388,0.096,0.721,0.205,1.001,0.327c0.323,0.139,0.603,0.293,0.838,0.458l-1.375,2.421c-0.14-0.104-0.292-0.203-0.458-0.3
				c-0.147-0.07-0.325-0.139-0.53-0.204c-0.204-0.065-0.438-0.099-0.699-0.099c-0.271,0-0.52,0.048-0.745,0.146
				c-0.229,0.096-0.426,0.227-0.597,0.393c-0.171,0.165-0.303,0.36-0.398,0.582c-0.096,0.224-0.145,0.461-0.145,0.713
				c0,0.253,0.05,0.491,0.15,0.713c0.1,0.224,0.237,0.418,0.412,0.583c0.175,0.166,0.38,0.298,0.615,0.395
				c0.234,0.096,0.494,0.145,0.771,0.145c0.279,0,0.528-0.036,0.747-0.105c0.218-0.068,0.401-0.147,0.549-0.235
				c0.176-0.096,0.328-0.209,0.458-0.34l1.375,2.422c-0.235,0.191-0.516,0.363-0.838,0.51c-0.278,0.123-0.615,0.236-1.008,0.342
				c-0.394,0.104-0.842,0.156-1.348,0.156c-0.681,0-1.311-0.11-1.885-0.334c-0.576-0.223-1.073-0.533-1.492-0.936
				c-0.418-0.401-0.746-0.884-0.981-1.447C474.438,751.521,474.319,750.901,474.319,750.22z"/>
			<path fill="#FFFFFF" d="M488.416,745.848h2.095l3.312,8.732h-2.748l-0.289-0.786h-2.646l-0.287,0.786h-2.748L488.416,745.848z
				 M490.053,751.87l-0.59-1.532l-0.588,1.532H490.053z"/>
			<path fill="#FFFFFF" d="M498.441,748.139h-1.609v-2.291h6.101v2.291h-1.609v6.441h-2.881L498.441,748.139L498.441,748.139z"/>
			<path fill="#FFFFFF" d="M507.081,751.87c0.19,0.06,0.393,0.107,0.602,0.144c0.176,0.044,0.373,0.079,0.597,0.104
				c0.222,0.024,0.447,0.04,0.674,0.04c0.4,0,0.603-0.149,0.603-0.446c0-0.112-0.062-0.228-0.184-0.347
				c-0.122-0.116-0.277-0.248-0.464-0.394c-0.188-0.143-0.389-0.304-0.604-0.478c-0.214-0.174-0.414-0.375-0.601-0.604
				c-0.188-0.226-0.344-0.48-0.465-0.766c-0.122-0.282-0.185-0.608-0.185-0.977c0-0.407,0.074-0.771,0.224-1.086
				c0.147-0.312,0.353-0.574,0.613-0.785c0.265-0.208,0.57-0.367,0.925-0.479c0.354-0.107,0.729-0.162,1.131-0.162
				c0.212,0,0.421,0.01,0.63,0.032c0.208,0.021,0.396,0.041,0.562,0.059c0.192,0.026,0.38,0.054,0.562,0.079v2.448
				c-0.069-0.01-0.147-0.017-0.236-0.027c-0.068-0.008-0.146-0.017-0.233-0.024c-0.088-0.008-0.18-0.015-0.275-0.015
				c-0.054,0-0.118,0.003-0.196,0.009c-0.078,0.003-0.151,0.015-0.223,0.03c-0.07,0.019-0.131,0.05-0.182,0.093
				c-0.055,0.045-0.079,0.104-0.079,0.184c0,0.069,0.059,0.157,0.176,0.261c0.117,0.105,0.262,0.229,0.433,0.367
				c0.171,0.14,0.358,0.302,0.562,0.484c0.204,0.184,0.393,0.393,0.562,0.63c0.17,0.233,0.314,0.5,0.434,0.797
				c0.118,0.297,0.177,0.629,0.177,0.994c0,0.385-0.062,0.744-0.185,1.08c-0.121,0.336-0.312,0.629-0.567,0.877
				c-0.259,0.249-0.588,0.445-0.99,0.589c-0.399,0.146-0.876,0.217-1.426,0.217c-0.331,0-0.64-0.016-0.922-0.046
				c-0.285-0.031-0.535-0.067-0.753-0.111c-0.256-0.044-0.485-0.097-0.694-0.156V751.87L507.081,751.87z"/>
		</g>
	</g>
</g>
<g>
	<g>
		<path fill="none" d="M877.045,623.557c20.289-21.135,31.827-51.641,35.273-93.26c3.319-40.101-1.215-85.803-5.727-125.491
			c-9.777-86.053-33.4-161.556-33.64-162.308l-0.417-1.323v-1.386v-48c0-20.964-7.754-55.93-20.236-91.251
			c-13.252-37.503-26.426-60.584-33.896-67.297c-2.803,0.365-17.789,5.06-63.166,59.458c-25.684,30.787-48.168,62.029-48.394,62.341
			l-3.866,5.383l-6.288-2.096c-0.643-0.214-65.826-21.436-196.234-21.536h-0.398h-0.514c-67.927,0.052-117.671,5.907-147.439,10.809
			c-32.244,5.31-48.643,10.676-48.794,10.727l-6.288,2.096l-3.867-5.383c-0.224-0.312-22.712-31.556-48.394-62.344
			c-45.25-54.247-60.277-59.064-63.167-59.451c-7.472,6.718-20.643,29.797-33.893,67.293c-12.481,35.32-20.235,70.286-20.235,91.251
			v48v1.387l-0.417,1.323c-0.238,0.751-23.852,76.167-33.641,162.306c-4.51,39.688-9.044,85.39-5.723,125.491
			c3.446,41.619,14.984,72.125,35.273,93.26c13.722,14.294,38.114,29.574,69.45,43.966h615.192
			C838.932,653.13,863.323,637.851,877.045,623.557z"/>
		<path fill="#70512F" d="M915.537,403.79c-10-88-33.999-164-33.999-164s0,0,0-48s-36.001-148-58.001-166
			c-1.312-1.073-2.905-1.578-4.748-1.577C789.738,24.221,699.537,149.79,699.537,149.79s-65.701-21.896-199.074-21.998v-0.002
			c-0.155,0-0.308,0.001-0.463,0.001s-0.308-0.001-0.463-0.001v0.002c-133.375,0.102-199.074,21.998-199.074,21.998
			S210.256,24.212,181.21,24.212c-1.84,0-3.437,0.505-4.748,1.577c-22,18-58,118-58,166s0,48,0,48s-24,76-34,164s-16,176,32,226
			c11.732,12.221,30.756,25.158,55.312,37.73h20.631c-31.335-14.391-55.728-29.671-69.45-43.965
			c-20.289-21.135-31.827-51.641-35.273-93.26c-3.321-40.103,1.213-85.803,5.723-125.491
			c9.789-86.139,33.403-161.555,33.641-162.306l0.417-1.323v-1.387v-48c0-20.965,7.754-55.931,20.235-91.251
			c13.25-37.496,26.421-60.575,33.893-67.293c2.89,0.387,17.917,5.204,63.167,59.451c25.682,30.788,48.17,62.032,48.394,62.344
			l3.867,5.383l6.288-2.096c0.153-0.051,16.551-5.417,48.794-10.727c29.77-4.902,79.514-10.757,147.439-10.809h0.514h0.398
			c130.408,0.1,195.593,21.322,196.234,21.536l6.288,2.096l3.866-5.383c0.226-0.312,22.71-31.554,48.394-62.341
			c45.377-54.398,60.363-59.093,63.166-59.458c7.471,6.713,20.645,29.794,33.896,67.297c12.482,35.321,20.236,70.287,20.236,91.251
			v48v1.386l0.417,1.323c0.237,0.752,23.86,76.255,33.64,162.308c4.512,39.688,9.046,85.392,5.727,125.491
			c-3.446,41.619-14.984,72.125-35.273,93.26c-13.722,14.294-38.113,29.573-69.447,43.964h20.626
			c24.558-12.572,43.58-25.511,55.312-37.73C931.538,579.789,925.537,491.789,915.537,403.79z"/>
	</g>
	<g>
		<path fill="#FFFFFF" d="M147.025,776.054c-36.467,0-67.246-18.155-78.413-46.254c-7.826-19.691-5.556-41.817,6.394-62.3
			c11.792-20.212,31.649-36.432,55.914-45.671c13.735-5.23,27.884-7.883,42.052-7.883c36.468,0,67.248,18.155,78.415,46.255
			c7.827,19.691,5.556,41.816-6.394,62.299c-11.792,20.211-31.649,36.431-55.915,45.67
			C175.343,773.4,161.194,776.054,147.025,776.054z"/>
		<path fill="#70512F" d="M172.972,617.894c33.885-0.002,63.681,16.118,74.657,43.738c15.254,38.379-11.615,84.433-60.012,102.86
			c-13.567,5.166-27.393,7.613-40.592,7.613c-33.885,0-63.678-16.115-74.655-43.736c-15.253-38.38,11.615-84.435,60.011-102.862
			C145.949,620.341,159.773,617.894,172.972,617.894 M172.978,610v7.894L172.976,610c-14.677,0.001-29.317,2.743-43.518,8.15
			c-25.123,9.566-45.705,26.397-57.954,47.392c-12.564,21.536-14.925,44.865-6.649,65.688c5.971,15.024,17.099,27.534,32.178,36.177
			C111.409,775.646,128.696,780,147.025,780c14.67,0,29.312-2.742,43.516-8.151c25.124-9.566,45.706-26.396,57.954-47.392
			c12.565-21.535,14.926-44.863,6.65-65.688c-5.971-15.023-17.098-27.533-32.177-36.177C208.592,614.355,191.305,610,172.978,610
			L172.978,610z"/>
	</g>
	<g>
		<path fill="#FFFFFF" d="M852.975,776.054c36.467,0,67.245-18.155,78.413-46.254c7.826-19.691,5.557-41.817-6.394-62.3
			c-11.792-20.212-31.649-36.432-55.914-45.671c-13.735-5.23-27.885-7.883-42.053-7.883c-36.469,0-67.248,18.155-78.415,46.255
			c-7.826,19.691-5.557,41.816,6.394,62.299c11.792,20.211,31.649,36.431,55.915,45.67
			C824.656,773.4,838.806,776.054,852.975,776.054z"/>
		<path fill="#70512F" d="M827.027,617.894c13.198,0,27.022,2.447,40.591,7.613c48.396,18.429,75.265,64.482,60.012,102.862
			c-10.978,27.621-40.771,43.736-74.655,43.736c-13.198,0-27.024-2.447-40.593-7.613c-48.396-18.43-75.266-64.481-60.012-102.86
			C763.347,634.012,793.143,617.892,827.027,617.894 M827.021,610c-18.327,0-35.613,4.355-49.989,12.594
			c-15.079,8.644-26.206,21.152-32.177,36.178c-8.276,20.822-5.915,44.15,6.648,65.687c12.248,20.994,32.83,37.824,57.954,47.392
			c14.203,5.409,28.845,8.151,43.516,8.151c18.329,0,35.616-4.354,49.992-12.593c15.079-8.643,26.207-21.151,32.178-36.178
			c8.276-20.822,5.915-44.151-6.648-65.688c-12.248-20.993-32.83-37.824-57.953-47.392C856.341,612.743,841.7,610.001,827.021,610
			v7.894V610L827.021,610z"/>
	</g>
</g>
</svg>
