<?xml version="1.0" encoding="utf-8"?>
<!-- Generator: Adobe Illustrator 16.0.0, SVG Export Plug-In . SVG Version: 6.00 Build 0)  -->
<!DOCTYPE svg PUBLIC "-//W3C//DTD SVG 1.1//EN" "http://www.w3.org/Graphics/SVG/1.1/DTD/svg11.dtd">
<svg version="1.1" id="Layer_1" xmlns="http://www.w3.org/2000/svg" xmlns:xlink="http://www.w3.org/1999/xlink" x="0px" y="0px"
	 width="1024px" height="1024px" viewBox="0 0 1024 1024" enable-background="new 0 0 1024 1024" xml:space="preserve">
<g>
	<g>
		<path fill-rule="evenodd" clip-rule="evenodd" fill="#8188A1" d="M604.065,14.796c13.569,14.009,35.073,10.229,49.597,22.115
			c-1.129,4.584-4.449,6.653-8.723,7.642c-2.029,0.206-4.051,0.096-6.062-0.249c-5.792-1.433-11.697-2.433-17.467-4.044
			c-9.532-4.326-19.414-3.932-29.418-2.128c-6.714,0.457-13.39,0.37-20.043-0.676c-12.502-3.789-25.563-2.651-38.31-4.375
			c-6.05-1.45-11.653-3.628-14.917-9.466c5.81-7.406,17.821,1.122,22.633-8.819c1.496,0,2.983,0,4.479,0
			c11.942,3.762,23.893,3.762,35.834,0C589.132,14.796,596.604,14.796,604.065,14.796z"/>
		<path fill-rule="evenodd" clip-rule="evenodd" fill="#8289A2" d="M501.042,1009.2c-0.217-6.212-6.851-5.065-9.602-8.372
			c0.824-3.85,3.139-6.51,6.568-8.285c9.16-3.627,18.79-2.385,28.269-2.738c7.908,0.043,15.844,0.314,23.529-2.223
			c4.549-1.01,9.099-1.229,13.639,0.07c4.825,1.775,7.45,5.127,7.41,10.385c-0.41,4.956-4.023,7.891-7.104,11.163
			C542.852,1009.2,521.942,1009.2,501.042,1009.2z"/>
		<path fill-rule="evenodd" clip-rule="evenodd" fill="#6C7592" d="M18.181,574.508c-1.793-1.427-3.589-2.853-5.382-4.278
			c0-1.496,0-2.983,0-4.479c4.101-5.7,13.145-3.989,16.349-10.979c0.991-2.659,1.953-5.315,2.835-7.996
			c2.953-8.495,2.935-16.684-2.38-24.383c-0.729-1.925-0.912-3.894-0.693-5.927c2.032-5.81,4.993-11.24,6.851-17.141
			c2.301-3.834,4.438-8.071,10.061-4.532c7.738,11.817,4.792,24.892,4.525,37.669c-0.457,12.218,0.348,24.453-0.602,36.666
			c-0.431,3.858-1.653,7.393-4.088,10.468C34.811,587.057,26.534,580.588,18.181,574.508z"/>
		<path fill-rule="evenodd" clip-rule="evenodd" fill="#7D849E" d="M998.139,440.288c5.635,6.424,1.312,16.872,9.063,22.438
			c0,10.453,0,20.903,0,31.355c-9.483,6.839-3.613,19.032-9.466,27.139c-2.62,1.062-4.725,0.424-6.334-1.907
			c-3.902-6.771-3.359-14.287-3.648-21.668c-0.104-14.89-0.166-29.793,1.654-44.596C990.09,447.519,989.215,440.406,998.139,440.288
			z"/>
		<path fill-rule="evenodd" clip-rule="evenodd" fill="#9DA2B6" d="M30.351,516.53c0.133,1.47,0.337,2.931,0.61,4.383
			c1.312,1.907,1.529,3.906,0.503,6.019c-5.135,5.18-9.136,13.255-18.665,7.463c0-8.958,0-17.917,0-26.875
			c11.454-10.137-0.243-25.653,8.466-36.429c1.868,1.301,3.25,2.999,4.177,5.072c1.8,5.251,1.794,10.715,1.892,16.158
			C26.471,500.612,29.843,508.396,30.351,516.53z"/>
		<path fill-rule="evenodd" clip-rule="evenodd" fill="#858BA4" d="M12.799,534.395c5.929-3.035,11.856-6.071,17.786-9.111
			c5.295,6.75,8.007,14.028,4.646,22.559c-0.053,3-0.103,6.001-0.153,9.002c-5.229,4.357-10.881,5.118-16.985,2.004
			c-6.078-5.508-0.037-14.234-5.293-19.974C12.799,537.378,12.799,535.891,12.799,534.395z"/>
		<path fill-rule="evenodd" clip-rule="evenodd" fill="#A2A7BA" d="M563.752,1009.2c0.127-3.718,0.857-7.139,4.523-9.099
			c14.895-10.708,31.977-5.734,48.24-6.724c3.332,1.492,5.502,3.938,6.167,7.59c-1.719,1.325-3.442,2.651-5.161,3.972
			c-8.373,5.188-18.617-1.496-26.894,4.261C581.669,1009.2,572.711,1009.2,563.752,1009.2z"/>
		<path fill-rule="evenodd" clip-rule="evenodd" fill="#8E95AB" d="M16.637,556.581c6.146,0.088,12.294,0.175,18.44,0.263
			c-2.848,14.427-14.433,6.986-22.278,8.906c0-2.983,0-5.976,0-8.959C13.967,554.691,15.25,554.713,16.637,556.581z"/>
		<path fill-rule="evenodd" clip-rule="evenodd" fill="#CCCED8" d="M581.669,14.796c-11.941,7.968-23.892,6.68-35.834,0
			C557.777,14.796,569.728,14.796,581.669,14.796z"/>
		<path fill-rule="evenodd" clip-rule="evenodd" fill="#F9FAFB" d="M590.628,1009.2c7.899-8.149,17.795-3.683,26.894-4.261
			c-0.009,1.418-0.014,2.844-0.018,4.261C608.545,1009.2,599.586,1009.2,590.628,1009.2z"/>
		<path fill-rule="evenodd" clip-rule="evenodd" fill="#EEEEF2" d="M16.637,556.581l-1.934-0.157l-1.905,0.367
			c0-5.975,0-11.941,0-17.917C21.488,543.17,16.143,550.51,16.637,556.581z"/>
		<path fill-rule="evenodd" clip-rule="evenodd" fill="#434E73" d="M236.805,105.154c19.687-11.712,39.85-22.348,62.332-27.79
			c10.708,5.683,17.517-7.539,27.46-5.656c4.365,2.1,6.406,5.645,6.546,10.4c-3.464,11.24-13.757,13.407-22.812,17.237
			c-6.008,1.516-12.066,2.878-18.129,4.146c-6.548,1.03-15.251-2.812-17.561,7.848c-1.682,2.638-4.092,4.143-7.126,4.713
			c-10.625-3.992-17.81,6.358-27.44,6.585C235.344,117.481,231.768,112.116,236.805,105.154z"/>
		<path fill-rule="evenodd" clip-rule="evenodd" fill="#7C839D" d="M34.559,394.758c-0.623-11.403,3.731-21.23,9.676-30.555
			c10.203-0.724,10.859,7.649,13.532,14.134c1.634,8.361,1.31,16.793,0.851,25.235c-1.108,8.44-3.28,16.528-8.02,23.757
			c-4.624,4.328-9.671,7.159-16.22,4.379C28.354,419.375,35.086,407.085,34.559,394.758z"/>
		<path fill-rule="evenodd" clip-rule="evenodd" fill="#29355F" d="M330.829,81.986c-1.47-2.977-2.939-5.954-4.409-8.928
			c-1.621-0.94-2.159-1.881-1.621-2.822c0.536-0.938,1.074-1.408,1.621-1.408c1.188-0.943,2.52-1.577,4-1.903
			c8.197,3.232,13.984-0.026,18.442-6.857c13.3-3.274,26.602-6.548,39.905-9.822c0.647,0.812,1.295,1.625,1.946,2.437
			C376.186,84.584,363.778,90.656,330.829,81.986z"/>
		<path fill-rule="evenodd" clip-rule="evenodd" fill="#5E6787" d="M518.723,23.615c4.559,1.56,9.116,3.119,13.674,4.678
			c1.374,6.242-3.372,7.279-7.488,8.875c-2.135,0.527-4.322,0.798-6.518,0.945c-7.546,0.112-15.089,0.311-22.357,2.837
			c-4.392,1.128-8.854,1.726-13.383,1.968c-2.338,0.208-4.668,0.256-7.01,0.258c-15.562-1.778-30.56,7.027-46.27,2.479
			c-2.355-0.93-4.208-2.47-5.575-4.595C454.158,28.267,486.684,27.259,518.723,23.615z"/>
		<path fill-rule="evenodd" clip-rule="evenodd" fill="#495377" d="M178.327,157.811c3.333-5.676,6.518-11.492,13.18-14.044
			c13.187,8.086-0.695,15.05-0.859,22.6c-0.173,0.947-0.42,1.875-0.619,2.815c-0.531,1.861-1.4,3.559-2.509,5.131
			c-2.347,2.99-4.143,6.334-5.962,9.669c-0.956,1.684-2.111,3.21-3.41,4.634c-6.474,7.124-14.015,13.219-19.966,20.863
			c-4.801,5.389-9.331,11.1-16.395,13.794c-3.312,0.63-6.336,0.103-8.906-2.229c3.71-19.079,19.337-30.24,30.004-44.651
			C167.645,169.958,174.628,165.233,178.327,157.811z"/>
		<path fill-rule="evenodd" clip-rule="evenodd" fill="#868DA5" d="M75.728,315.021c3.464-38.218,27.101-66.126,48.625-95.112
			c2.939,2.126,3.911,5.17,4.048,8.613c-0.151,4.422-1.748,8.41-3.745,12.263c-8.493,11.269-15.382,23.554-22.171,35.894
			c-4.674,5.004-7.493,11.017-9.383,17.539c-0.606,1.863-1.396,3.644-2.26,5.397C86.176,305.102,86.622,315.655,75.728,315.021z"/>
		<path fill-rule="evenodd" clip-rule="evenodd" fill="#757D98" d="M125.416,230.857c-0.354-3.648-0.708-7.296-1.063-10.947
			c15.778-22.624,32.245-44.651,53.975-62.098c-10.26,24.258-33.101,39.648-44.484,63.117
			C135.61,228.123,131.601,230.415,125.416,230.857z"/>
		<path fill-rule="evenodd" clip-rule="evenodd" fill="#434E73" d="M187.426,167.08c-7.355-9.298,12.718-13.792,4.081-23.313
			c1.14-1.38,2.279-2.76,3.418-4.141c6.397-2.856,17.482-0.835,14.26-13.702l-0.127,0.162c4.355-1.732,8.716-3.403,13.407-1.111
			c6.441,6.29,2.964,12.642,0.162,19.008c-5.487,8.392-12.834,15.079-20.216,21.747C197.664,168.836,192.878,171.802,187.426,167.08
			z"/>
		<path fill-rule="evenodd" clip-rule="evenodd" fill="#787F9A" d="M22.781,475.954c-0.505-1.621-1.01-3.241-1.516-4.862
			c1.548-6.209-1.026-13.296,3.992-18.766c6.813-0.683,6.26-7.467,9.171-11.327c5.179-6.868,10.166-8.143,16.012-1.039
			c1.385,2.966,1.564,6.037,0.91,9.206C43.651,460.029,45.842,481.483,22.781,475.954z"/>
		<path fill-rule="evenodd" clip-rule="evenodd" fill="#888EA6" d="M47.008,358.926c3.631-10.826,9.729-19.932,18.808-26.959
			c4.965,1.35,7.298,4.915,8.21,9.716c0.216,2.344,0.009,4.643-0.542,6.929c-1.844,5.708-3.471,11.574-9.669,14.358
			C57.421,364.908,51.612,364.407,47.008,358.926z"/>
		<path fill-rule="evenodd" clip-rule="evenodd" fill="#737B97" d="M48.793,440.314c-9.453-4.91-10.842,2.977-12.931,8.615
			c-2.299,6.209-3.836,12.206-10.604,3.398c0.199-5.549,0.4-11.093,0.602-16.64c2.714-2.301,5.343-4.785,9.337-4.317
			c4.51-1.487,9.02-2.975,13.53-4.464C52.496,431.358,52.496,435.826,48.793,440.314z"/>
		<path fill-rule="evenodd" clip-rule="evenodd" fill="#495377" d="M223.326,126.779c-4.755-0.229-9.508-0.459-14.265-0.691
			c8.479-7.996,15.795-17.537,27.744-20.934c1.476,5.711,2.953,11.419,4.429,17.13C236.004,126.729,229.579,126.412,223.326,126.779
			z"/>
		<path fill-rule="evenodd" clip-rule="evenodd" fill="#949AAF" d="M35.197,431.371c-2.098,3.633-5.507,4.427-9.337,4.317
			c1.669-13.904,3.39-27.797,8.701-40.928C39.939,406.873,32.503,419.21,35.197,431.371z"/>
		<path fill-rule="evenodd" clip-rule="evenodd" fill="#29355F" d="M388.767,50.246c4.735-4.749,10.903-4.545,16.911-4.891
			c6.853-2.207,13.851-1.367,20.826-0.989c6.904,5.724,1.314,9.532-2.914,11.041c-11.52,4.116-23.627,8.346-33.708-3.523
			L388.767,50.246z"/>
		<path fill-rule="evenodd" clip-rule="evenodd" fill="#79809B" d="M47.008,358.926c6.441,0.234,12.883,0.47,19.321,0.704
			c5.424,12.917-1.284,17.465-12.867,18.644c-3.078-4.689-6.153-9.381-9.228-14.07C45.158,362.445,46.083,360.685,47.008,358.926z"
			/>
		<path fill-rule="evenodd" clip-rule="evenodd" fill="#4D577A" d="M326.419,68.828c0.087,1.408,0.087,2.819-0.002,4.228
			c-8.967,2.222-16.042,16.447-27.28,4.309C307.426,71.945,316.214,68.122,326.419,68.828z"/>
		<path fill-rule="evenodd" clip-rule="evenodd" fill="#343F67" d="M75.728,315.021c4.403-6.015,8.806-12.029,13.208-18.046
			c3.852,3.434,4,7.841,3.331,12.486c-1.364,5.577-2.99,11.048-7.056,15.402c-3.285,1.815-6.603,1.863-9.954,0.162
			c-1.739-2.045-1.792-4.136-0.167-6.268C75.108,317.479,75.318,316.232,75.728,315.021z"/>
		<path fill-rule="evenodd" clip-rule="evenodd" fill="#4D577A" d="M348.862,60.068c-2.924,10.953-7.165,18.368-18.442,6.859
			C336.565,64.64,342.714,62.354,348.862,60.068z"/>
		<path fill-rule="evenodd" clip-rule="evenodd" fill="#5E6787" d="M75.091,318.757c0.346,1.706,0.691,3.414,1.037,5.12
			c4.031,5.538,4.705,11.276,1.034,17.276c-2.003,2.088-4.134,2.22-6.386,0.396c-1.651-3.193-3.305-6.387-4.96-9.582
			C68.908,327.564,72,323.161,75.091,318.757z"/>
		<path fill-rule="evenodd" clip-rule="evenodd" fill="#495377" d="M209.186,125.924c6.181,15.944-3.81,15.061-14.258,13.702
			C199.68,135.06,204.433,130.49,209.186,125.924z"/>
		<path fill-rule="evenodd" clip-rule="evenodd" fill="#525C7E" d="M429.308,46.016c-7.876-0.219-15.752-0.44-23.63-0.659
			c4.978-5.914,11.694-4.494,18.12-4.297c2.188,0.516,4.375,1.032,6.564,1.548l0.507,2.023L429.308,46.016z"/>
		<path fill-rule="evenodd" clip-rule="evenodd" fill="#3B466D" d="M249.906,938.599c-12.474-2.835-22.303-10.057-31.208-18.81
			c-14.25-14.729-29.529-28.433-43.249-43.69c-7.353-8.18-15.673-15.704-16.342-27.794c1.1-3.141,3.18-5.412,6.133-6.912
			c22.818-1.286,31.897,20.831,49.252,28.861c4.597,3.465,9.455,6.588,14.195,9.869c3.108,2.104,6.364,3.963,9.741,5.625
			c3.521,1.654,7.041,3.303,10.518,5.065c20.643,14.982,47.744,19.545,64.889,40.156c0.809,8.513,9.015,15.8,4.311,25.274
			c-2.531,1.842-5.352,2.293-8.381,1.732c-5.12-5.879-10.64-1.539-16.06-0.607c-3.054-0.787-5.127-2.77-6.77-5.319
			c-5.634-5.113,0.774-17.248-11.012-18.774c-6.047-10.665-10.439-3.578-15.013,1.413
			C257.728,937.365,253.797,937.925,249.906,938.599z"/>
		<path fill-rule="evenodd" clip-rule="evenodd" fill="#434E73" d="M43.819,579.376c0.175-3.022,0.352-6.046,0.529-9.068
			c1.78-1.461,3.718-1.784,5.842-0.813c7.876,5.49,7.648,14.899,11.001,22.589c0.813,1.951,1.458,3.964,2.058,5.984
			c5.4,12.755,2.653,26.867,6.732,39.837c1.404,2.738,2.743,5.507,4,8.315c2.76,7.777,5.792,15.441,9.608,22.79
			c0.934,1.964,1.669,3.98,2.294,6.055c4.864,18.131,7.985,36.665,13.095,54.735c0.918,7.655,5.083,15.24,0.621,23.03
			c-22.014-1.461-20.538-21.797-28.044-34.924c-3.237-8.841-6.476-17.682-9.715-26.526c-3.875-20.576-19.024-37.653-18.58-59.596
			c-0.354-8.162,0.336-16.478-3.963-24.006C36.693,597.652,37.339,588.041,43.819,579.376z"/>
		<path fill-rule="evenodd" clip-rule="evenodd" fill="#838AA3" d="M48.244,633.543c1.474,12.296,1.767,24.553,10.68,35.073
			c5.061,5.976,7.733,14.444,2.92,22.764c-22.442-36.009-36.996-74.967-43.663-116.872c8.547,1.622,17.095,3.245,25.64,4.863
			c-0.111,8.968-0.221,17.931-0.33,26.894C50.258,614.453,42.968,625.092,48.244,633.543z"/>
		<path fill-rule="evenodd" clip-rule="evenodd" fill="#8B92A9" d="M160.195,848.094c13.749,19.764,28.376,38.529,48.122,53.122
			c4.996,3.688,11.106,10.078,10.38,18.573c-32.002-13.779-49.54-42.833-71.249-67.486c1.122-4.051,3.965-6.028,7.966-6.623
			C157.315,845.867,158.91,846.677,160.195,848.094z"/>
		<path fill-rule="evenodd" clip-rule="evenodd" fill="#7D849E" d="M71.557,717.906c8.825,11.924,17.65,23.849,26.476,35.773
			c9.383,4.418,13.508,12.436,15.181,22.15c-0.755,4.27-2.583,7.909-6.255,10.438c-7.734,1.164-8.897-7.562-14.485-9.641
			C80.638,758.784,70.019,740.513,71.557,717.906z"/>
		<path fill-rule="evenodd" clip-rule="evenodd" fill="#79819B" d="M106.844,785.235c1.17-2.987,2.34-5.976,3.513-8.968
			c20.809,7.996,25.721,28.01,34.268,45.301c-0.055,2.401-1.032,4.34-2.907,5.836c-7.99,4.046-12.821-0.924-17.565-6.15
			c-1.332-1.431-2.666-2.861-4-4.296C119.184,804.929,103.994,798.865,106.844,785.235z"/>
		<path fill-rule="evenodd" clip-rule="evenodd" fill="#3F4A70" d="M397.266,987.748c-19.691-2.65-39.209-6.01-57.546-14.164
			c-2.378-3.993-11.57-1.207-9.549-9.588c5.197-4.479,10.785-3.351,15.85-0.267c6.17,3.749,9.029-0.167,12.172-4.222
			c1.918-0.831,3.858-0.958,5.849-0.319c9.358,10.914,26.79,9.729,34.572,23.031C399.254,984.328,398.799,986.174,397.266,987.748z"
			/>
		<path fill-rule="evenodd" clip-rule="evenodd" fill="#838AA3" d="M124.153,821.254c6.189,1.43,12.382,2.86,18.571,4.286
			c9.98,4.068,18.72,8.897,13.788,22.222c-3.02,1.514-6.043,3.027-9.063,4.541C137.305,843.737,129.114,833.711,124.153,821.254z"/>
		<path fill-rule="evenodd" clip-rule="evenodd" fill="#596283" d="M496.49,995.57c-1.682,1.754-3.366,3.508-5.05,5.258
			c-24.356-0.009-48.489-1.829-71.971-8.911c1.348-2.086,3.176-3.582,5.47-4.514c8.125-2.586,16.31-1.956,24.502-0.429
			c11.318,4.076,23.035,1.246,34.557,1.902C489.12,989.166,496.342,985.876,496.49,995.57z"/>
		<path fill-rule="evenodd" clip-rule="evenodd" fill="#3B466D" d="M277.073,933.048c15.859-2.401,9.138,11.907,13.39,18.097
			c-4.602,3.197-9.23,2.555-13.874,0.096c-2.791-1.767-5.58-3.539-8.37-5.311c-2.543-2.502-3.889-5.533-3.99-9.115
			C266.231,927.808,269.628,923.508,277.073,933.048z"/>
		<path fill-rule="evenodd" clip-rule="evenodd" fill="#7F86A0" d="M106.844,785.235c5.549,10.109,19.052,16.876,13.311,31.723
			c-12.242-11.373-19.354-26.272-27.681-40.331C99.88,775.126,102.146,782.208,106.844,785.235z"/>
		<path fill-rule="evenodd" clip-rule="evenodd" fill="#566080" d="M330.645,964.512c3.025,3.027,6.049,6.05,9.075,9.072
			c-14.293-2.274-28.037-6.22-40.738-13.358c2.142-3.578,4.342-7.043,9.446-4.794c2.988,0,5.976,0,8.963,0
			C320.643,960.155,326.338,961.323,330.645,964.512z"/>
		<path fill-rule="evenodd" clip-rule="evenodd" fill="#565F81" d="M268.095,937.588c0.041,2.778,0.083,5.561,0.125,8.342
			c-7.907,2.061-13.499-1.662-18.313-7.331c1.511-4.466,5.188-5.302,9.243-5.503C264.317,930.244,265.61,935.1,268.095,937.588z"/>
		<path fill-rule="evenodd" clip-rule="evenodd" fill="#3F4A70" d="M424.85,990.049c-1.793,0.622-3.587,1.247-5.378,1.868
			c-7.731,0.363-15.343,0.092-22.206-4.169l0.949-1.299C412.193,973.76,418.748,974.647,424.85,990.049z"/>
		<path fill-rule="evenodd" clip-rule="evenodd" fill="#3B466D" d="M308.428,955.432c-3.149,1.601-6.297,3.197-9.446,4.794
			c-1.419,0.166-2.692-0.188-3.818-1.072c-1.63-0.778-2.188-1.588-1.68-2.432c0.514-0.857,1.035-1.286,1.571-1.286
			c5.629-2.113-3.06-11.378,4.91-11.129C305.313,944.478,305.904,951.389,308.428,955.432z"/>
		<path fill-rule="evenodd" clip-rule="evenodd" fill="#5B6585" d="M295.054,955.436c0.107,1.238,0.144,2.476,0.109,3.718
			c-7.098-0.512-13.442-2.786-18.574-7.913c4.626-0.035,9.25-0.069,13.874-0.096C291.994,952.574,293.522,954.005,295.054,955.436z"
			/>
		<path fill-rule="evenodd" clip-rule="evenodd" fill="#777F9A" d="M622.683,1000.968c-1.741-1.697-3.49-3.403-5.231-5.104
			c-1.951-5.438-5.337-10.39-5.503-16.443c1.443-3.054,3.98-4.816,6.973-6.098c20.415-7.31,42.519-8.294,62.605-16.815
			c4.085-1.688,8.171-3.499,12.694-1.548c3.613,5.157,1.959,10.41,0.323,15.678c-1.851,7.979-9.063,11.259-14.312,16.264
			c-3.01,1.29-6.011,2.58-9.021,3.866c-9.124-6.408-15.625-0.228-22.392,4.663C640.11,997.275,631.396,999.122,622.683,1000.968z"/>
		<path fill-rule="evenodd" clip-rule="evenodd" fill="#333F67" d="M993.996,520.572c1.251,0.192,2.498,0.411,3.74,0.647
			c4.104,58.191-4.891,114.017-30.17,166.893c-3.141-1.978-4.431-5.034-5.018-8.513c0.398-14.308,5.67-27.829,6.877-42.023
			c14.461-26.894,13.573-56.748,16.316-85.868C986.77,540.799,985.34,529.391,993.996,520.572z"/>
		<path fill-rule="evenodd" clip-rule="evenodd" fill="#7C839D" d="M689.199,968.926c1.504-4.068,3.014-8.137,4.522-12.2
			c5.687-9.09,15.292-10.371,24.549-12.353c10.192,4.383,16.661-1.881,23.145-8.154c1.911-0.953,3.928-1.438,6.058-1.521
			c4.585,0.428,8.015,2.712,10.517,6.491c1.378,3.285,0.743,6.202-1.653,8.783c-7.205,4.996-14.414,9.987-21.618,14.978
			c-5.026,2.196-10.214,4.095-14.388,7.848c-4.553,1.602-9.103,3.193-13.66,4.795C697.991,980.465,694.256,973.357,689.199,968.926z
			"/>
		<path fill-rule="evenodd" clip-rule="evenodd" fill="#2C3862" d="M966.749,677.671c0.275,3.482,0.546,6.964,0.817,10.441
			c-10.782,34.041-28.013,64.604-49.924,92.648c-1.828,1.465-3.691,1.447-5.6,0.161c-2.095-28.992,14.769-48.931,32.654-68.388
			c5.805-6.098,5.967-14.3,8.071-21.775C956.92,685.868,957.072,676.656,966.749,677.671z"/>
		<path fill-rule="evenodd" clip-rule="evenodd" fill="#2A3660" d="M854.924,856.926c-12.423,13.188-24.846,26.382-37.27,39.57
			c-6.373,6.023-14.562,9.934-19.92,17.169c-3.456,2.743-7.227,4.374-11.75,3.403c-4.741-2.1-5.782-5.932-4.986-10.621
			c14.483-19.701,37.033-30.121,54.271-46.801c6.863-6.636,8.324-22.737,24.199-16.977
			C862.824,848.978,858.484,852.827,854.924,856.926z"/>
		<path fill-rule="evenodd" clip-rule="evenodd" fill="#888EA6" d="M908.518,798.577c-7.117,15.782-19.771,27.19-31.263,39.518
			c-3.845-3.43-4.388-7.839-3.749-12.603c5.188-12.873,11.094-25.161,25.634-30.091C902.73,795.078,905.902,796.005,908.518,798.577
			z"/>
		<path fill-rule="evenodd" clip-rule="evenodd" fill="#7D849E" d="M787.595,915.057c2.804-1.57,5.607-3.137,8.411-4.707
			c3.382-2.183,6.697-2.581,9.882,0.385c-10.394,9.287-20.782,18.573-31.171,27.86c-2.966-0.954-5.145-2.791-6.378-5.691
			c-0.63-4.3,1.343-7.629,3.993-10.717C776.055,916.911,782.704,917.873,787.595,915.057z"/>
		<path fill-rule="evenodd" clip-rule="evenodd" fill="#838AA3" d="M877.351,825.725c-0.03,4.124-0.065,8.249-0.096,12.37
			c-6.807,7.034-10.346,17.935-22.331,18.831c1.54-4.475,3.08-8.954,4.619-13.429C858.852,830.934,864.889,825.111,877.351,825.725z
			"/>
		<path fill-rule="evenodd" clip-rule="evenodd" fill="#878EA6" d="M689.199,968.926c7.646-0.787,11.508,6.062,17.475,8.666
			c-7.729,6.185-16.181,10.332-26.442,9.309C683.219,980.907,686.207,974.914,689.199,968.926z"/>
		<path fill-rule="evenodd" clip-rule="evenodd" fill="#7D859E" d="M769.546,932.903c1.724,1.895,3.447,3.788,5.166,5.687
			c-6.124,3.797-12.248,7.594-18.376,11.391c-0.079-2.834-0.166-5.669-0.245-8.499C753.623,927.711,760.929,929.277,769.546,932.903
			z"/>
		<path fill-rule="evenodd" clip-rule="evenodd" fill="#858CA4" d="M648.819,995.43c5.568-10.656,10.616-23.831,22.392-4.663
			C663.836,992.748,656.881,996.742,648.819,995.43z"/>
		<path fill-rule="evenodd" clip-rule="evenodd" fill="#777F9A" d="M805.888,910.734c-3.289-0.127-6.583-0.254-9.877-0.381
			c5.039-8.018,11.521-13.787,21.644-13.857C815.678,902.852,810.857,906.854,805.888,910.734z"/>
		<path fill-rule="evenodd" clip-rule="evenodd" fill="#3C476E" d="M908.518,798.577c-3.018-0.18-6.036-0.358-9.055-0.542
			c-4.033-12.467,5.284-14.536,13.569-17.401c1.535,0.039,3.071,0.083,4.61,0.127C918.05,788.464,911.855,792.785,908.518,798.577z"
			/>
		<path fill-rule="evenodd" clip-rule="evenodd" fill="#9EA4B7" d="M720.33,972.797c1.081-9.418,7.966-8.197,14.383-7.848
			C731.385,970.247,726.91,973.453,720.33,972.797z"/>
		<path fill-rule="evenodd" clip-rule="evenodd" fill="#3C476E" d="M702.348,59.697c22.957,6.458,42.068,19.133,58.459,36.193
			c4.522,5.614,12.187,4.864,17.593,8.681l0.132,0.136c1.671,8.156,9.584,9.438,14.93,13.567c0.428,4.803-1.947,7.905-6.016,9.998
			c-14.482-0.306-24.811-10.212-36.954-15.94c-7.567-6.732-16.193-11.31-26.342-12.769c-7.756-2.169-15.337-4.786-22.388-8.736
			c-4.34-2.482-9.151-3.379-14.028-4.07c-3.031-0.527-5.857-1.557-8.399-3.307c-10.787-5.7-17.693-22.261-34.115-12.097
			c-2.082-0.162-3.972-0.879-5.695-2.045c-4.688-9.484,12.061-14.451,5.162-24.422c13.149-5.997,23.797,6.325,36.312,4.943
			l-0.075-0.146C682.375,65.193,696.102,54.443,702.348,59.697z"/>
		<path fill-rule="evenodd" clip-rule="evenodd" fill="#7A829C" d="M957.283,283.69c5.524,9.969,12.843,19.114,14.181,30.997
			c-1.216,13.792,12.038,25.53,5.696,40.055c-8.207,3.782-11.12-3.171-13.163-7.939c-10.039-23.418-25.677-43.341-39.172-64.598
			c-0.783-1.999-1.216-4.088-1.364-6.229c0.052-4.354,1.863-8.095,4.143-11.666c2.227-3.375,4.413-6.826,8.314-8.593
			c3.027,2.977,6.059,5.951,9.086,8.928C948.757,271.212,949.051,280.013,957.283,283.69z"/>
		<path fill-rule="evenodd" clip-rule="evenodd" fill="#888FA6" d="M851.18,161.065c15.668,8.099,28.17,19.956,39.421,33.289
			c2.401,7.491,4.646,15.106,13.587,17.525v-0.002c1.618,6.472,0.813,12.501-3.259,17.945c-4.366,2.636-8.04,0.578-11.692-1.693
			c-12.939-11.31-21.867-26.034-32.957-38.931c-3.009-4.952-6.85-9.311-10.283-13.98c-1.028-1.706-1.627-3.55-1.798-5.533
			C844.871,165.474,846.963,162.403,851.18,161.065z"/>
		<path fill-rule="evenodd" clip-rule="evenodd" fill="#39446B" d="M998.139,440.288c-7.349,19.015-1.701,39.146-5.021,58.506
			c-2.594,1.035-4.663,0.389-6.221-1.922c-6.911-15.851-1.142-33.361-6.504-49.412c-0.695-3.373-1.028-6.793-1.168-10.223
			c1.916-19.801-5.407-38.429-7.511-57.737c0.429-2.189,1.312-4.191,2.55-6.039c1.771-1.411,3.793-1.971,6.041-1.695
			c10.135,6.756,7.948,19.277,13.215,28.317C995.803,413.401,992.75,427.329,998.139,440.288z"/>
		<path fill-rule="evenodd" clip-rule="evenodd" fill="#838BA3" d="M851.18,161.065c-1.667,3.346-3.334,6.695-5.004,10.041
			c-1.934,2.704-4.664,3.259-7.743,2.894c-1.89-0.595-3.583-1.54-5.083-2.834c-3.421-3.418-5.835-7.664-9.143-11.191
			c-5.393-5.582-12.405-9.845-14.741-17.939c-1.399-4.827-3.617-9.693,0.351-14.385C825.021,137.034,839.071,147.848,851.18,161.065
			z"/>
		<path fill-rule="evenodd" clip-rule="evenodd" fill="#838AA3" d="M979.802,373.466c-1.339-0.013-2.669-0.094-3.998-0.247
			c-4.987-5.317-4.961-10.879-0.813-16.644c2.878-14.302-10.24-27.261-3.526-41.886c10.91,17.97,16.636,37.519,17.782,58.458
			C986.184,375.795,983.03,375.721,979.802,373.466z"/>
		<path fill-rule="evenodd" clip-rule="evenodd" fill="#8B92A9" d="M899.655,229.947c-0.616-6.557,1.427-12.447,4.532-18.07
			c4.628,5.577,9.252,11.156,13.879,16.736c1.536,6.516,7.765,10.201,9.896,16.371c-2.655,6.841-8.079,6.67-13.911,5.544
			C905.998,245.953,898.098,241.248,899.655,229.947z"/>
		<path fill-rule="evenodd" clip-rule="evenodd" fill="#596283" d="M809.816,127.649c1.352,4.414,2.698,8.825,4.05,13.239
			c-13.805,4.683-23.004,0.893-26.07-14.173c1.299-2.878,2.599-5.759,3.901-8.637c-1.399-0.92-1.811-1.741-1.242-2.465
			c0.525-0.667,1.055-1.004,1.592-1.004C797.971,118.956,803.893,123.304,809.816,127.649z"/>
		<path fill-rule="evenodd" clip-rule="evenodd" fill="#717995" d="M913.916,247.453c4.75,0.077,9.715,0.838,12.922-4.033
			c1.233-1.981,2.484-1.995,3.753-0.037c1.776,4.112,3.552,8.224,5.327,12.333c-0.463,4.149-1.242,8.125-5.599,10.125
			C915.01,268.498,912.621,259.618,913.916,247.453z"/>
		<path fill-rule="evenodd" clip-rule="evenodd" fill="#4B5578" d="M702.348,59.697c-7.349-1.328-10.092,11.649-19.535,5.647
			c-7.988-5.083-1.418-10.48-1.891-15.66C689.348,50.272,696.7,53.161,702.348,59.697z"/>
		<path fill-rule="evenodd" clip-rule="evenodd" fill="#4B5578" d="M680.997,49.828c-12.887,5.566-24.12-5.372-36.618-3.672
			c-1.093-0.941-1.469-1.892-1.128-2.859c0.341-0.971,0.69-1.457,1.05-1.457c3.123-1.643,6.237-3.288,9.361-4.93
			C662.646,41.48,673.39,42.335,680.997,49.828z"/>
		<path fill-rule="evenodd" clip-rule="evenodd" fill="#767D99" d="M979.802,373.466c3.149-0.107,6.299-0.214,9.444-0.319
			c0.778,9.081,7.318,17.25,4.273,26.938C984.334,393.588,985.721,381.644,979.802,373.466z"/>
		<path fill-rule="evenodd" clip-rule="evenodd" fill="#8B92A9" d="M904.188,211.879c-14.602,1.971-19.369-3.689-13.587-17.525
			C895.133,200.195,899.66,206.037,904.188,211.879z"/>
		<path fill-rule="evenodd" clip-rule="evenodd" fill="#8C92A9" d="M957.283,283.69c-20.411,4.18-7.35-13.232-12.283-19.042
			C950.896,269.832,954.475,276.514,957.283,283.69z"/>
		<path fill-rule="evenodd" clip-rule="evenodd" fill="#485377" d="M792.047,114.609c-0.122,1.153-0.235,2.31-0.35,3.467
			c-7.567-1.325-18.937,1.085-13.166-13.37C783.036,108.007,787.542,111.307,792.047,114.609z"/>
		<path fill-rule="evenodd" clip-rule="evenodd" fill="#485377" d="M778.399,104.57c-6.771-1.056-15.931,2.728-17.593-8.681
			C768.868,94.333,774.262,98.175,778.399,104.57z"/>
		<path fill-rule="evenodd" clip-rule="evenodd" fill="#8C93A9" d="M930.591,243.383c-1.251,0.013-2.502,0.024-3.753,0.035
			c-6.448-2.844-9.594-7.646-8.775-14.803C923.329,232.613,928.684,236.537,930.591,243.383z"/>
		<path fill-rule="evenodd" clip-rule="evenodd" fill="#3B476D" d="M572.99,33.501c7.323-0.17,14.654-0.343,21.981-0.514
			c8.7,4.109,18.604-0.665,27.27,3.691c5.988,1.719,13.018-0.597,18.104,4.648c-0.445,8.935-1.26,17.736-8.757,24.113
			c-7.742,3.625-14.847,0.127-22.091-1.929c-7.698-2.867-15.437-5.643-23.472-7.5c-3.001-0.759-5.818-1.927-8.347-3.745
			c-3.954-3.593-5.537-8.359-6.596-13.39C570.869,36.791,571.477,34.982,572.99,33.501z"/>
		<path fill-rule="evenodd" clip-rule="evenodd" fill="#525C7E" d="M572.99,33.501c-0.166,1.212-0.275,2.428-0.328,3.648
			c-0.127,3.915-0.888,7.581-4.016,10.343c-2.672,1.505-5.516,1.802-8.49,1.225c-1.898-0.582-3.691-1.4-5.415-2.362
			c-7.463-4.727-15.861-0.63-23.665-2.489c-6.002-1.429-12.205-2.168-8.045-10.877c3.749-0.321,7.283-1.063,9.365-4.696
			C546.059,29.028,560.375,24.606,572.99,33.501z"/>
		<path fill-rule="evenodd" clip-rule="evenodd" fill="#354068" d="M630.933,64.191c2.004-8.086,2.835-16.653,9.413-22.862
			c1.348-0.059,2.669,0.111,3.955,0.509c0.021,1.441,0.044,2.88,0.078,4.318c13.5,10.419-2.79,14.903-4.443,22.304
			C635.08,70.947,630.977,71.851,630.933,64.191z"/>
		<path fill-rule="evenodd" clip-rule="evenodd" fill="#5E6787" d="M622.241,36.679c-9.178-0.592-19.063,4.055-27.27-3.694
			C604.564,30.498,613.974,29.372,622.241,36.679z"/>
		<path fill-rule="evenodd" clip-rule="evenodd" fill="#78809B" d="M612.5,982.097c7.375,2.528,8.704,7.235,4.951,13.762
			c-16.019,5.73-32.816,2.484-49.176,4.247c-0.171-3.688-1.05-7.003-4.654-8.889c-1.396-2.322-1.09-4.387,0.91-6.215
			c7.266-4.479,15.8-4.664,23.699-7.052C596.77,976.69,605.365,975.203,612.5,982.097z"/>
		<path fill-rule="evenodd" clip-rule="evenodd" fill="#485377" d="M563.918,986.961c-0.053,1.422-0.152,2.844-0.297,4.256
			c-4.305,0.145-8.604,0.294-12.904,0.442c-7.052,4.453-15.87-1.142-22.804,3.998c-10.477-0.026-20.946-0.053-31.42-0.083
			c-14.56-5.727-30.646,5.122-44.878-4.146c1.971-3.941,5.549-6.016,9.226-8.001c4.862-2.31,9.859-3.919,15.354-2.87
			c16.148,2.826,32.331-0.362,48.505,0.25c3.548-0.092,7.077-0.109,10.63-0.141C545.253,981.029,555.747,978.764,563.918,986.961z"
			/>
		<path fill-rule="evenodd" clip-rule="evenodd" fill="#596283" d="M527.913,995.657c6.57-7.191,15.044-3.552,22.799-4.003
			C544.011,998.098,535.616,994.892,527.913,995.657z"/>
		<path fill-rule="evenodd" clip-rule="evenodd" fill="#212E5A" d="M57.526,592.722c-6.944-5.927-3.313-16.036-8.906-22.497
			c-5.75-13.022,1.435-27.422-4.317-40.44c0.039-11.915,0.081-23.831,0.122-35.749c-9.079-10.345-2.917-20.089,1.14-29.9
			c1.247-1.916,2.983-3.272,5.122-4.062c14.676,6.303,24.954,15.225,19.755,33.304c18.737,7.187,12.987,24.93,10.015,35.218
			c-3.224,11.163-4.713,19.352,0.402,29.604c3.856,7.734,1.306,15.779-2.679,23.149c-0.84,1.859-2.183,3.272-3.963,4.261
			C64.3,577.709,63.95,592.354,57.526,592.722z"/>
		<path fill-rule="evenodd" clip-rule="evenodd" fill="#757D98" d="M48.832,462.778c-1.472,10.42-2.941,20.84-4.409,31.257
			c-3.801,1.857-4.681,5.282-4.857,9.081c-10.389,6.017-13.237-2.117-16.78-8.941c-0.006-6.074-0.013-12.145-0.011-18.219
			c17.082-0.7,16.115-18.687,25.574-26.683C52.599,453.627,52.122,458.153,48.832,462.778z"/>
		<path fill-rule="evenodd" clip-rule="evenodd" fill="#7E859E" d="M22.785,494.175c5.457,3.235,9.392,9.331,16.78,8.939
			c0.063,6.623-3.054,11.062-9.213,13.416C20.178,511.666,21.683,502.852,22.785,494.175z"/>
		<path fill-rule="evenodd" clip-rule="evenodd" fill="#757D98" d="M35.23,547.842c-1.549-7.52-3.095-15.039-4.644-22.555
			c0.105-1.461,0.228-2.922,0.372-4.374C46.203,527.697,40.123,537.859,35.23,547.842z"/>
		<path fill-rule="evenodd" clip-rule="evenodd" fill="#4E587B" d="M44.303,529.784c8.438,12.733,2.563,26.994,4.317,40.44
			c-1.426,0-2.85,0.031-4.274,0.083C44.333,556.8,44.318,543.292,44.303,529.784z"/>
		<path fill-rule="evenodd" clip-rule="evenodd" fill="#1F2C58" d="M989.276,498.584c1.286,0.031,2.567,0.101,3.845,0.208
			c0.289,7.262,0.582,14.522,0.875,21.78c-4.431,34.933-3.924,70.374-12.213,105.019c-1.851,7.733-6.041,8.714-10.336,11.862
			c-1.439,1.562-3.22,2.389-5.346,2.477c-2.057-0.377-3.811-1.309-5.223-2.865c-1.409-2.844-1.554-5.857-1.217-8.928
			c-1.723-27.979,2.988-54.985,12.396-81.284c5.381-6.185,7.743-13.228,5.958-21.434c0.219-8.206,4.296-15.166,7.209-22.517
			C986.228,501.137,987.57,499.691,989.276,498.584z"/>
		<path fill-rule="evenodd" clip-rule="evenodd" fill="#1E2A57" d="M200.77,162.386c4.558-7.393,10.468-13.414,18.029-17.76
			c14.98-12.742,30.329-24.905,49.412-31.139c1.52-1.472,3.04-2.941,4.56-4.411c3.95-6.142,9.995-7.211,16.62-6.879
			c11.133-3.497,21.601-5.461,23.053,11.061c0.626,7.119,5.483,9.436,11.457,10.724c6.736,2.892,10.629,7.489,9.19,15.284
			c-1.253,3.188-3.501,5.411-6.599,6.797c-22.938-1.452-38.325,11.039-51.317,27.937c-4.661,4.827-9.735,8.996-16.498,10.514
			c-12.314,1.393-21.46-3.451-27.663-14.04c-2.247-3.683-6.68-8.91-9.317-4.7c-3.388,5.409,1.181,11.542,6.798,15.265
			c11.848,8.58,2.915,16.904-0.617,24.946c-4.827,10.991-11.445,4.375-19.312,2.916c-28.19-5.231-28.361-4.322-25.283-28.685
			c0.4-3.37,1.959-6.144,4.271-8.541l0.046-0.04C191.724,168.175,200.321,171.08,200.77,162.386z"/>
		<path fill-rule="evenodd" clip-rule="evenodd" fill="#1E2B57" d="M389.882,51.884c13.84,2.734,27.814,6.362,39.428-5.866
			c-0.002-0.002-0.072,0.015-0.072,0.015c7.854-3.766,14.713,0.35,21.791,2.73c6.189,19.419-18.07,16.41-22.434,29.791
			c-1.984,6.078-6.546,14.239-3.368,17.55c14.778,15.389-3.331,17.902-9.182,21.672c-8.95,5.77-19.254,3.393-22.834-8.604
			c-1.697-5.685-5.238-10.702-5.768-16.012c-0.582,6.575-1.069,13.967-9.661,16.889c-3.711-0.275-7.957-1.249-10.198-3.456
			c-6.562-6.463-9.794-3.657-12.543,3.121c-3.952,3.672-8.705,5.507-13.987,6.146c-16.183,1.687-31.598,2.087-32.622-20.437
			c7.465-4.479,14.932-8.958,22.396-13.438c7.423-6.437,15.33-0.586,22.98-0.754C373.677,80.798,375.952,59.27,389.882,51.884z"/>
		<path fill-rule="evenodd" clip-rule="evenodd" fill="#344068" d="M268.21,113.487c-15.146,12.482-29.855,25.66-49.412,31.141
			c1.509-5.952,3.018-11.9,4.527-17.85c3.652-10.73,11.577-4.44,17.908-4.495C246.859,109.026,255.505,105.032,268.21,113.487z"/>
		<path fill-rule="evenodd" clip-rule="evenodd" fill="#1F2C58" d="M308.432,95.424c5.188,15.19,18.048,16.95,31.36,17.921
			c1.277,13.994,0.623,14.483-17.926,13.434c-9.936,3.316-18.436,4.606-14.901-10.737c4.035-17.521-7.651-12.705-16.638-11.74
			c-1.35-1.013-1.787-2.01-1.317-2.995c0.466-0.973,0.927-1.461,1.389-1.461C296.031,96.826,301.879,94.691,308.432,95.424z"/>
		<path fill-rule="evenodd" clip-rule="evenodd" fill="#3C476D" d="M290.399,99.846c0.055,1.485,0.03,2.972-0.07,4.456
			c-5.855,1.59-11.708,3.18-17.561,4.772C267.583,84.869,284.045,102.007,290.399,99.846z"/>
		<path fill-rule="evenodd" clip-rule="evenodd" fill="#303C65" d="M48.832,462.778c-0.16-4.503-0.319-9.004-0.481-13.505
			c0.144-2.986,0.291-5.973,0.439-8.958c-0.02-4.469-0.042-8.939-0.063-13.407c1.428-7.472,2.854-14.945,4.28-22.418
			c3.926-2.338,1.098-12.668,10.339-8.722c1.384,1.78,2.323,3.772,2.919,5.942c1.113,21.526-3.265,41.866-13.221,60.997
			C51.641,462.713,50.236,462.737,48.832,462.778z"/>
		<path fill-rule="evenodd" clip-rule="evenodd" fill="#414C72" d="M62.071,395.537c-3.02,2.983-6.041,5.969-9.061,8.952
			c0.148-8.742,0.297-17.484,0.448-26.222c6.94-4.381,12.727-9.562,12.874-18.637c1.111-4.639-0.608-10.159,4.25-13.628
			c12.345,2.188,4.239,11.465,6.072,17.32c-0.243,4.232-0.803,8.427-1.91,12.53c-1.518,4.921-3.11,9.829-5.391,14.485
			C67.677,393.115,65.343,394.99,62.071,395.537z"/>
		<path fill-rule="evenodd" clip-rule="evenodd" fill="#1E2B57" d="M478.77,37.93c1.465-0.201,2.933-0.225,4.403-0.068
			c5.702,3.084,10.844,6.056,18.118,2.55c7.806-3.762,15.516-0.407,22.31,4.438c9.392,18.398-0.543,31.847-13.11,42.643
			c-10.439,8.961-20.364,6.651-24.54-8.528c-8,4.453-1.151,20.404-14.341,20.748c-5.145,0.133-4.624-6.284-5.492-11.5
			c-2.008,9.634,0.416,18.65-5.065,26.204c-4.226,2.33-8.19,1.157-12.108-0.842c-17.852-9.521-21.32-23.521-9.378-39.509
			c6.555-8.777,12.891-17.828,21.493-24.866C466.15,44.181,473.219,42.256,478.77,37.93z"/>
		<path fill-rule="evenodd" clip-rule="evenodd" fill="#29355F" d="M523.438,46.188c-8.818,1.098-17.22-5.511-27.016,2.59
			c-6.831,5.647-9.455-6.106-13.252-10.923c4.468-0.251,8.935-0.509,13.402-0.768c6.942-4.934,15.803,0.772,22.758-4.099
			c1.237,0.022,2.472,0.02,3.705-0.004c4.243,11.563,16.285,7.714,20.664,5.391c11.233-5.96,11.496,3.276,15.494,7.824
			c-9.501,7.159-19.93,7.865-30.957,4.453C526.435,49.389,524.838,47.895,523.438,46.188z"/>
		<path fill-rule="evenodd" clip-rule="evenodd" fill="#29355F" d="M478.77,37.93c-0.741,8.274-8.036,9.556-13.571,12.711
			c-4.479,3.121-8.957,3.985-13.429-0.011c-7.511-1.531-15.019-3.064-22.53-4.598c0.114-1.229,0.483-2.375,1.116-3.432
			C446.643,42.541,462.213,35.139,478.77,37.93z"/>
		<path fill-rule="evenodd" clip-rule="evenodd" fill="#525C7E" d="M519.331,32.989c-6.565,7.041-15.032,3.513-22.76,4.099
			C503.113,29.914,511.623,33.676,519.331,32.989z"/>
		<path fill-rule="evenodd" clip-rule="evenodd" fill="#1C2956" d="M187.493,180.561c-2.11,21.677-2.141,21.502,21.983,17.312
			c8.875-1.544,1.581,11.342,9.387,11.286c9.331-17.631,9.331-17.631,4.458-24.15c-3.76-9.344-2.31-16.087,8.958-17.92
			c7.283,7.837,15.023,14.757,26.88,13.442c-7.605,19.024-19.212,34.605-38.035,43.868c-1.238,0.61-4.073,0.47-4.046,0.87
			c1.487,21.399-21.233,26.23-28.346,41.659c-6.717,7.928-12.744,17.434-25.13,15.835c-9.702-1.251-1.001,3.248-0.943,3.661
			c1.306,9.21-2.355,18.127-9.422,21.364c-18.525,8.479-28.851,24.531-41.016,39.1c-2.004,0.741-4.029,0.755-6.072,0.168
			c-6.745-6.17-14.424-11.732-14.934-22.121c-0.807-4.821-2.329-9.552-2.169-14.527c-0.037-4.477-0.074-8.954-0.112-13.434
			l-0.004,0.011c4.164-6.837,4.903-15.106,9.157-21.906c5.772-13.261,12.434-25.955,22.946-36.213
			c9.742-3.044,17.077-8.935,21.561-18.206c2.97-5.842,7.403-10.264,13.09-13.468c11.671-3.259,17.215-12.777,22.764-22.29
			l-0.026,0.051C181.028,182.626,182.364,177.676,187.493,180.561z"/>
		<path fill-rule="evenodd" clip-rule="evenodd" fill="#25315D" d="M142.596,220.66c1.548,16.415-2.662,26.012-21.561,18.206
			c1.458-2.673,2.916-5.348,4.376-8.016c2.812-3.303,5.621-6.614,8.432-9.923C136.76,220.84,139.678,220.75,142.596,220.66z"/>
		<path fill-rule="evenodd" clip-rule="evenodd" fill="#25315D" d="M178.45,184.902c-0.637,14.523-8.655,21.513-22.76,22.292
			C160.937,197.376,168.01,189.419,178.45,184.902z"/>
		<path fill-rule="evenodd" clip-rule="evenodd" fill="#25315D" d="M200.77,162.386c5.938,17.797-6.369,9.604-13.173,9.25
			c-0.055-1.518-0.114-3.038-0.17-4.556C191.872,165.516,196.321,163.95,200.77,162.386z"/>
		<path fill-rule="evenodd" clip-rule="evenodd" fill="#25315D" d="M187.493,180.561c-3.022,1.463-6.045,2.929-9.07,4.392
			c0.107-6.443-0.046-13.068,9.127-13.278C187.533,174.636,187.513,177.598,187.493,180.561z"/>
		<path fill-rule="evenodd" clip-rule="evenodd" fill="#343F67" d="M98.089,275.079c0.107,8.622-2.041,16.303-9.157,21.906
			C88.981,288.43,89.841,280.21,98.089,275.079z"/>
		<path fill-rule="evenodd" clip-rule="evenodd" fill="#3F4A70" d="M71.095,364.321c-2.333-6.045,4.934-12.357-0.512-18.317
			c-0.015-1.489,0.05-2.972,0.195-4.453c1.443,0.063,2.889,0.114,4.334,0.149c1.96-1.756,3.965-1.811,6.023-0.164
			c2.929,4.042,3.078,8.471,1.857,13.105C80.489,359.646,78.687,365.558,71.095,364.321z"/>
		<path fill-rule="evenodd" clip-rule="evenodd" fill="#2C3862" d="M89.047,310.408c2.942,4.468,5.886,8.937,8.828,13.405
			c-4.234,2.486-7.75,6.828-13.559,5.269c-1.032-1.179-1.36-2.347-0.984-3.499c0.374-1.146,0.737-1.72,1.094-1.72
			C84.599,318.91,83.697,313.586,89.047,310.408z"/>
		<path fill-rule="evenodd" clip-rule="evenodd" fill="#333F67" d="M84.426,323.863c0.022,1.505,0.046,3.008,0.068,4.513
			c2.778,5.92,0.107,10.006-4.53,13.424c-1.614-0.033-3.228-0.065-4.847-0.101c0.331-5.94,0.665-11.883,1.006-17.823
			C78.895,323.872,81.659,323.868,84.426,323.863z"/>
		<path fill-rule="evenodd" clip-rule="evenodd" fill="#1F2C58" d="M312.89,933.131c-20.563-16.583-47.522-22.475-67.343-40.301
			c0.857-14.754,17.629-17.344,22.313-29.198c8.403-0.053,12.819,6.325,18.187,11.172c8.694,10.849,31.309,10.161,26.869,32.134
			c-0.072,0.358,1.828-0.884,2.384-1.566c9.554-11.688,21.362-3.132,23.879,2.865c6.806,16.203,16.833,14.449,29.369,10.717
			c1.804-0.537,3.628,2.043,4.508,4.17c5.295,7.174-15.045,12.646-0.593,21.552c15.557,9.584,27.674,5.782,39.833-4.947
			c4.956,0.499,8.596,3.114,11.504,6.99c5.835,10.603,8.292,20.777-3.751,29.071c-21.85,4.042-40.09-5.048-57.826-15.966
			l0.028-0.044C341.898,958.117,323.377,953.061,312.89,933.131z"/>
		<path fill-rule="evenodd" clip-rule="evenodd" fill="#1B2856" d="M268.123,865.858c-0.908,14.527-12.452,20.152-22.574,26.968
			c-3.635-0.148-6.912-1.016-8.854-4.492c-2.159-2.563-2.397-6.426-5.632-8.264c-3.412-1.391-6.909-2.581-9.728-5.109
			c-3.854-15.292-5.361-31.058-24.03-38.275c-6.91-2.677-10.855-13.267-12.876-22.081c0.081-10.341,2.062-19.851,11.467-26.084
			c4.891-1.002,9.72,0.774,11.717,4.554c7.874,14.912,20.977,24.435,33.409,34.837c4.49,3.753,9.748,9.116,9.083,14.676
			c-0.822,6.872-0.763,7.38,6.601,7.747C263.751,850.684,270.358,856.222,268.123,865.858z"/>
		<path fill-rule="evenodd" clip-rule="evenodd" fill="#212E5A" d="M187.496,816.582c9.617,8.425,11.918,25.843,30.34,23.932
			c2.366-0.25,11.189,3.596,6.502,10.835c-5.081,7.843,1.069,15.722-0.98,23.434c-3.005,2.633-6.054,2.554-9.138,0.14
			c-19.018-6.355-28.392-27.65-48.958-31.604c-3.963-2.266-5.892-5.77-6.231-10.245
			C167.617,826.035,168.907,806.372,187.496,816.582z"/>
		<path fill-rule="evenodd" clip-rule="evenodd" fill="#3B466D" d="M312.89,933.131c14.849,11.854,32.578,18.381,49.362,26.648
			c-4.302,7.655-5.811,21.994-19.131,7.865c-3.401-3.613-8.06-3.089-12.473-3.133c-7.699,1.759-11.207-2.598-13.257-9.08
			C318.913,947.387,306.236,942.212,312.89,933.131z"/>
		<path fill-rule="evenodd" clip-rule="evenodd" fill="#3C476E" d="M268.095,937.588c-2.981-1.5-5.962-2.996-8.946-4.492
			c4.394-4.715,1.835-15.611,9.779-15.664c8.891-0.057,7.791,9.041,8.145,15.616C272.132,930.707,267.878,929.728,268.095,937.588z"
			/>
		<path fill-rule="evenodd" clip-rule="evenodd" fill="#4C5679" d="M160.69,834.275c3.62,1.956,4.309,5.395,4.573,9.042
			c-1.686,1.593-3.375,3.185-5.065,4.776c-1.236-0.082-2.463-0.191-3.688-0.332c-0.573-9.903-10.75-13.849-13.786-22.222
			c0.018-1.505,0.035-3.019,0.055-4.522c6.747-2.721,10.103,2.401,14.107,6.062C158.728,829.171,158.829,832.185,160.69,834.275z"/>
		<path fill-rule="evenodd" clip-rule="evenodd" fill="#25315D" d="M236.759,874.83c7.161,4.531,1.231,9.007-0.063,13.504
			c-3.679-0.105-7.027-0.866-8.939-4.488C224.942,875.031,234.784,878.859,236.759,874.83z"/>
		<path fill-rule="evenodd" clip-rule="evenodd" fill="#25325D" d="M236.759,874.83c-3.001,3.005-6,6.01-9,9.016
			c-4.512-2.975-9.024-5.953-13.536-8.924c3.044-0.048,6.089-0.092,9.136-0.14C227.827,874.795,232.293,874.812,236.759,874.83z"/>
		<path fill-rule="evenodd" clip-rule="evenodd" fill="#1A2755" d="M79.962,673.253c-0.142-1.466-0.197-2.931-0.168-4.4
			c2.128-11.609,6.345-22.991,3.825-35.117c1.433-1.562,2.944-2.983,5.167-3.272c-2.306-0.064-3.474,1.707-4.957,3.098
			c-5.245,3.552-2.436,15.074-13.11,13.07c-1.402-1.557-2.806-3.105-4.208-4.658c-4.438-11.803,3.066-18.85,10.658-25.42
			c4.718-4.085,12.034-5.682,11.638-13.971c0.729-6.947,2.574-13.167,10.02-15.836c11.205,1.531,13.188,10.836,15.975,19.252
			c15.176,45.834,25.517,93.729,57.671,132.218c4.93,5.901,7.307,13.101,2.778,20.747c-3.684,3.43-8.246,4.414-13.051,4.742
			c-4.62,0.175-9.081-0.494-13.193-2.734c-4.199-23.14-9.995-45.313-34.959-55.387c-10.001-8.324-13.477-19.488-13.845-31.99
			C93.255,684.941,86.556,682.233,79.962,673.253z"/>
		<path fill-rule="evenodd" clip-rule="evenodd" fill="#1F2C58" d="M79.962,673.253c11.955,3.308,12.445,3.268,11.697-6.378
			c-0.291-3.718,0.079-5.687,3.548-6.049c4.667-0.495,6.312,2.834,6.983,6.731c2.27,13.192,7.447,25.306,13.635,37.051
			c17.298,12.943,32.326,27.339,25.579,51.748c-2.017,7.296,2.29,10.983,5.028,15.939c4.683,9.483,7.902,18.862-2.172,27.139
			c-7.526,2.528-14.945-0.56-16.086-7.021c-4.094-23.153-28.673-34.312-32.26-57.369c-0.206-1.326-1.551-2.433-2.479-3.561
			C88.944,712.07,84.452,692.662,79.962,673.253z"/>
		<path fill-rule="evenodd" clip-rule="evenodd" fill="#1B2856" d="M97.905,588.146c-3.056,5.582-5.177,11.399-4.479,17.917
			c-2.313,2.904-5.582,4.558-8.545,6.636c-10.546,7.384-18.326,8.648-19.936-7.756c-0.324-3.28-4.165-5.77-7.13-7.93
			c-0.17-1.431-0.267-2.857-0.289-4.296c2.699-9.562,8.762-12.445,17.983-9.051c1.323,1.334,2.577,2.729,3.747,4.204
			c-1.139-1.501-2.391-2.9-3.747-4.204c-1.212-12.716,8.958-28.171-8.901-36.972c-0.759-0.372-1.194-3.421-0.937-3.552
			c17.963-9.09,3.211-28.494,13.044-40.523c-7.894-1.127-16.192-0.901-21.122-8.537c10.006-2.333,19.556-4.707,21.102-17.725
			c0.672-5.647,3.471-11.183,8.996-14.396c12.727,0.188,13.759,10.109,13.576,18.649c-0.715,33.337-2.907,66.651,0.759,99.958
			C102.35,583.505,100.21,586.117,97.905,588.146z"/>
		<path fill-rule="evenodd" clip-rule="evenodd" fill="#23305B" d="M93.435,731.484c8.436,21.167,36.992,29.106,36.626,56.385
			c-0.087,6.574,7.696,7.957,12.626,10.812c1.343,0.543,2.581,1.348,3.924,1.82c26.952,9.519,26.954,9.51,9.534,29.5
			c-4.456-2.992-8.913-5.992-13.368-8.984c-10.802-14.917-21.604-29.833-32.414-44.75c-4.116-7.532-8.224-15.056-12.331-22.588
			C96.501,746.277,94.968,738.885,93.435,731.484z"/>
		<path fill-rule="evenodd" clip-rule="evenodd" fill="#1F2C58" d="M57.814,597.014c4.576-2.507,10.188-2.078,10.73,2.891
			c2.826,25.904,16.391,5.284,24.881,6.159c1.586,4.27,3.121,7.795-3.749,9.515c-13.475,3.377-19.979,13.604-23.167,26.395
			C57.747,628.119,64.943,611.182,57.814,597.014z"/>
		<path fill-rule="evenodd" clip-rule="evenodd" fill="#1F2C58" d="M70.719,646.631c6.162-2.983,3.832-14.487,13.749-13.691l0,0
			c14.053,13.998,7.049,25.266-4.671,35.913C72.911,663.021,70.942,655.178,70.719,646.631z"/>
		<path fill-rule="evenodd" clip-rule="evenodd" fill="#4E587B" d="M48.244,633.543c-6.846-8.18-3.21-18.18-4.746-27.278
			C52.784,614.016,47.172,624.357,48.244,633.543z"/>
		<path fill-rule="evenodd" clip-rule="evenodd" fill="#3F4A70" d="M362.223,959.823c20.069,1.609,36.895,16.968,58.111,13.718
			c6.1-0.866,12.213-1.177,18.374-0.552c2.124,0.141,4.199,0.508,6.269,0.98c6.098,3.185,15.793,1.95,15.756,12.712
			c-1.918,3.735-5.376,4.51-9.116,4.741c-8.923-0.446-17.843-0.901-26.767-1.364c-7.792-9.248-16.948-8.382-26.635-3.609
			C389.079,973.707,367.715,977.49,362.223,959.823z"/>
		<path fill-rule="evenodd" clip-rule="evenodd" fill="#26335E" d="M720.483,947.505c-8.923,3.071-17.843,6.138-26.762,9.212
			c-2.944,1.12-5.888,2.231-8.827,3.342c-14.173,2.634-28.014,7.301-42.658,6.93c-3.601-1.558-4.769-4.506-4.646-8.158
			c14.514-10.529,34.285-9.742,47.916-22.209c1.565-1.193,3.237-2.227,4.947-3.197c11.098-2.65,20.918,2.777,31.276,4.965
			c1.815,0.971,3.215,2.371,4.295,4.107C725.812,945.965,724.455,948.188,720.483,947.505z"/>
		<path fill-rule="evenodd" clip-rule="evenodd" fill="#3A456C" d="M639.874,964.363c15.218,0.805,29.583-7.34,45.021-4.305
			c-20.962,11.619-44.706,12.713-67.391,17.777c-1.475-1.583-1.881-3.402-1.242-5.468c1.461-2.777,3.621-4.847,6.377-6.325
			C628.238,964.097,633.736,960.908,639.874,964.363z"/>
		<path fill-rule="evenodd" clip-rule="evenodd" fill="#26335E" d="M617.539,973.383c-0.044,1.483-0.053,2.967-0.035,4.453
			c-1.667,1.422-3.334,2.844-5,4.261c-8.788,0.224-17.572,0.446-26.355,0.669C592.666,966.454,603.952,966.078,617.539,973.383z"/>
		<path fill-rule="evenodd" clip-rule="evenodd" fill="#222F5A" d="M966.889,637.419c1.522,0.009,3.04,0.021,4.559,0.034
			c7.086,14.418-3.36,26.784-4.694,40.218c-5.717,3.237-3.486,14.265-13.259,13.53c-1.015-0.197-2.029-0.398-3.044-0.578
			c-9.107-7.712-22.213-15.248,0.079-23.17c5.179-1.842,3.136-7.611,3.132-11.697C953.661,646.29,959.339,641.255,966.889,637.419z"
			/>
		<path fill-rule="evenodd" clip-rule="evenodd" fill="#2D3963" d="M787.595,915.057c-4.436,3.014-8.876,6.027-13.315,9.046
			c-7.883,6.71-19.046,6.754-27.016,13.28c-1.443,0.061-2.861,0.293-4.243,0.695c-5.88,1.736-10.228,10.314-17.909,4.016
			l-0.577-0.367c-1.876-2.699-2.555-6.321-0.009-8.022c18.158-12.147,36.574-23.91,58.738-27.598
			C783.343,909.746,784.043,913.092,787.595,915.057z"/>
		<path fill-rule="evenodd" clip-rule="evenodd" fill="#656E8C" d="M725.111,942.094c5.967-1.343,11.938-2.682,17.909-4.02
			c-5.919,6.959-7.62,24.006-22.537,9.422C722.027,945.703,723.572,943.9,725.111,942.094z"/>
		<path fill-rule="evenodd" clip-rule="evenodd" fill="#656E8C" d="M747.264,937.383c6.058-10.42,17.37-10.157,27.016-13.28
			c-1.575,2.931-3.15,5.87-4.729,8.801c-6.277,0.053-12.611,0.026-13.46,8.583C753.146,940.117,750.203,938.752,747.264,937.383z"/>
		<path fill-rule="evenodd" clip-rule="evenodd" fill="#1C2956" d="M783.264,906.106c-16.412,17.086-43.979,15.791-58.729,35.624
			c-11.784-1.399-23.568-2.791-35.345-4.182c-11.102-15.135-8.753-30.516-0.835-46.009c1.973-0.586,3.95-0.639,5.936-0.14
			c17.454-0.298,28.03-11.321,37.515-24.081c4.881-0.774,12.471,1.282,13.831-4.033c5.104-19.956,18.757-27.947,37.515-31.202
			c4.129-0.717,4.321-7.165,6.456-10.918c1.68-2.791,3.989-4.816,7.061-5.94c15.939,15.131,20.489,6.745,28.044-9.729
			c8.035-17.523,18.778-34.329,28.787-51.192c1.521-1.475,3.368-2.218,5.463-2.354c22.633,3.972,30.24-2.643,27.642-24.115
			c-3.657-5.861-5.853-12.144-4.453-19.063c1.05-5.206,2.345-9.642,9.982-8.723c15.717,1.89,19.763-5.389,17.689-22.335
			c-1.732-14.182-9.396-32.79,14.96-37.37c2.126,0.442,4.033,1.339,5.762,2.638c9.785,8.019,17.702,16.447,5.848,28.849
			c-5.66,6.68-2.484,12.306,2.914,16.627c8.311,6.657,9.309,15.643,9.623,25.113c-17.266,19.514-29.133,41.923-35.896,67.062
			c-2.021,7.751-13.245,8.329-13.569,17.405c-10.927,6.387-14.194,18.893-22.112,27.686c-7.79,4.067-13.083,10.638-17.808,17.772
			c-16.172-1.785-16.482,15.817-24.798,23.074C818.293,880.937,800.014,892.459,783.264,906.106z"/>
		<path fill-rule="evenodd" clip-rule="evenodd" fill="#222F5A" d="M948.928,713.571c2.082-18.141-32.598-21.614-17.869-44.798
			c6.732,8.189,12.283,17.559,22.384,22.388c0,0,0.048,0.035,0.048,0.04C959.146,700.12,956.426,707.329,948.928,713.571z"/>
		<path fill-rule="evenodd" clip-rule="evenodd" fill="#1E2B58" d="M527.918,46.158c10.42,4.363,20.856-2.194,31.276,0.042
			l0.062,0.022c4.549,3.436,10.35,2.758,15.354,4.628c0.849-0.131,1.706-0.208,2.562-0.284c2.988,0.043,5.976,0.085,8.959,0.129
			c6.115,6.393,14.978,5.846,22.423,8.884c7.463,1.538,14.921,3.073,22.379,4.61c1.995,3.547,5.337,4.252,9.003,4.271
			c1.447,0.121,2.899,0.182,4.356,0.186c11.955,4.49,25.642,4.236,35.996,13.123c2.952,0.105,5.905,0.208,8.858,0.312
			c3.368,5.133,9.291,2.096,13.586,4.25c7.428,3.06,14.847,6.12,22.274,9.177c3.578,2.419,7.235,4.788,6.925,9.921
			c-8.46,13.519-21.675,18.707-36.657,20.33c-4.331,0.468-10.205-0.254-11.062-5.013c-1.103-6.146-0.018-11.734-8.74-5.687
			c-2.012,1.398-6.579-0.127-7.86-2.568c-8.053-15.306-8.569,0.842-12.41,2.846c-4.759,3.239-9.475,5.849-13.359-1.126
			c3.64-14.273-8.73-13.07-16.145-16.821c-8.604-4.355-16.89-1.73-25.254,0.634c-2.107,0.315-4.199,0.247-6.281-0.182
			c-5.542-2.332-9.614-6.778-14.312-10.277c-9.589-7.147-17.436-22.333-30.717-4.21c-1.92,2.621-10.034,1.564-9.776-0.199
			C541.435,68.76,516.562,62.912,527.918,46.158z"/>
		<path fill-rule="evenodd" clip-rule="evenodd" fill="#1E2B58" d="M787.796,126.715c7.497,6.922,15.065,13.709,26.07,14.171
			c-0.249,9.954,12.839,8.735,14.388,17.184c-1.685,4.206-5.543,9.42-8.679,8.532c-15.77-4.455-18.28,8.703-24.54,16.99
			c-12.068,6.5-22.887-7.334-34.92-2.168c-4.278-3.606-6.422-8.375-7.594-13.689c0.053-5.739-0.578-15.33,6.504-13.534
			c13.6,3.452,3.728-6.506,3.754-6.88c0.738-9.792-3.557-0.624-4.598-0.527c-5.556,0.505-11.364-1.367-16.562,3.786
			c-8.075,8.005-16.272,3.762-23.726-2.244c-2.354-2.249-3.858-4.908-3.929-8.239c14.891-3.703,13.185-20.752,22.948-28.617
			c4.619-3.153,9.47-5.061,15.073-2.716C763.921,114.747,775.858,120.731,787.796,126.715z"/>
		<path fill-rule="evenodd" clip-rule="evenodd" fill="#354068" d="M680.288,81.77c-12.06-4.204-26.28-2.491-35.996-13.125
			C660.993,58.647,673.998,63.389,680.288,81.77z"/>
		<path fill-rule="evenodd" clip-rule="evenodd" fill="#24315C" d="M751.987,108.763c-4.515,1.529-9.032,3.058-13.552,4.586
			c-5.293-0.671-6.736-5.201-8.954-8.947c-1.491-2.966-2.987-5.93-4.475-8.893C736.17,95.509,745.789,98.652,751.987,108.763z"/>
		<path fill-rule="evenodd" clip-rule="evenodd" fill="#25315D" d="M702.732,86.332c-5.738,2.454-12.313,7.574-13.586-4.25
			C694.124,82.054,699.36,81.218,702.732,86.332z"/>
		<path fill-rule="evenodd" clip-rule="evenodd" fill="#1D2A57" d="M792.196,180.533c2.983-21.99,20.56-20.553,36.053-22.462
			c3.089,4.375,6.177,8.749,9.265,13.121l-1.486,1.242l1.359-1.396c2.927,0.024,5.857,0.046,8.789,0.068l-0.679,1.196
			c4.028,4.707,8.237,9.239,13.197,13.003c10.853,12.952,21.706,25.902,32.554,38.854c3.797,12.093,6.89,24.125-2.073,34.631
			c16.968-7.438,24.78,9.576,36.972,15.835c0.612,1.12,0.962,2.316,1.045,3.592c-4.146,16.742-16.005,8.812-25.62,8.079
			c-28.499,3.108-37.277-24.52-56.192-36.416c-7.996-5.03-14.295-12.733-22.086-18.379c-1.272-1.699-1.973-3.626-2.218-5.724
			c-0.228-6.417,11.68-15.483-6.811-17.554C801.75,206.82,796.062,192.713,792.196,180.533z"/>
		<path fill-rule="evenodd" clip-rule="evenodd" fill="#212E5A" d="M899.699,279.075c9.295,3.989,18.617,8.897,27.488-0.854
			c23.424,21.544,32.226,52.013,47.807,78.347c0.268,5.555,0.538,11.102,0.81,16.65c-0.132,1.441-0.192,2.887-0.188,4.337
			c-6.959,2.078-11.264-3.736-16.906-5.63c-1.803-1.059-3.373-2.397-4.76-3.958c-1.163-3.327-3.578-4.064-7.261-2.546
			c-4.471,1.841-8.714,0.654-12.214-2.203c-8.224-6.708-4.593-14.114-0.822-21.408c2.669-2.646,5.932-2.397,9.266-1.813
			c-1.374-1.535-3.74-1.715-4.883-3.604c-0.77-11.061-3.009-21.39-13.394-27.774C912.122,302.329,894.738,300.094,899.699,279.075z"
			/>
		<path fill-rule="evenodd" clip-rule="evenodd" fill="#23305B" d="M926.146,274.626c-16.789,2.981-24.238-22.589-43.634-13.254
			c12.007-11.034,4.982-25.294,8.735-37.208c2.8,1.925,5.607,3.854,8.407,5.783c4.751,5.835,9.501,11.67,14.252,17.506
			c4.974,6.579,6.482,16.248,16.421,18.388C928.929,268.769,927.537,271.698,926.146,274.626z"/>
		<path fill-rule="evenodd" clip-rule="evenodd" fill="#3C476E" d="M858.694,185.305c-7.76-0.927-12.099-5.324-13.192-13.007
			C851.503,175.003,856.928,178.3,858.694,185.305z"/>
		<path fill-rule="evenodd" clip-rule="evenodd" fill="#1C2956" d="M953.442,691.161c-13.434-1.496-20.879-8.976-22.384-22.388
			c19.059-11.583-0.538-15.424-4.483-22.396c5.826-2.982,10.752-4.641,12.642-13.604c4.261-20.279,9.531-40.283,7.279-61.109
			c-1.26-11.68,1.618-21.898,6.645-31.941c-4.021-17.104-9.169-33.967-9.502-51.724c1.369-6.148,3.985-11.844,6.374-17.62
			c8.714-21.668-1.198-41.478-6.981-61.323c-4.146-14.221-0.079-28.704,14.898-40.391l0,0c12.283,13.34,21.706,37.155,17.322,53.535
			c-3.018,11.277,6.396,9.265,9.584,13.639c-0.039,2.997-0.078,5.993-0.117,8.989c-1.146,4.263-8.146,6.201-6.448,10.671
			c4.956,13.016,8.241,25.401,2.135,39.276c-1.907,4.326,6.133,5.059,8.854,8.272c-2.975,7.462-5.953,14.925-8.933,22.388
			c2.713,8.307-7.532,14.02-4.479,22.396c-3.929,11.661-7.489,22.685-5.906,36.018c1.759,14.803-9.811,28.783-7.532,44.609
			c-4.873,2.983-3.552,5.967,0,8.959c1.492,0,2.987,0,4.479,0c-3.622,7.024-11.802,12.777-8.312,21.968
			c6.916,18.18-5.489,14.094-15.274,13.219C941.177,682.159,952.147,684.031,953.442,691.161z"/>
		<path fill-rule="evenodd" clip-rule="evenodd" fill="#1D2A57" d="M984.836,435.839c-9.706,7.084-15.41-0.562-19.793-6.723
			c-5.625-7.902,0.021-8.893,7.183-10.179c4.698-0.842,1.553-6.809-0.307-8.972c-10.284-11.986-5.778-28.783-13.989-41.3
			c8.276-1.776,12.809,3.909,17.69,8.891C980.09,396.762,986.591,415.647,984.836,435.839z"/>
		<path fill-rule="evenodd" clip-rule="evenodd" fill="#1D2A57" d="M989.259,503.049c-16.132,4.827-20.038-12.43-16.185-16.028
			c10.883-10.153,3.709-15.712-0.275-23.967c-5.543-11.487-2.778-19.17,11.92-18.226c8.644,17.313,2.883,35.85,4.558,53.756
			C989.276,500.072,989.271,501.562,989.259,503.049z"/>
		<path fill-rule="evenodd" clip-rule="evenodd" fill="#29355F" d="M608.554,59.579c-8.63-0.042-17.873,1.461-22.423-8.886
			C594.058,52.51,602.32,53.489,608.554,59.579z"/>
		<path fill-rule="evenodd" clip-rule="evenodd" fill="#333F68" d="M567.995,45.941c0.21-3.646,1.023-6.968,4.667-8.792
			c5.254,3.21,4.37,8.486,4.51,13.418c0-0.002,0.097,0.16,0.097,0.16C572.085,53.181,570.095,49.45,567.995,45.941z"/>
		<path fill-rule="evenodd" clip-rule="evenodd" fill="#29355F" d="M567.995,45.941c3.089,1.595,6.177,3.189,9.27,4.786
			c0.599,3.454,5.175,10.301-4.099,6.19c-5.197-2.303-9.309-7.049-13.91-10.695C562.169,46.127,565.082,46.036,567.995,45.941z"/>
		<path fill-rule="evenodd" clip-rule="evenodd" fill="#212E5A" d="M617.539,973.383c-11.443-0.14-22.532,0.884-31.391,9.379
			c-6.588,5.77-14.759,3.158-22.23,4.199c-10.516-0.092-21.027-0.184-31.538-0.271c-6.011-14.859,5.704-17.729,14.667-17.654
			c13.018,0.113,23.556-6.832,35.637-8.635c1.051-0.157,1.851,3.206,3.251-0.621c5.927-16.193,6.688-16.631,18.984-4.777
			c5.402,5.215,12.943,7.484,17.134,13.928C620.548,970.413,619.043,971.896,617.539,973.383z"/>
		<path fill-rule="evenodd" clip-rule="evenodd" fill="#1B2856" d="M622.053,968.93c-15.782,2.083-20.777-15.178-34.819-20.401
			c2.073,8.631,3.683,15.345,5.656,23.556c-11.828-8.167-54.089,3.185-60.51,14.605c-2.975,0.027-5.949,0.053-8.924,0.079
			c-2.323-7.751-7.62-13.097-14.155-17.458c-1.334-5.043,5.328-13.271-3.915-14.794c-8.747-1.438-19.376-9.759-26.609-0.362
			c-9.531,12.379-13.56,9.304-16.854-3.168c-2.008-7.602-8.661-11.968-12.078-18.564c-0.5-2.204-0.374-4.374,0.265-6.535
			c20.308-12.707,41.781-3.753,62.306-1.824c14.51,1.365,27.208,2.756,40.892-4.282c20.839-10.729,45.685-4.803,67.355-14.47
			c10.713-4.777,22.309-7.104,32.891-13.189c11.054-6.355,23.923-8.617,35.619,0.617c-1.435,14.934-2.274,29.877,0.018,44.811
			v-0.004c-17.322,3.521-33.437,10.362-49.289,17.917c-0.009,2.966-0.018,5.936-0.026,8.901
			C634.332,967.438,628.553,969.586,622.053,968.93z"/>
		<path fill-rule="evenodd" clip-rule="evenodd" fill="#1F2B58" d="M451.77,933.053c14.82,1.758,16.413,13.582,17.137,25.23
			c10.196-2.992,1.421-20.244,9.991-15.939c13.092,6.569,31.581-2.205,39.958,14.189c4.042,7.922-7.708,6.838-8.845,12.345
			c-3.45,6.784-7.588,12.484-16.553,10.604c-1.577-1.173-1.807-3.386-3.41-4.571c1.229,2.331,3.106,4.483,2.03,7.467
			c-6.026,3.22-12.025,4.068-18.014-0.009c-4.442,1.443-8.887,2.878-13.331,4.317c-5.973-2.948-11.948-5.893-17.921-8.84
			c-1.494-3.387-2.985-2.145-4.479,0c-6.196-0.604-13.141,1.906-17.996-4.305c7.377-8.994,1.66-18.031,0.079-27.051
			C429.183,938.082,436.026,925.188,451.77,933.053z"/>
		<path fill-rule="evenodd" clip-rule="evenodd" fill="#212E5A" d="M492.081,977.846c5.976-2.992,11.951-5.976,17.929-8.968
			c13.525-0.831,22.79,1.535,13.446,17.891c-16.297-3.329-33.842,7.349-49.391-4.4c6.201-0.73,13.287,2.064,18.018-4.522H492.081z"
			/>
		<path fill-rule="evenodd" clip-rule="evenodd" fill="#1E2B58" d="M88.949,462.724c-5.551,15.354-6.496,35.314-31.355,31.359
			c10.208-5.724,18.007-12.939,2.553-20.373c-6.225-2.994,3.451-13.208-7.102-11.004c3.041-20.9,6.081-41.801,9.121-62.703
			c15.492-5.324,12.266,9.632,15.05,15.627c3.985,8.587,3.889,18.901-3.147,28.759c11.192-1.977,24.544-7.416,21.999,12.327
			C94.723,459.942,91.832,461.329,88.949,462.724z"/>
		<path fill-rule="evenodd" clip-rule="evenodd" fill="#1D2A57" d="M975.848,547.833c-16.745-11.12,0.831-15.362,4.479-22.396
			C988.498,534.837,985.453,541.988,975.848,547.833z"/>
		<path fill-rule="evenodd" clip-rule="evenodd" fill="#202D59" d="M962.409,637.419c-6.728,3.132-9.974,1.05-8.644-6.334
			c1.032-5.739,3.933-7.778,8.644-2.625C962.409,631.443,962.409,634.427,962.409,637.419z"/>
		<path fill-rule="evenodd" clip-rule="evenodd" fill="#182653" d="M82.227,461.929c1.515-1.515,3.03-3.032,4.545-4.55
			c3.308-2.79,5.141-6.632,7.26-10.28c5.075-8.562,7.856-18.011,9.765-27.589c11.908-59.729,39.535-111.567,78.528-157.781
			c-3.981-7.067-4.344-11.368,5.401-14.914c10.973-3.994,21.966-10.42,17.991-25.952c-0.293-1.148-0.033-3.533,0.098-3.542
			c26.812-1.895,31.155-30.1,49.311-42.043c4.55-3.033,9.103-6.065,13.652-9.098c14.894-15.708,35.707-19.584,54.599-27.305
			c1.515-1.518,3.032-3.033,4.547-4.55c14.051-10.625,31.978-4.835,47.323-11.516c19.553-8.509,42.667-6.86,60.748-20.684
			c4.026-3.079,9.924-3.117,14.781,0.354c1.959,3.664,5.354,4.459,9.1,4.545c2.626-3.646,4.824-9.429,9.5-8.984
			c24.319,2.315,45.529-12.666,70.474-10.606c18.521,1.53,37.738-7.494,56.53,1.397c1.52-0.002,3.029-0.004,4.549-0.009
			c16.588,2.515,33.503,4.217,45.501,18.204c3.035,5.05,6.065,0.376,9.1-0.002c8.052-2.821,12.967,2.846,16.997,7.656
			c12.339,14.748,27.579,21.53,46.695,19.655c1.52,1.515,3.039,3.028,4.559,4.542c2.844,22.448,22.449,18.078,36.4,22.752
			c1.52,4.548,3.03,9.098,4.55,13.646c29.447,3.67,43.861,28.382,63.7,45.505c0,1.515,0,3.03,0,4.548
			c35.633,39.523,63.924,83.945,84.004,133.026c7.309,17.865,8.842,38.133,12.703,57.345c1.99,9.868,4.585,18.96,10.291,27.167
			c2.075,27.056,16.29,52.159,12.565,80.321c-0.901,6.795-2.167,13.011-5.221,18.996c-0.848,1.901-1.809,3.742-2.755,5.585
			c-5.772,42.363-23.386,81.692-31.286,123.554c-3.879,20.528-23.213,35.085-24.039,57.249c-3.421,11.895-5.669,24.594-19.87,29.108
			c-1.511,0-3.03,0.005-4.541,0.005c-14.273,13.473-24.15,30.562-37.12,45.136c-6.515,7.323-12.087,15.437-22.03,18.564
			c-1.516,1.52-3.03,3.035-4.551,4.551c-27.589,20.865-57.831,37.716-86.326,57.168c-5.519,4.381-7.42,11.984-13.775,15.632h-2.274
			h-2.275c-25.665-7.113-44.038,13.233-66.659,18.106c-16.099,3.472-31.491,10.092-48.424,9.186
			c-8.559-0.458-17.254,0.24-23.279,6.665c-10.104,10.762-23.883,9.74-33.775,5.661c-20.317-8.38-41.763,0.471-61.587-7.279
			c-1.69-0.656-4.917,2.613-7.431,4.058c-24.13-3.879-45.936-16.672-70.079-19.596c-36.145-4.381-68.184-21.582-102.812-30.455
			c-2.977-6.128-7.527-10.677-13.652-13.65c-24.197-25.852-51.431-48.842-72.808-77.346c-13.257,3.848-20.344-2.839-24.621-14.361
			c-2.343-6.132-0.715-11.864,1.875-17.489c-0.48-3.706,0.407-8.611-1.64-10.931c-37.407-42.452-49.826-95.951-65.767-147.868
			c-1.846-6.007-3.672-11.472-9.947-14.103c-0.375-9.519,1.891-19.432-6.649-27.238c-12.71-11.62,8.047-4.746,6.163-10.78
			c-8.496-27.232,2.375-55.223-3.252-82.527C87.061,466.242,84.073,464.205,82.227,461.929z"/>
		<path fill-rule="evenodd" clip-rule="evenodd" fill="#1B2855" d="M451.768,108.864c-22.55,7.404-43.717,18.042-67.023,24.289
			c-18.204,4.879-35.659,6.853-53.918,7.062c-0.013-6.463-3.009-10.936-8.96-13.436c4.556-6.374,19.682,1.363,17.926-13.434
			c4.479-1.496,8.956-2.99,13.436-4.486c7.465,1.662,14.927,1.746,22.392-0.002c10.89-7.259,7.664-18.72,6.402-33.315
			c20.542,40.683,20.542,40.683,45.119,28.86c-3.117-8.545-12.349-1.378-15.168-4.797c3.124-25.432,27.108-32.275,39.797-48.975
			c4.478,0.004,8.954,0.009,13.429,0.011c-9.136,10.341-18.274,20.68-28.28,32c1.868,7.305,14.011-5.402,14.02,5.643
			c0.009,10.05-11.71,4.372-14.665,11.222C438.161,107.672,449.11,101.823,451.768,108.864z"/>
		<path fill-rule="evenodd" clip-rule="evenodd" fill="#1A2755" d="M326.35,144.694c-14.483,15.826-35.948,17.69-53.75,26.88
			c7.423-20.161,26.679-25.198,43.279-33.361C321.098,135.648,322.281,143.342,326.35,144.694z"/>
		<path fill-rule="evenodd" clip-rule="evenodd" fill="#212E5A" d="M232.28,167.088c-5.813,4.561-8.237,10.816-8.958,17.922
			c-14.715-3.185-2.489-17.042-9.261-23.37c4.762-4.674,10.868-4.086,16.408-3.115C236.121,159.516,232.896,163.921,232.28,167.088z
			"/>
		<path fill-rule="evenodd" clip-rule="evenodd" fill="#1F2C58" d="M375.619,108.857c-7.462,7.331-14.927,7.344-22.392,0.002
			c0.579-9.586,7.419-14.851,15.397-21.388C362.485,98.451,370.305,103.138,375.619,108.857z"/>
		<path fill-rule="evenodd" clip-rule="evenodd" fill="#1B2856" d="M102.385,453.768c-1.929,3.608-5.271,4.392-8.961,4.477
			c-0.562-14.724-6.155-18.068-16.622-6.627c-4.204,4.593-7.645,3.782-11.085,0.654c-3.464-3.151-1.54-6.509,1.334-9.324
			c16.747-16.397,4.586-29.52-4.886-42.945c-0.048-1.487-0.081-2.977-0.094-4.466c1.502-1.487,3.003-2.975,4.506-4.461
			c12.139-2.146,14.877,8.175,20.176,15.122c2.467,4.171,5.956,7.629,8.497,11.763c1.032,2.861,1.011,5.641-0.63,8.129
			c-0.875,0.986-2.071,1.378-3.464,1.052c2.135,2.124,2.41-1.827,4.208-1.266C109.904,432.172,103.585,443.6,102.385,453.768z"/>
		<path fill-rule="evenodd" clip-rule="evenodd" fill="#1C2956" d="M93.428,417.936c-5.82-0.153-8.808-3.137-8.961-8.959
			c0.184-7.679-7.515-13.637-4.893-21.67c1.096-1.221,1.717-2.052,1.737-2.292c-0.689,1-1.743,1.873-3.335,2.655
			c-5.251-1.494-9.329-3.703-7.042-10.188c0.052-4.387,0.107-8.777,0.162-13.162c2.942-3.042,5.881-6.085,8.823-9.127
			c1.621-1.665,3.204-1.71,4.733,0.099c1.231,0.754,2.189,2.045,3.832,2.06c-2.913-1.079-4.569-3.078-4.584-6.303
			c5.833-10.466,13.654-11.211,22.958-4.788l0.009,0.007c10.192,15.607,14.409,31.497,2.316,48.157
			c-1.594,4.175-9.151-0.849-9.033,5.962C104.677,408.894,106.293,416.24,93.428,417.936z"/>
		<path fill-rule="evenodd" clip-rule="evenodd" fill="#1E2B58" d="M70.934,377.481c1.747,4.298,4.72,7.375,9.055,9.097l0,0
			c2.69,7.227,9.936,13.543,4.479,22.398c-6.561-5.372-9.068-14.794-17.891-17.904C66.782,386.143,65.881,380.858,70.934,377.481z"
			/>
		<path fill-rule="evenodd" clip-rule="evenodd" fill="#1B2855" d="M595.107,95.428c-22.336-4.378-43.84,11.623-66.363,2.706
			c-0.682-0.271-1.732-0.884-2.051-0.63c-19.532,15.575-45.229,5.417-65.967,15.835c-6.876-12.355,8.891-24.586-7.154-39.69
			c20.078,4.473,13.787,16.257,18.621,25.34c6.106-11.854,4.499-25.196,15.14-32.998c4.232-0.416,4.3,4.271,6.509,6.9
			c3.714,4.425-10.067,10.039,1.558,13.948c9.636,3.241,13.414-3.57,17.978-8.849c7.822-9.044,8.758-20.544,10.062-31.802
			c1.491-0.03,2.983-0.041,4.479-0.03c1.102,5.424-2.266,16.038,4.103,15.356c24.96-2.673,15.03,8.359,6.396,18.274
			c3.604,0.91,5.66,2.025,6.256,1.494c21.529-19.162,22.903-19.601,25.493-10.988C574.172,83.626,591.258,82.769,595.107,95.428z"/>
		<path fill-rule="evenodd" clip-rule="evenodd" fill="#1A2754" d="M102.389,395.539c17.869-14.937,2.611-32.882,4.477-49.272
			c13.514-15.148,20.643-36.93,43.894-42.068c1.677-0.372,4.044-3.329,3.983-5.006c-0.849-22.823,21.106-23.138,32.748-33.556
			c-6.634,22.34-21.823,40.645-33.949,59.244c-20.646,31.665-28.944,66.093-38.433,101.029c-2.648,9.759-3.836,20.723-12.725,27.858
			c-6.096-7.922,3.125-20.951-8.959-26.876l0,0c0-2.985,0-5.971,0.002-8.956c8.814-5.976,6.751-11.946-0.002-17.92
			C95.661,397.02,98.592,395.412,102.389,395.539z"/>
		<path fill-rule="evenodd" clip-rule="evenodd" fill="#202D59" d="M84.467,355.223c-1.516-0.011-3.031-0.02-4.549-0.03
			c0.016-4.464,0.031-8.928,0.046-13.392c1.509-4.475,3.019-8.95,4.53-13.424c4.462-1.521,8.921-3.041,13.383-4.561
			c-6.518,11.286,12.515,12.349,8.982,22.444C98.229,346.332,88.947,344.779,84.467,355.223L84.467,355.223z"/>
		<path fill-rule="evenodd" clip-rule="evenodd" fill="#1B2855" d="M281.563,879.296c8.016,0.831,16.074-4.396,24.028-0.065
			c38.131,20.73,81.609,23.141,122.291,35.135c9.995,2.948,12.539,15.546,23.884,14.203c0.002,1.492,0.002,2.988,0.004,4.484
			c-13.319-2.214-18.429,14.732-31.355,13.438c-2.983-1.496-5.969-2.992-8.952-4.488c-6.256-6.648,1.163-10.625,3.064-15.682
			c-10.818,1.08-6.084,11.377-9.786,16.784c-5.45,7.952-10.384,0.542-15.408,0.228c-11.736-0.727-15.048-10.039-18.19-19.238
			c-6.186-5.004-8.832,2.112-13.187,3.639c-9.295,3.255-15.004,2.555-17.357-10.131c-1.023-5.512-11.892-12.777-20.433-11.241
			c-5.77,1.036-10.59,7.357-22.794,16.569C321.225,889.808,292.995,889.52,281.563,879.296z"/>
		<path fill-rule="evenodd" clip-rule="evenodd" fill="#1F2B58" d="M371.143,924.094c5.273,2.017,7.911,6.422,10.148,11.193
			c5.829-7.65,21.465,21.85,22.226-5.936c0.164-5.967,3.589-6.71,28.383-7.406c-11.997,5.337-20.369,9.479-20.437,20.057
			c-12.55,17.322-27.891,19.746-41.434,4.305c-6.083-6.942-10.479,8.132-14.418-2.551
			C360.414,937.676,365.777,930.883,371.143,924.094z"/>
		<path fill-rule="evenodd" clip-rule="evenodd" fill="#1D2A57" d="M174.058,771.793c4.595,9.559,12.515,14.96,22.39,17.922
			c-2.986,8.959-5.969,17.912-8.952,26.867c-14.776-2.944-15.99,14.653-26.808,17.698c-1.514-1.426-3.027-2.853-4.542-4.278
			c-9.962-13.797,12.939-9.094,10.155-17.497c-4.013-12.121-18.676,5.538-23.173-7.296c-0.693-1.986-0.319-4.34-0.439-6.527
			c7.377-8.958,1.502-17.926,0.011-26.889c-2.345-5.761-0.37-10.074,4.479-13.434c4.479,0,8.958,0,13.436,0
			C165.541,762.393,161.632,775.267,174.058,771.793z"/>
		<path fill-rule="evenodd" clip-rule="evenodd" fill="#1A2755" d="M147.178,758.359c-1.494,4.479-2.985,8.954-4.479,13.434
			c-5.685-5.069-18.521-7.52-5.201-19.164c1.691-1.479,6.023-20.113-3.626-24.146c-12.003-5.018-12.542-15.669-18.046-23.875
			c3.939-1.05,8.515-5.997,11.828-1.168c9.059,13.21,17.224,27.037,25.712,40.633C158.175,751.78,149.531,753.723,147.178,758.359z"
			/>
		<path fill-rule="evenodd" clip-rule="evenodd" fill="#1A2755" d="M174.058,771.793c-14.16,5.21-14.098-3.814-13.444-13.434
			c4.481,0,8.961,0,13.442,0C179.23,762.839,172.57,767.318,174.058,771.793z"/>
		<path fill-rule="evenodd" clip-rule="evenodd" fill="#1F2C58" d="M84.467,632.939c1.737-11.697,7.706-8.788,16.365-4.72
			C95.224,634.685,89.395,632.257,84.467,632.939L84.467,632.939z"/>
		<path fill-rule="evenodd" clip-rule="evenodd" fill="#202D59" d="M75.509,583.667c9.378,0.801,10.634,7.497,13.127,17.375
			C78.05,597.035,76.257,590.731,75.509,583.667L75.509,583.667z"/>
		<path fill-rule="evenodd" clip-rule="evenodd" fill="#1B2855" d="M438.332,977.846c1.227-4.016-2.362-12.283,5.319-10.617
			c5.488,1.189-0.302,6.902-0.84,10.617C441.317,977.846,439.826,977.846,438.332,977.846z"/>
		<path fill-rule="evenodd" clip-rule="evenodd" fill="#1C2956" d="M639.9,955.462c12.178-17.673,30.659-18.001,49.289-17.917
			C675.302,950.515,660.792,961.756,639.9,955.462z"/>
		<path fill-rule="evenodd" clip-rule="evenodd" fill="#1B2855" d="M872.828,722.529c17.781-33.77,25.961-70.96,38.717-106.501
			c8.6-23.949,6.246-50.37,19.505-72.675c17.467,5.078,9.926,18.993,9.637,29.491c-0.651,23.731-6.955,46.53-14.111,69.054
			c-5.835,4.182-12.966,6.924-16.185,13.879c3.797,5.937,8.481-1.084,14.177,2.979c-22.786,6.032-7.179,16.911-4.843,26.806
			c2.8,11.828-23.796,14.094-7.562,30.843c-12.528,0.171-15.044-12.34-24.107-13.267c-3.827,8.857-1.163,16.43,2.686,23.866
			c1.443,5.62,4.384,12.501-3.525,14.785c-6.412,1.854-8.705-4.104-9.667-9.483C876.874,728.531,875.697,725.167,872.828,722.529z"
			/>
		<path fill-rule="evenodd" clip-rule="evenodd" fill="#1F2C58" d="M926.575,641.898c-0.875-11.654-8.906-24.566,6.093-33.442
			c1.715-1.015,4.038-4.558,3.767-4.864c-14.593-16.377-0.674-31.438,1.427-47.12c0.533-3.998-4.393-8.727-6.812-13.118h0.005
			c7.65-9.348,17.75-4.012,26.875-4.479c-4.558,35.029-8.381,70.187-14.094,105.032c-1.846,11.264-11.828-1.702-17.261,2.471
			C926.575,644.881,926.575,643.395,926.575,641.898z"/>
		<path fill-rule="evenodd" clip-rule="evenodd" fill="#1A2755" d="M796.676,816.59c13.683-20.077,32.815-35.917,44.67-57.399
			c3.123-5.651,8.412-5.157,13.561-5.31c7.821,10.717-3.85,15.607-7.498,22.125c-13.109,23.438-22.221,50.129-48.16,64.639
			C794.51,832.99,812.187,822.732,796.676,816.59z"/>
		<path fill-rule="evenodd" clip-rule="evenodd" fill="#1A2755" d="M702.61,874.821c28.171-20.743,58.191-38.389,89.586-53.751
			c0.044,11.281,1.653,20.252-16.885,19.115c-17.926-1.103-26.11,12.9-20.083,33.201c-7.965-1.138-14.614-2.091-21.264-3.045
			c-5.279-4.4-8.813-1.01-12.624,2.546C715.693,878.154,709.521,880.735,702.61,874.821z"/>
		<path fill-rule="evenodd" clip-rule="evenodd" fill="#1F2C58" d="M872.828,722.529c11.098-0.145,7.003,10.958,12.825,17.297
			c1.929-4.865,3.509-8.841,5.087-12.821c15.722,14.812-3.193,20.638-8.35,29.167c-7.932,13.105-15.73,3.203-23.014-2.296
			C865.383,744.082,874.136,735.465,872.828,722.529z"/>
		<path fill-rule="evenodd" clip-rule="evenodd" fill="#1B2856" d="M702.61,874.821c11.438,5.424,18.958-16.622,31.354-4.479
			c-2.571,0.517-7.873,1.637-5.393,3.938c11.85,10.988,1.32,11.754-5.762,13.595c-5.967,1.549-12.169-0.429-15.914,8.154
			c-4.57,10.472-5.992,9.847-13.245-3.29C694.378,885.635,696.788,879.375,702.61,874.821z"/>
		<path fill-rule="evenodd" clip-rule="evenodd" fill="#222F5A" d="M926.418,716.252c-1.234,1.365-2.354,3.74-3.902,4.068
			c-2.541,0.543-3.998-1.92-3.088-4.059c0.73-1.702,2.975-2.756,4.549-4.1C924.677,713.335,925.377,714.503,926.418,716.252z"/>
		<path fill-rule="evenodd" clip-rule="evenodd" fill="#1B2855" d="M716.039,140.226c-13.302,9.643-25.476,7.117-36.94-3.384
			c-8.569-7.852-17.174-15.671-25.761-23.503c1.627-5.33,3.259-10.66,5.062-16.546c7.449,5.293,11.631,24.317,25.144,5.197
			c2.979-4.215,8.924,3.806,9.75,10.387c0.42,3.381-16.421,5.783-0.665,8.521c1.435,0.25,17.077,7.985,14.566-7.292
			c-1.237-7.517,5.494-7.423,6.842-5.437c9.317,13.764,11.229,0.871,15.445-3.769c4.292,1.675,7.257,4.676,8.954,8.95
			C733.199,124.167,733.064,139.235,716.039,140.226z"/>
		<path fill-rule="evenodd" clip-rule="evenodd" fill="#1B2855" d="M644.379,113.341c-14.641-6.697-32.142-6.24-44.793-17.921
			c15.582-17.462,31.705,5.774,47.995,0.151C648.894,95.115,643.355,106.788,644.379,113.341z"/>
		<path fill-rule="evenodd" clip-rule="evenodd" fill="#1B2855" d="M756.361,167.095c-15.677,11.384-27.536-1.748-39.398-7.62
			c-10.407-5.15,1.233-9.938,3.564-14.778c7.191,2.401,16.648,17.32,19.501-3.904c0.77-5.752,5.477-3.755,8.421-1.426
			c13.936,11.03,10.646-4.536,14.75-9.937c14.046,5.695-0.145,24.68,13.923,29.787c-3.005,7.362-7.69,8.93-13.464,3.173
			C753.344,152.115,757.342,163.311,756.361,167.095z"/>
		<path fill-rule="evenodd" clip-rule="evenodd" fill="#1B2855" d="M823.551,225.326c-24.715-9.595-38.397-34.64-62.71-44.797
			c10.455-8.108,20.905-4.197,31.355,0.004c12.839,7.567,14.164,35.489,38.568,21.196
			C835.633,212.47,830.357,219.151,823.551,225.326z"/>
		<path fill-rule="evenodd" clip-rule="evenodd" fill="#1B2855" d="M926.575,444.811c-7.733-4.833-11.207-10.264-12.721-20.817
			c-8.347-58.102-28.923-111.442-68.116-156.456c-9.677-11.122-19.467-22.416-22.188-37.735
			c20.096,5.079,36.29,20.375,45.844,34.537c9.544,14.145,18.45,13.62,30.305,14.735c1.776,16.135,17.982,17.845,26.863,26.878
			c0.293,6.988-4.52,11.92-5.972,17.195c-3.889,1.785,3.128,2.524,0.569,0.986c-1.199-0.72-0.691-0.988,0.988-1.851
			c17.991-9.225,11.098,11.006,17.86,15.024c1.692,0.859,3.39,1.719,5.087,2.581c-3.185,0.635-6.369,1.267-9.558,1.901
			c-6.614,17.823-12.629,34.797-3.106,54.574c5.268,10.94,0.137,25.229,7.318,37.718
			C942.891,439.544,934.134,444.741,926.575,444.811z"/>
		<path fill-rule="evenodd" clip-rule="evenodd" fill="#212E5A" d="M849.719,216.223c2.957,0.993,7.423-0.444,5.957,4.486
			c-0.445,1.5-3.254,3.064-5.092,3.217c-3.097,0.26-6.098-1.365-5.646-4.969C845.082,217.793,848.248,217.01,849.719,216.223z"/>
		<path fill-rule="evenodd" clip-rule="evenodd" fill="#24305C" d="M837.387,171.038c-0.975,4.392-1.701,9.112-7.896,8.583
			c-2.396-0.204-4.619-1.717-3.543-4.263c2.205-5.236,7.515-3.222,11.562-4.162C837.514,171.191,837.387,171.038,837.387,171.038z"
			/>
		<path fill-rule="evenodd" clip-rule="evenodd" fill="#1D2A57" d="M926.575,444.811c4.501-5.499,17.903-8.913,2.957-18.481
			c-5.341-3.42-7.2-10.798-1.392-17.42c3.889-4.432,3.071-9.451-0.512-14.116c-15.646-20.369-3.219-36.6,7.909-53.003
			c2.371,5.988-5.743,12.972,1.662,18.383c1.728,1.26,4.028,2.447,6.041,2.417c2.896-0.046,3.054-2.457,1.641-4.44
			c-6.286-8.818-2.953-12.432,6.631-11.458c12.97,1.319,4.772,8.219,3.583,13.747c-0.521,2.428,1.802,5.465,2.834,8.228
			c-7.444,7.52-3.67,20.533-13.263,27.077c-1.015,0.695-1.321,2.438-1.96,3.694c17.777,4.564,3.352,21.146,10.561,28.855
			c13.928,14.89,5.555,28.94,0.184,43.393c-10.805,3.642-7.581,10.794-4.479,17.915c3.088,13.405-2.555,28.96,10.31,40.036
			c3.277,2.825,2.411,6.627-1.352,9.238c-7.55,9.925-17.75,3.98-26.875,4.479c9.334-24.688,4.658-49.583-2.262-73.266
			C926.15,461.046,927.052,453.221,926.575,444.811z"/>
		<path fill-rule="evenodd" clip-rule="evenodd" fill="#1D2A57" d="M940.009,337.308c-7.532-2.091-7.634-10.015-11.387-14.93
			c-7.856,1.326-6.36,14.201-19.173,12.119c10.258-7.97,4.217-22.886,17.113-28.544
			C942.262,311.594,944.908,322.833,940.009,337.308z"/>
		<path fill-rule="evenodd" clip-rule="evenodd" fill="#202D59" d="M948.972,489.6c-9.003-4.65-7.944-13.792-7.962-21.399
			c0-1.686,9.021-1.378,12.441,3.484C951.955,477.655,950.463,483.626,948.972,489.6z"/>
		<path fill-rule="evenodd" clip-rule="evenodd" fill="#1D2A57" d="M968.14,524.807c-4.016-0.499-7.462-2.568-8.171-6.365
			c-0.901-4.824,2.598-6.329,6.837-5.547c3.889,0.723,6.837,3.084,7.248,7.17C974.465,524.133,971.109,524.439,968.14,524.807z"/>
		<path fill-rule="evenodd" clip-rule="evenodd" fill="#212E5A" d="M568.59,962.465c-0.813-11.395-3.333-17.042-14.439-8.303
			c-4.028,3.172-7.751,7.078-12.296,9.151c-3.696,1.68-9.685,2.687-11.47-2.572c-1.994-5.87,2.572-7.795,7.625-6.78
			c6.246,1.252,9.759-2.432,13.053-6.412c4.143-5,7.021-12.064,15.559-6.08C575.239,947.514,572.912,954.617,568.59,962.465z"/>
		<path fill-rule="evenodd" clip-rule="evenodd" fill="#222F5B" d="M492.083,977.846c-4.28-3.894-8.422-7.835-6.557-14.864
			c8.193,2.782,5.925,9.431,6.555,14.864H492.083z"/>
		<path fill-rule="evenodd" clip-rule="evenodd" fill="#212E59" d="M93.426,426.892c-2.117,3.495-2.625,8.2-7.335,9.739
			c-0.521-2.023-1.514-4.055-1.474-6.064C84.761,423.019,89.401,425.551,93.426,426.892L93.426,426.892z"/>
		<path fill-rule="evenodd" clip-rule="evenodd" fill="#202D59" d="M84.467,355.223c5.383-0.247,10.765-0.492,18.772-0.859
			C95.001,365.544,89.629,364.755,84.467,355.223L84.467,355.223z"/>
		<path fill-rule="evenodd" clip-rule="evenodd" fill="#1E2B58" d="M79.988,386.578c0.499-4.873-1.328-10.883,5.763-12.642
			c2.357-0.586,4.646,0.389,4.4,3.145C89.623,383.083,86.053,386.274,79.988,386.578L79.988,386.578z"/>
		<path fill-rule="evenodd" clip-rule="evenodd" fill="#1E2B58" d="M102.389,395.539c-1.934,3.606-5.276,4.387-8.963,4.477
			c-0.91-3.27-4.534-7.058-0.417-9.77C98.522,386.611,100.289,391.873,102.389,395.539z"/>
		<path fill-rule="evenodd" clip-rule="evenodd" fill="#25315C" d="M940.223,447.578c1.803,2.08,4.357,3.932,5.302,6.399
			c1.129,2.957-1.89,3.744-3.587,2.5c-2.147-1.573-3.465-4.276-5.135-6.489C937.747,449.319,938.701,448.652,940.223,447.578z"/>
	</g>
	<g>
		<path fill="#FFFFFF" stroke="#182653" stroke-linecap="round" stroke-linejoin="round" stroke-miterlimit="10" d="
			M717.942,217.432c-2.948-0.184-8.517,6.054-18.897,17.913c-9.453,10.809-22.523,17.073-36.512,10.153
			c-25.288-12.51-16.526-36.788-13.08-59.184c1.155-7.502-0.766-16.977-25.975-4.121c-11.098,5.669-26.556,16.333-35.042,31.114
			c-4.899,8.526-8.601,9.562-19.409,23.083c-10.817,13.508-19.369,33.774-19.369,47.277c0,13.499,3.613,21.167-11.706,29.71
			c-20.034,11.211-43.887,12.169-75.986,4.059c-32.108-8.105-51.022-20.271-76.682-25.659c-25.668-5.385-56.761,0-56.761,0
			s-4.65-39.881-28.363-62.138c-29.719-27.943-71.166-36.053-105.381-2.725c-31.806,30.966-30.734,62.57-22.978,81.975
			c8.097,20.253,28.367,36.945,54.049,30.183c30.244-7.979,28.048-40.878,13.508-55.405c-10.822-10.813-29.277-5.861-29.277-5.861
			s11.601,6.255,16.216,13.062c8.547,12.611,0.175,27.112-13.517,26.569c-11.251-0.441-36.018-22.965-16.675-55.379
			c15.957-26.714,50.143-35.414,74.337-22.982c32.422,16.657,35.117,56.752,35.117,56.752s-10.801,59.464-6.741,78.366
			c4.046,18.901,10.8,47.291,6.741,85.124c-4.06,37.825-7.139,68.816-3.613,102.67c4.531,43.24,34.237,68.317,34.237,68.317
			s-17.58-45.878-8.989-94.428c2.948-16.731,9.072-26.972,17.313-34.964c0.276,14.89,1.619,33.962,6.107,50.063
			c11.268,40.567,35.603,60.165,37.112,60.479c-21.518-42.011-24.859-83.76-19.707-113.925c1.186-6.959,2.756-12.327,4.528-16.661
			c1.29-0.849,2.624-1.724,3.945-2.651c23.661-16.22,24.129-37.776,33.096-39.85c12.467-2.87,36.897-1.846,55.401,6.093
			c10.546,4.497,35.804,23.625,35.804,23.625S490.369,508,491.34,555.903c1.601,79.521,34.438,88.204,37.824,91.892
			c0,0-14.186-29.051-11.478-77.701c2.712-48.616,14.872-74.302,24.316-95.929c9.457-21.609,28.376-31.749,28.376-31.749
			s0.547,48.953,8.114,92.561c8.097,46.832,28.984,73.462,56.722,87.832c27.033,13.94,50.017-4.064,50.017-4.064
			s-26.334,11.041-55.393-18.026c-26.123-26.101-29.403-67.626-25.23-109.874c5.17-52.286,14.864-93.243,20.262-102.691
			c5.411-9.466,41.893-12.625,63.493-36.937c21.631-24.321,26.924-50.361,29.579-80.041c1.316-14.61,1.736-16.985,4.326-25.97
			C725.12,235.332,725.195,217.922,717.942,217.432z"/>
	</g>
	<path fill="#FFFFFF" stroke="#182653" stroke-linecap="round" stroke-linejoin="round" stroke-miterlimit="10" d="M697.479,405.265
		c0,0-108.462,218.768,7.839,225.203c82.596,4.554,78.203-117.805,78.203-117.805s114.227,242.376-19.479,289.085
		c-61.328,21.422-103.57,7.848-128.557-23.778c-17.869-22.61-7.188-49.977-7.188-49.977s-21.884,38.699,0.919,71.953
		c32.821,47.881,113.641,56.73,163.722,22.913c119.918-80.965-7.064-373.746-7.064-373.746s-19.553,146.71-71.638,135.053
		C651.531,570.124,697.479,405.265,697.479,405.265z"/>
	<g>
		<path fill="#FFFFFF" d="M223.137,675.266h33.124v14.75H241.09v6.237h14.918v13.991H241.09v21.24h-17.953V675.266z"/>
		<path fill="#FFFFFF" d="M294.443,675.266h13.486l21.324,56.219h-17.7l-1.854-5.058h-17.025l-1.854,5.058h-17.7L294.443,675.266z
			 M304.979,714.037l-3.793-9.861l-3.793,9.861H304.979z"/>
		<path fill="#FFFFFF" d="M352.262,675.266l9.524,24.443l9.609-24.443h19.638l-21.914,56.219h-14.582l-21.914-56.219H352.262z"/>
		<path fill="#FFFFFF" d="M407.891,703.417c0-4.046,0.772-7.866,2.318-11.463c1.545-3.595,3.652-6.729,6.322-9.397
			c2.668-2.668,5.801-4.775,9.397-6.321c3.596-1.545,7.417-2.318,11.463-2.318c4.046,0,7.866,0.773,11.463,2.318
			c3.595,1.546,6.729,3.653,9.398,6.321c2.668,2.669,4.775,5.803,6.321,9.397c1.545,3.597,2.318,7.417,2.318,11.463
			s-0.773,7.868-2.318,11.463c-1.546,3.597-3.653,6.729-6.321,9.398c-2.669,2.669-5.803,4.776-9.398,6.321
			c-3.597,1.545-7.417,2.317-11.463,2.317c-4.045,0-7.867-0.772-11.463-2.317c-3.596-1.545-6.729-3.652-9.397-6.321
			c-2.67-2.669-4.777-5.802-6.322-9.398C408.663,711.285,407.891,707.463,407.891,703.417z M425.591,703.417
			c0,1.631,0.308,3.161,0.927,4.594c0.618,1.433,1.46,2.684,2.528,3.751c1.067,1.067,2.318,1.911,3.751,2.528
			c1.433,0.619,2.963,0.927,4.593,0.927c1.629,0,3.161-0.308,4.594-0.927c1.433-0.617,2.683-1.461,3.75-2.528
			c1.067-1.067,1.91-2.318,2.529-3.751c0.618-1.433,0.927-2.963,0.927-4.594c0-1.629-0.31-3.16-0.927-4.594
			c-0.619-1.433-1.462-2.683-2.529-3.75c-1.068-1.067-2.318-1.91-3.75-2.529c-1.433-0.617-2.964-0.927-4.594-0.927
			c-1.63,0-3.161,0.31-4.593,0.927c-1.433,0.619-2.684,1.462-3.751,2.529c-1.068,1.067-1.911,2.317-2.528,3.75
			C425.899,700.257,425.591,701.788,425.591,703.417z"/>
		<path fill="#FFFFFF" d="M511.393,732.917c-3.54,0-6.743-0.45-9.608-1.349c-2.866-0.897-5.31-2.246-7.333-4.046
			c-2.023-1.797-3.582-4.073-4.678-6.826s-1.644-5.984-1.644-9.693v-35.737h17.953v34.979c0,1.968,0.407,3.471,1.222,4.51
			c0.814,1.04,2.177,1.559,4.088,1.559c1.909,0,3.272-0.519,4.088-1.559c0.813-1.039,1.222-2.542,1.222-4.51v-34.979h18.037v35.737
			c0,3.709-0.548,6.94-1.644,9.693s-2.669,5.029-4.72,6.826c-2.052,1.8-4.509,3.148-7.375,4.046
			C518.136,732.467,514.933,732.917,511.393,732.917z"/>
		<path fill="#FFFFFF" d="M557.243,675.266h19.386c3.595,0,6.925,0.479,9.987,1.433c3.062,0.957,5.717,2.36,7.965,4.215
			c2.247,1.854,4.004,4.145,5.269,6.869c1.264,2.727,1.896,5.857,1.896,9.397c0,2.811-0.395,5.198-1.181,7.165
			c-0.787,1.967-1.657,3.597-2.612,4.889c-1.125,1.461-2.389,2.696-3.793,3.708l10.536,18.543h-21.072l-8.428-14.244v14.244h-17.953
			V675.266z M575.196,702.911h0.927c2.135,0,3.947-0.477,5.437-1.433c1.488-0.955,2.233-2.556,2.233-4.804
			c0-2.247-0.745-3.849-2.233-4.805c-1.489-0.955-3.302-1.433-5.437-1.433h-0.927V702.911z"/>
		<path fill="#FFFFFF" d="M623.238,675.266h19.049v56.219h-19.049V675.266z"/>
		<path fill="#FFFFFF" d="M672.46,690.016h-10.367v-14.75h39.277v14.75h-10.367v41.469H672.46V690.016z"/>
		<path fill="#FFFFFF" d="M721.177,675.266h33.124v14.75H739.13v6.237h14.918v13.991H739.13v6.49h15.761v14.75h-33.714V675.266z"/>
		<path fill="#FFFFFF" d="M344.633,804.56c0-4.494,0.787-8.555,2.36-12.179c1.572-3.625,3.708-6.729,6.406-9.313
			c2.697-2.584,5.843-4.565,9.44-5.942c3.595-1.376,7.417-2.065,11.463-2.065c3.203,0,6.054,0.31,8.555,0.928
			c2.5,0.618,4.649,1.32,6.448,2.106c2.078,0.899,3.877,1.884,5.395,2.95l-8.85,15.593c-0.899-0.674-1.883-1.319-2.95-1.938
			c-0.956-0.449-2.094-0.885-3.413-1.307c-1.321-0.421-2.824-0.632-4.51-0.632c-1.742,0-3.344,0.31-4.804,0.927
			c-1.462,0.619-2.739,1.462-3.835,2.529s-1.953,2.317-2.571,3.75c-0.619,1.434-0.927,2.965-0.927,4.594
			c0,1.631,0.322,3.161,0.969,4.594c0.645,1.433,1.53,2.684,2.655,3.751c1.124,1.067,2.444,1.911,3.961,2.528
			c1.517,0.619,3.174,0.927,4.973,0.927c1.797,0,3.399-0.224,4.804-0.674c1.404-0.449,2.584-0.955,3.54-1.518
			c1.123-0.617,2.107-1.349,2.95-2.191l8.85,15.593c-1.517,1.237-3.316,2.333-5.394,3.288c-1.799,0.787-3.961,1.517-6.49,2.191
			c-2.528,0.674-5.423,1.011-8.682,1.011c-4.383,0-8.428-0.716-12.137-2.149c-3.709-1.433-6.912-3.44-9.609-6.026
			c-2.697-2.584-4.804-5.689-6.321-9.313S344.633,808.942,344.633,804.56z"/>
		<path fill="#FFFFFF" d="M435.409,776.408h13.486l21.324,56.219h-17.7l-1.854-5.058h-17.025l-1.854,5.058h-17.7L435.409,776.408z
			 M445.945,815.18l-3.793-9.861l-3.793,9.861H445.945z"/>
		<path fill="#FFFFFF" d="M499.971,791.158h-10.367v-14.75h39.277v14.75h-10.367v41.469h-18.542V791.158z"/>
		<path fill="#FFFFFF" d="M555.599,815.18c1.235,0.394,2.529,0.703,3.877,0.928c1.124,0.281,2.402,0.505,3.835,0.674
			c1.434,0.169,2.879,0.253,4.341,0.253c2.584,0,3.878-0.955,3.878-2.866c0-0.729-0.395-1.475-1.181-2.233
			c-0.787-0.759-1.784-1.602-2.992-2.528c-1.209-0.927-2.501-1.952-3.877-3.076c-1.378-1.124-2.669-2.416-3.877-3.877
			c-1.209-1.461-2.206-3.104-2.992-4.932c-0.787-1.825-1.18-3.919-1.18-6.278c0-2.641,0.477-4.974,1.433-6.996
			c0.955-2.023,2.275-3.709,3.961-5.058c1.687-1.349,3.667-2.373,5.942-3.076c2.275-0.702,4.706-1.054,7.291-1.054
			c1.349,0,2.697,0.071,4.046,0.211c1.349,0.141,2.556,0.268,3.624,0.379c1.235,0.169,2.444,0.338,3.624,0.506v15.762
			c-0.45-0.056-0.956-0.112-1.517-0.169c-0.451-0.055-0.956-0.111-1.518-0.168c-0.562-0.056-1.152-0.085-1.77-0.085
			c-0.338,0-0.759,0.015-1.265,0.043s-0.983,0.099-1.433,0.21c-0.451,0.113-0.843,0.31-1.181,0.591
			c-0.337,0.281-0.505,0.674-0.505,1.18c0,0.45,0.379,1.012,1.138,1.686c0.758,0.674,1.686,1.462,2.781,2.36
			c1.096,0.899,2.304,1.938,3.624,3.118c1.319,1.18,2.528,2.528,3.624,4.046c1.096,1.517,2.023,3.231,2.782,5.142
			c0.758,1.91,1.138,4.046,1.138,6.405c0,2.474-0.394,4.791-1.181,6.954s-2.009,4.045-3.666,5.646
			c-1.658,1.602-3.779,2.866-6.363,3.793c-2.586,0.928-5.647,1.391-9.188,1.391c-2.136,0-4.117-0.099-5.942-0.295
			c-1.826-0.197-3.442-0.436-4.846-0.716c-1.631-0.282-3.119-0.618-4.468-1.012V815.18z"/>
	</g>
</g>
</svg>
