<?xml version="1.0" encoding="utf-8"?>
<!-- Generator: Adobe Illustrator 16.0.4, SVG Export Plug-In . SVG Version: 6.00 Build 0)  -->
<!DOCTYPE svg PUBLIC "-//W3C//DTD SVG 1.1//EN" "http://www.w3.org/Graphics/SVG/1.1/DTD/svg11.dtd">
<svg version="1.1" id="Layer_1" xmlns="http://www.w3.org/2000/svg" xmlns:xlink="http://www.w3.org/1999/xlink" x="0px" y="0px"
	 width="400px" height="400px" viewBox="0 0 400 400" enable-background="new 0 0 400 400" xml:space="preserve">
<g>
	<path fill="#F2BCB8" d="M200.354,179.714c29.24-0.376,43.603,17.839,56.488,36.668c12.887,18.828,11.033,24.108,27.569,34.599
		c16.534,10.492,45.27,28.328,53.692,58.556c8.422,30.228-2.478,60.948-12.884,67.884c-10.404,6.938-37.628-4.953-54.489-3.964
		c-16.863,0.991-40.648,22.299-64.434,22.299c-23.785,0-40.134-18.828-61.441-20.315c-21.308-1.485-51.532,21.307-68.381-8.424
		c-16.849-29.731-11.396-61.936,7.432-79.281c18.83-17.344,33.201-21.805,43.11-39.642
		C136.926,230.255,161.707,180.21,200.354,179.714z"/>
	<path fill="#F2BCB8" d="M69.05,139.811c15.421-3.037,36.438,38.789,41.139,63.865c4.703,25.076-14.104,50.544-31.343,51.719
		c-17.239,1.174-53.678-18.414-54.853-42.314C22.818,189.179,43.191,144.904,69.05,139.811z"/>
	<path fill="#F2BCB8" d="M146.514,13.33c17.126-2.299,41.922,65.039,38.789,94.034c-3.132,28.993-23.509,42.312-38.789,43.097
		c-15.281,0.784-41.046-12.539-45.598-33.694C96.363,95.608,114.384,17.638,146.514,13.33z"/>
	<path fill="#F2BCB8" d="M244.691,4.352c18.228-2.832,49.367,50.994,51.326,79.203c1.959,28.211-10.58,40.355-19.983,48.975
		c-9.401,8.622-38.396,14.106-49.759,0C214.911,118.424,204.727,10.563,244.691,4.352z"/>
	<path fill="#F2BCB8" d="M332.293,123.588c19.979-0.376,39.573,35.655,43.49,74.835c3.917,39.181-35.607,51.718-51.694,49.759
		c-16.088-1.957-36.76-20.078-31.946-52.5C297.031,162.77,311.529,123.98,332.293,123.588z"/>
</g>
</svg>
