<?xml version="1.0" encoding="utf-8"?>
<!-- Generator: Adobe Illustrator 16.0.0, SVG Export Plug-In . SVG Version: 6.00 Build 0)  -->
<!DOCTYPE svg PUBLIC "-//W3C//DTD SVG 1.1//EN" "http://www.w3.org/Graphics/SVG/1.1/DTD/svg11.dtd">
<svg version="1.1" id="Layer_1" xmlns="http://www.w3.org/2000/svg" xmlns:xlink="http://www.w3.org/1999/xlink" x="0px" y="0px"
	 width="1000px" height="830px" viewBox="0 0 1000 830" enable-background="new 0 0 1000 830" xml:space="preserve">
<path fill="#EDE3D1" d="M-65.663,840.5h1131.325v-939H-65.663V840.5z M34.951,438.085c11.124-97.885,37.992-183.724,38.261-184.58
	l0.236-0.749v-55.087c0-54.273,41.234-165.439,63.75-183.859c0.333-0.272,0.917-0.634,2.147-0.634
	c5.457,0,23.769,6.739,75.836,69.165c29.168,34.971,54.688,70.429,54.941,70.784l2.188,3.041l3.554-1.18
	c25.524-8.479,105.107-24.536,223.61-24.629l1.043,0.002c118.506,0.091,198.089,16.148,223.612,24.626l3.558,1.185l2.188-3.045
	c0.254-0.353,25.74-35.773,54.904-70.745c52.09-62.46,70.413-69.203,75.872-69.203c1.217,0,1.787,0.339,2.146,0.634
	c22.516,18.421,63.752,129.587,63.752,183.86v55.088l0.236,0.748c0.27,0.855,27.137,86.694,38.26,184.58
	c11.528,101.457,17.542,197.04-34.816,251.579c-26.331,27.428-86.126,57.848-159.955,81.372
	c-83.477,26.601-176.897,42.094-263.058,43.629l-5.038,0.09l0.001,0.028c-0.712-0.005-1.425-0.012-2.138-0.019
	c0,0-1.526,0.014-2.245,0.019v-0.028l-5.021-0.09c-86.16-1.535-179.581-17.029-263.059-43.629
	c-73.828-23.524-133.624-53.944-159.954-81.372C17.41,635.124,23.423,539.54,34.951,438.085z"/>
<path fill="#845604" d="M970.107,437.511c-11.312-99.557-38.464-185.538-38.464-185.538s0,0,0-54.303
	c0-54.304-40.729-167.437-65.618-187.8c-1.484-1.214-3.286-1.785-5.371-1.784c-32.866,0.009-134.913,142.069-134.913,142.069
	s-74.329-24.771-225.218-24.887v-0.002c-0.175,0-0.348,0.001-0.523,0.001s-0.348-0.001-0.523-0.001v0.002
	c-150.891,0.116-225.218,24.887-225.218,24.887S172.205,8.084,139.345,8.084c-2.082,0-3.888,0.571-5.372,1.784
	c-24.889,20.364-65.617,133.497-65.617,187.8c0,54.304,0,54.304,0,54.304S41.205,337.953,29.891,437.51
	c-11.313,99.557-18.101,199.113,36.203,255.68c52.942,55.148,237.078,123.189,426.595,126.565v0.143c2.437,0,4.875-0.02,7.311-0.041
	c2.438,0.023,4.874,0.041,7.312,0.041l-0.001-0.143c189.516-3.376,373.651-71.417,426.594-126.565
	C988.21,636.623,981.421,537.066,970.107,437.511z M966.466,580.631c-3.898,47.085-16.952,81.597-39.905,105.508
	c-25.771,26.844-84.771,56.768-157.829,80.048c-83.019,26.453-175.923,41.863-261.601,43.389l-6.104,0.109
	c-0.312-0.002-0.622-0.006-0.935-0.008L500,809.675l-0.092,0.001c-0.311,0.002-0.621,0.005-0.933,0.008l-6.104-0.109
	c-85.679-1.525-178.584-16.936-261.604-43.391C158.212,742.905,99.21,712.981,73.44,686.137
	c-22.953-23.91-36.007-58.422-39.905-105.507c-3.758-45.369,1.372-97.07,6.475-141.972c11.074-97.451,37.79-182.771,38.059-183.62
	l0.472-1.497v-1.569v-54.304c0-23.718,8.772-63.276,22.893-103.234c14.99-42.42,29.891-68.53,38.344-76.13
	c3.27,0.438,20.27,5.888,71.462,67.258c29.055,34.831,54.496,70.179,54.75,70.532l4.375,6.089l7.114-2.371
	c0.173-0.058,18.725-6.128,55.204-12.136c33.678-5.546,89.955-12.17,166.802-12.229h0.581h0.451
	c147.534,0.113,221.279,24.122,222.006,24.365l7.114,2.371l4.374-6.089c0.254-0.353,25.692-35.698,54.748-70.528
	c51.336-61.542,68.291-66.854,71.461-67.267c8.452,7.595,23.355,33.707,38.348,76.135c14.122,39.959,22.895,79.518,22.895,103.234
	v54.304v1.568l0.472,1.497c0.27,0.851,26.994,86.269,38.057,183.623C965.092,483.561,970.223,535.265,966.466,580.631z"/>
</svg>
